Urbanist-ExtraBold.ufo
<glyph name="exclam" format="2">
  <advance width="472.0"/>
  <unicode hex="0021"/>
  <outline>
    <contour>
      <point x="103.0" y="420.0" type="line"/>
      <point x="329.2" y="420.0" type="line"/>
      <point x="329.2" y="1400.0" type="line"/>
      <point x="103.0" y="1400.0" type="line"/>
    </contour>
    <contour>
      <point x="217.0" y="-26.0" type="curve" smooth="yes"/>
      <point x="291.8" y="-26.0"/>
      <point x="352.0" y="34.2"/>
      <point x="352.0" y="112.80000000000001" type="curve" smooth="yes"/>
      <point x="352.0" y="187.60000000000002"/>
      <point x="291.8" y="247.8"/>
      <point x="217.0" y="247.8" type="curve" smooth="yes"/>
      <point x="140.2" y="247.8"/>
      <point x="80.0" y="187.60000000000002"/>
      <point x="80.0" y="112.80000000000001" type="curve" smooth="yes"/>
      <point x="80.0" y="34.2"/>
      <point x="140.2" y="-26.0"/>
    </contour>
  </outline>
</glyph>
<glyph name="numbersign" format="2">
  <advance width="1588.25"/>
  <unicode hex="0023"/>
  <outline>
    <contour>
      <point x="1438.0" y="864.8" type="line"/>
      <point x="1508.2" y="1125.8" type="line"/>
      <point x="1350.2" y="1125.8" type="line"/>
      <point x="1422.2" y="1400.0" type="line"/>
      <point x="1152.2" y="1400.0" type="line"/>
      <point x="1080.2" y="1125.8" type="line"/>
      <point x="736.6" y="1125.8" type="line"/>
      <point x="810.2" y="1400.0" type="line"/>
      <point x="540.2" y="1400.0" type="line"/>
      <point x="466.6" y="1125.8" type="line"/>
      <point x="308.2" y="1125.8" type="line"/>
      <point x="238.0" y="864.8" type="line"/>
      <point x="398.0" y="864.8" type="line"/>
      <point x="308.2" y="535.6" type="line"/>
      <point x="150.2" y="535.6" type="line"/>
      <point x="80.0" y="274.6" type="line"/>
      <point x="238.2" y="274.6" type="line"/>
      <point x="166.0" y="0.0" type="line"/>
      <point x="436.0" y="0.0" type="line"/>
      <point x="508.2" y="274.6" type="line"/>
      <point x="852.0" y="274.6" type="line"/>
      <point x="778.0" y="0.0" type="line"/>
      <point x="1048.0" y="0.0" type="line"/>
      <point x="1122.0" y="274.6" type="line"/>
      <point x="1280.0" y="274.6" type="line"/>
      <point x="1350.2" y="535.6" type="line"/>
      <point x="1190.2" y="535.6" type="line"/>
      <point x="1280.0" y="864.8" type="line"/>
    </contour>
    <contour>
      <point x="920.2" y="535.6" type="line"/>
      <point x="578.2" y="535.6" type="line"/>
      <point x="668.0" y="864.8" type="line"/>
      <point x="1010.0" y="864.8" type="line"/>
    </contour>
  </outline>
</glyph>
<glyph name="dollar" format="2">
  <advance width="1215.75"/>
  <unicode hex="0024"/>
  <outline>
    <contour>
      <point x="607.8" y="1153.2" type="curve"/>
      <point x="744.2" y="1153.2"/>
      <point x="857.2" y="1092.2"/>
      <point x="881.8" y="1021.8" type="curve"/>
      <point x="1135.8" y="1113.6" type="line"/>
      <point x="1075.0" y="1283.8"/>
      <point x="895.6" y="1394.0"/>
      <point x="699.2" y="1419.6" type="curve"/>
      <point x="699.2" y="1624.0" type="line"/>
      <point x="516.8" y="1624.0" type="line"/>
      <point x="516.8" y="1419.6" type="line"/>
      <point x="276.0" y="1386.8"/>
      <point x="81.2" y="1225.2"/>
      <point x="81.2" y="994.8" type="curve"/>
      <point x="81.2" y="723.6"/>
      <point x="307.0" y="609.6"/>
      <point x="607.8" y="564.6" type="curve"/>
      <point x="732.8" y="545.6"/>
      <point x="864.6" y="502.2"/>
      <point x="864.6" y="404.2" type="curve"/>
      <point x="864.6" y="308.6"/>
      <point x="741.0" y="244.0"/>
      <point x="607.8" y="244.0" type="curve"/>
      <point x="471.2" y="244.0"/>
      <point x="358.2" y="306.8"/>
      <point x="333.8" y="377.2" type="curve"/>
      <point x="80.0" y="283.6" type="line"/>
      <point x="141.6" y="115.8"/>
      <point x="317.2" y="6.4"/>
      <point x="516.8" y="-19.0" type="curve"/>
      <point x="516.8" y="-224.0" type="line"/>
      <point x="699.2" y="-224.0" type="line"/>
      <point x="699.2" y="-19.0" type="line"/>
      <point x="940.0" y="14.0"/>
      <point x="1134.6" y="175.2"/>
      <point x="1134.6" y="404.2" type="curve"/>
      <point x="1134.6" y="658.2"/>
      <point x="892.0" y="792.2"/>
      <point x="607.8" y="835.0" type="curve"/>
      <point x="466.8" y="856.6"/>
      <point x="351.2" y="873.2"/>
      <point x="351.2" y="994.8" type="curve"/>
      <point x="351.2" y="1086.8"/>
      <point x="477.8" y="1155.0"/>
    </contour>
  </outline>
</glyph>
<glyph name="percent" format="2">
  <advance width="1564.75"/>
  <unicode hex="0025"/>
  <outline>
    <contour>
      <point x="222.6" y="0.0" type="line"/>
      <point x="534.0" y="0.0" type="line"/>
      <point x="1342.0" y="1400.0" type="line"/>
      <point x="1030.6" y="1400.0" type="line"/>
    </contour>
    <contour>
      <point x="396.2" y="777.6" type="curve" smooth="yes"/>
      <point x="563.6" y="777.6"/>
      <point x="710.8" y="912.6"/>
      <point x="710.8" y="1092.0" type="curve" smooth="yes"/>
      <point x="710.8" y="1268.0"/>
      <point x="568.8" y="1406.8"/>
      <point x="396.2" y="1406.8" type="curve" smooth="yes"/>
      <point x="227.2" y="1406.8"/>
      <point x="80.0" y="1273.2"/>
      <point x="80.0" y="1092.0" type="curve" smooth="yes"/>
      <point x="80.0" y="916.0"/>
      <point x="223.8" y="777.6"/>
    </contour>
    <contour>
      <point x="396.2" y="960.0" type="curve" smooth="yes"/>
      <point x="322.2" y="960.0"/>
      <point x="262.6" y="1018.2"/>
      <point x="262.6" y="1092.0" type="curve" smooth="yes"/>
      <point x="262.6" y="1166.0"/>
      <point x="322.2" y="1224.2"/>
      <point x="396.2" y="1224.2" type="curve" smooth="yes"/>
      <point x="468.6" y="1224.2"/>
      <point x="528.2" y="1166.0"/>
      <point x="528.2" y="1092.0" type="curve" smooth="yes"/>
      <point x="528.2" y="1018.2"/>
      <point x="468.6" y="960.0"/>
    </contour>
    <contour>
      <point x="1168.6" y="-8.400000000000006" type="curve" smooth="yes"/>
      <point x="1342.8" y="-8.400000000000006"/>
      <point x="1484.8" y="133.8"/>
      <point x="1484.8" y="306.2" type="curve" smooth="yes"/>
      <point x="1484.8" y="473.6"/>
      <point x="1349.8" y="622.6"/>
      <point x="1168.6" y="622.6" type="curve" smooth="yes"/>
      <point x="1001.2" y="622.6"/>
      <point x="853.8" y="485.8"/>
      <point x="853.8" y="306.2" type="curve" smooth="yes"/>
      <point x="853.8" y="140.8"/>
      <point x="992.6" y="-8.400000000000006"/>
    </contour>
    <contour>
      <point x="1168.6" y="174.0" type="curve" smooth="yes"/>
      <point x="1096.2" y="174.0"/>
      <point x="1036.2" y="234.0"/>
      <point x="1036.2" y="306.2" type="curve" smooth="yes"/>
      <point x="1036.2" y="380.0"/>
      <point x="1096.2" y="440.0"/>
      <point x="1168.6" y="440.0" type="curve" smooth="yes"/>
      <point x="1242.2" y="440.0"/>
      <point x="1302.2" y="380.0"/>
      <point x="1302.2" y="306.2" type="curve" smooth="yes"/>
      <point x="1302.2" y="234.0"/>
      <point x="1242.2" y="174.0"/>
    </contour>
  </outline>
</glyph>
<glyph name="ampersand" format="2">
  <advance width="1434.0"/>
  <unicode hex="0026"/>
  <outline>
    <contour>
      <point x="516.8" y="-26.0" type="curve" smooth="yes"/>
      <point x="682.8" y="-26.0"/>
      <point x="748.6" y="24.6"/>
      <point x="943.6" y="219.6" type="curve"/>
      <point x="1163.2" y="0.0" type="line"/>
      <point x="1354.0" y="190.8" type="line"/>
      <point x="1134.0" y="410.6" type="line"/>
      <point x="1204.2" y="480.8" type="line"/>
      <point x="1204.2" y="862.2" type="line"/>
      <point x="943.6" y="601.8" type="line"/>
      <point x="707.8" y="837.6" type="line"/>
      <point x="807.6" y="937.2"/>
      <point x="847.6" y="998.6"/>
      <point x="847.6" y="1112.8" type="curve" smooth="yes"/>
      <point x="847.6" y="1298.2"/>
      <point x="698.6" y="1443.6"/>
      <point x="516.8" y="1443.6" type="curve" smooth="yes"/>
      <point x="340.6" y="1443.6"/>
      <point x="188.0" y="1303.2"/>
      <point x="188.0" y="1112.8" type="curve" smooth="yes"/>
      <point x="188.0" y="1000.8"/>
      <point x="223.8" y="940.0"/>
      <point x="326.0" y="837.6" type="curve"/>
      <point x="135.0" y="646.6"/>
      <point x="80.0" y="580.0"/>
      <point x="80.0" y="411.0" type="curve" smooth="yes"/>
      <point x="80.0" y="178.0"/>
      <point x="269.0" y="-26.0"/>
    </contour>
    <contour>
      <point x="516.8" y="244.0" type="curve" smooth="yes"/>
      <point x="431.0" y="244.0"/>
      <point x="350.2" y="312.8"/>
      <point x="350.2" y="410.6" type="curve" smooth="yes"/>
      <point x="350.2" y="493.2"/>
      <point x="384.0" y="513.8"/>
      <point x="516.8" y="646.8" type="curve"/>
      <point x="752.8" y="410.8" type="line"/>
      <point x="626.2" y="283.8"/>
      <point x="600.0" y="244.0"/>
    </contour>
    <contour>
      <point x="516.8" y="988.0" type="curve"/>
      <point x="446.8" y="1056.6"/>
      <point x="423.0" y="1069.6"/>
      <point x="423.0" y="1118.0" type="curve" smooth="yes"/>
      <point x="423.0" y="1170.8"/>
      <point x="468.0" y="1212.0"/>
      <point x="516.8" y="1212.0" type="curve" smooth="yes"/>
      <point x="559.8" y="1212.0"/>
      <point x="610.8" y="1178.6"/>
      <point x="610.8" y="1118.0" type="curve" smooth="yes"/>
      <point x="610.8" y="1069.8"/>
      <point x="594.6" y="1063.8"/>
    </contour>
  </outline>
</glyph>
<glyph name="parenleft" format="2">
  <advance width="786.75"/>
  <unicode hex="0028"/>
  <outline>
    <contour>
      <point x="416.8" y="-112.0" type="curve"/>
      <point x="686.8" y="-112.0" type="line"/>
      <point x="548.0" y="45.8"/>
      <point x="391.6" y="331.6"/>
      <point x="390.0" y="644.0" type="curve" smooth="yes"/>
      <point x="391.6" y="891.0"/>
      <point x="556.0" y="1319.2"/>
      <point x="686.8" y="1400.0" type="curve"/>
      <point x="416.8" y="1400.0" type="line"/>
      <point x="248.8" y="1325.8"/>
      <point x="120.0" y="879.6"/>
      <point x="120.0" y="644.0" type="curve" smooth="yes"/>
      <point x="120.0" y="330.8"/>
      <point x="208.2" y="94.0"/>
    </contour>
  </outline>
</glyph>
<glyph name="parenright" format="2">
  <advance width="786.75"/>
  <unicode hex="0029"/>
  <outline>
    <contour>
      <point x="100.0" y="-112.0" type="curve"/>
      <point x="370.0" y="-112.0" type="line"/>
      <point x="578.6" y="94.0"/>
      <point x="666.8" y="330.8"/>
      <point x="666.8" y="644.0" type="curve" smooth="yes"/>
      <point x="666.8" y="879.6"/>
      <point x="538.0" y="1325.8"/>
      <point x="370.0" y="1400.0" type="curve"/>
      <point x="100.0" y="1400.0" type="line"/>
      <point x="230.8" y="1319.2"/>
      <point x="395.2" y="891.0"/>
      <point x="396.8" y="644.0" type="curve" smooth="yes"/>
      <point x="395.2" y="331.6"/>
      <point x="238.8" y="45.8"/>
    </contour>
  </outline>
</glyph>
<glyph name="asterisk" format="2">
  <advance width="728.5"/>
  <unicode hex="002A"/>
  <outline>
    <contour>
      <point x="254.2" y="831.0" type="line"/>
      <point x="349.2" y="960.8" type="line"/>
      <point x="442.2" y="831.0" type="line"/>
      <point x="590.2" y="938.8" type="line"/>
      <point x="495.2" y="1068.2" type="line"/>
      <point x="648.6" y="1116.2" type="line"/>
      <point x="592.0" y="1291.2" type="line"/>
      <point x="440.6" y="1241.8" type="line"/>
      <point x="440.6" y="1400.0" type="line"/>
      <point x="258.0" y="1400.0" type="line"/>
      <point x="258.0" y="1241.8" type="line"/>
      <point x="104.8" y="1291.2" type="line"/>
      <point x="50.0" y="1116.2" type="line"/>
      <point x="201.2" y="1068.2" type="line"/>
      <point x="106.6" y="938.8" type="line"/>
    </contour>
  </outline>
</glyph>
<glyph name="plus" format="2">
  <advance width="1160.0"/>
  <unicode hex="002B"/>
  <outline>
    <contour>
      <point x="445.0" y="100.0" type="line"/>
      <point x="715.0" y="100.0" type="line"/>
      <point x="715.0" y="465.0" type="line"/>
      <point x="1080.0" y="465.0" type="line"/>
      <point x="1080.0" y="735.0" type="line"/>
      <point x="715.0" y="735.0" type="line"/>
      <point x="715.0" y="1100.0" type="line"/>
      <point x="445.0" y="1100.0" type="line"/>
      <point x="445.0" y="735.0" type="line"/>
      <point x="80.0" y="735.0" type="line"/>
      <point x="80.0" y="465.0" type="line"/>
      <point x="445.0" y="465.0" type="line"/>
    </contour>
  </outline>
</glyph>
<glyph name="comma" format="2">
  <advance width="532.0"/>
  <unicode hex="002C"/>
  <outline>
    <contour>
      <point x="80.0" y="-112.0" type="line"/>
      <point x="260.0" y="-112.0" type="line"/>
      <point x="412.0" y="226.0" type="line"/>
      <point x="142.0" y="226.0" type="line"/>
    </contour>
  </outline>
</glyph>
<glyph name="period" format="2">
  <advance width="473.75"/>
  <unicode hex="002E"/>
  <outline>
    <contour>
      <point x="216.8" y="-26.0" type="curve" smooth="yes"/>
      <point x="291.8" y="-26.0"/>
      <point x="353.8" y="34.2"/>
      <point x="353.8" y="111.0" type="curve" smooth="yes"/>
      <point x="353.8" y="185.8"/>
      <point x="291.8" y="247.8"/>
      <point x="216.8" y="247.8" type="curve" smooth="yes"/>
      <point x="140.2" y="247.8"/>
      <point x="80.0" y="185.8"/>
      <point x="80.0" y="111.0" type="curve" smooth="yes"/>
      <point x="80.0" y="34.2"/>
      <point x="140.2" y="-26.0"/>
    </contour>
  </outline>
</glyph>
<glyph name="slash" format="2">
  <advance width="835.75"/>
  <unicode hex="002F"/>
  <outline>
    <contour>
      <point x="755.8" y="1400.0" type="line"/>
      <point x="485.8" y="1400.0" type="line"/>
      <point x="80.0" y="-112.0" type="line"/>
      <point x="350.0" y="-112.0" type="line"/>
    </contour>
  </outline>
</glyph>
<glyph name="zero" format="2">
  <advance width="1213.0"/>
  <unicode hex="0030"/>
  <outline>
    <contour>
      <point x="607.6" y="-26.0" type="curve" smooth="yes"/>
      <point x="930.0" y="-26.0"/>
      <point x="1153.0" y="300.0"/>
      <point x="1153.0" y="700.0" type="curve" smooth="yes"/>
      <point x="1153.0" y="1100.2"/>
      <point x="930.0" y="1426.0"/>
      <point x="607.6" y="1426.0" type="curve" smooth="yes"/>
      <point x="284.8" y="1426.0"/>
      <point x="60.0" y="1100.2"/>
      <point x="60.0" y="700.0" type="curve" smooth="yes"/>
      <point x="60.0" y="300.0"/>
      <point x="284.8" y="-26.0"/>
    </contour>
    <contour>
      <point x="607.6" y="244.0" type="curve" smooth="yes"/>
      <point x="408.6" y="244.0"/>
      <point x="312.6" y="465.0"/>
      <point x="312.6" y="700.0" type="curve" smooth="yes"/>
      <point x="312.6" y="935.6"/>
      <point x="405.6" y="1156.0"/>
      <point x="607.6" y="1156.0" type="curve" smooth="yes"/>
      <point x="800.6" y="1156.0"/>
      <point x="900.6" y="949.0"/>
      <point x="900.6" y="700.0" type="curve" smooth="yes"/>
      <point x="900.6" y="463.8"/>
      <point x="808.2" y="244.0"/>
    </contour>
  </outline>
</glyph>
<glyph name="one" format="2">
  <advance width="692.5"/>
  <unicode hex="0031"/>
  <outline>
    <contour>
      <point x="262.6" y="0.0" type="line"/>
      <point x="532.6" y="0.0" type="line"/>
      <point x="532.6" y="1400.0" type="line"/>
      <point x="152.6" y="1400.0" type="line"/>
      <point x="80.0" y="1130.0" type="line"/>
      <point x="262.6" y="1130.0" type="line"/>
    </contour>
  </outline>
</glyph>
<glyph name="two" format="2">
  <advance width="1156.5"/>
  <unicode hex="0032"/>
  <outline>
    <contour>
      <point x="80.0" y="0.0" type="line"/>
      <point x="1036.6" y="0.0" type="line"/>
      <point x="1036.6" y="270.0" type="line"/>
      <point x="575.2" y="270.0" type="line"/>
      <point x="844.2" y="529.2"/>
      <point x="1032.6" y="725.8"/>
      <point x="1032.6" y="950.8" type="curve" smooth="yes"/>
      <point x="1032.6" y="1214.6"/>
      <point x="819.6" y="1426.0"/>
      <point x="559.6" y="1426.0" type="curve" smooth="yes"/>
      <point x="302.8" y="1426.0"/>
      <point x="84.6" y="1219.8"/>
      <point x="84.6" y="950.8" type="curve"/>
      <point x="354.6" y="950.8" type="line"/>
      <point x="354.6" y="1063.2"/>
      <point x="447.0" y="1156.0"/>
      <point x="559.6" y="1156.0" type="curve" smooth="yes"/>
      <point x="672.0" y="1156.0"/>
      <point x="762.6" y="1063.2"/>
      <point x="762.6" y="950.8" type="curve" smooth="yes"/>
      <point x="762.6" y="773.2"/>
      <point x="282.8" y="382.6"/>
      <point x="80.0" y="241.0" type="curve"/>
    </contour>
  </outline>
</glyph>
<glyph name="three" format="2">
  <advance width="1032.5"/>
  <unicode hex="0033"/>
  <outline>
    <contour>
      <point x="516.2" y="-26.0" type="curve" smooth="yes"/>
      <point x="765.8" y="-26.0"/>
      <point x="972.6" y="178.2"/>
      <point x="972.6" y="427.8" type="curve" smooth="yes"/>
      <point x="972.6" y="554.8"/>
      <point x="913.2" y="700.8"/>
      <point x="799.6" y="743.2" type="curve"/>
      <point x="887.0" y="785.8"/>
      <point x="933.8" y="902.6"/>
      <point x="933.8" y="1004.8" type="curve" smooth="yes"/>
      <point x="933.8" y="1239.6"/>
      <point x="736.0" y="1427.8"/>
      <point x="506.6" y="1427.8" type="curve" smooth="yes"/>
      <point x="273.2" y="1427.8"/>
      <point x="63.2" y="1237.8"/>
      <point x="63.2" y="1004.8" type="curve"/>
      <point x="333.2" y="1004.8" type="line"/>
      <point x="333.2" y="1088.2"/>
      <point x="424.6" y="1157.8"/>
      <point x="510.0" y="1157.8" type="curve" smooth="yes"/>
      <point x="593.6" y="1157.8"/>
      <point x="663.8" y="1088.2"/>
      <point x="663.8" y="1004.8" type="curve" smooth="yes"/>
      <point x="663.8" y="892.8"/>
      <point x="566.0" y="836.0"/>
      <point x="410.2" y="836.0" type="curve"/>
      <point x="410.2" y="629.0" type="line"/>
      <point x="585.6" y="629.0"/>
      <point x="702.6" y="562.6"/>
      <point x="702.6" y="427.8" type="curve" smooth="yes"/>
      <point x="702.6" y="327.6"/>
      <point x="616.2" y="244.0"/>
      <point x="516.2" y="244.0" type="curve" smooth="yes"/>
      <point x="411.0" y="244.0"/>
      <point x="330.0" y="327.6"/>
      <point x="330.0" y="427.8" type="curve"/>
      <point x="60.0" y="427.8" type="line"/>
      <point x="60.0" y="176.6"/>
      <point x="263.6" y="-26.0"/>
    </contour>
  </outline>
</glyph>
<glyph name="four" format="2">
  <advance width="1174.75"/>
  <unicode hex="0034"/>
  <outline>
    <contour>
      <point x="674.2" y="0.0" type="line"/>
      <point x="944.2" y="0.0" type="line"/>
      <point x="944.2" y="325.6" type="line"/>
      <point x="1054.8" y="325.6" type="line"/>
      <point x="1054.8" y="595.6" type="line"/>
      <point x="944.2" y="595.6" type="line"/>
      <point x="944.2" y="1400.0" type="line"/>
      <point x="612.2" y="1400.0" type="line"/>
      <point x="80.0" y="596.0" type="line"/>
      <point x="80.0" y="325.6" type="line"/>
      <point x="674.2" y="325.6" type="line"/>
    </contour>
    <contour>
      <point x="392.20000000000005" y="596.0" type="line"/>
      <point x="673.8" y="1034.2" type="line"/>
      <point x="674.2" y="595.6" type="line"/>
    </contour>
  </outline>
</glyph>
<glyph name="five" format="2">
  <advance width="1159.75"/>
  <unicode hex="0035"/>
  <outline>
    <contour>
      <point x="555.8" y="-26.0" type="curve" smooth="yes"/>
      <point x="824.0" y="-26.0"/>
      <point x="1039.8" y="193.0"/>
      <point x="1039.8" y="458.0" type="curve" smooth="yes"/>
      <point x="1039.8" y="725.8"/>
      <point x="840.2" y="935.0"/>
      <point x="556.0" y="945.6" type="curve"/>
      <point x="473.6" y="947.2" type="line"/>
      <point x="511.6" y="1130.0" type="line"/>
      <point x="988.6" y="1130.0" type="line"/>
      <point x="988.6" y="1400.0" type="line"/>
      <point x="292.0" y="1400.0" type="line"/>
      <point x="140.6" y="677.2" type="line"/>
      <point x="505.0" y="677.2" type="line" smooth="yes"/>
      <point x="706.2" y="677.2"/>
      <point x="769.8" y="577.0"/>
      <point x="769.8" y="458.0" type="curve" smooth="yes"/>
      <point x="769.8" y="339.0"/>
      <point x="673.0" y="244.0"/>
      <point x="555.8" y="244.0" type="curve" smooth="yes"/>
      <point x="436.6" y="244.0"/>
      <point x="340.0" y="339.0"/>
      <point x="340.0" y="458.0" type="curve"/>
      <point x="70.0" y="458.0" type="line"/>
      <point x="70.0" y="196.6"/>
      <point x="281.8" y="-26.0"/>
    </contour>
  </outline>
</glyph>
<glyph name="six" format="2">
  <advance width="1103.75"/>
  <unicode hex="0036"/>
  <outline>
    <contour>
      <point x="545.0" y="-26.0" type="curve" smooth="yes"/>
      <point x="821.0" y="-26.0"/>
      <point x="1043.8" y="198.6"/>
      <point x="1043.8" y="471.0" type="curve" smooth="yes"/>
      <point x="1043.8" y="741.2"/>
      <point x="826.8" y="954.8"/>
      <point x="565.6" y="957.8" type="curve"/>
      <point x="821.6" y="1400.0" type="line"/>
      <point x="508.2" y="1400.0" type="line"/>
      <point x="117.0" y="721.6" type="line" smooth="yes"/>
      <point x="70.8" y="641.6"/>
      <point x="50.0" y="560.0"/>
      <point x="50.0" y="471.0" type="curve" smooth="yes"/>
      <point x="50.0" y="196.8"/>
      <point x="274.6" y="-26.0"/>
    </contour>
    <contour>
      <point x="545.0" y="244.0" type="curve" smooth="yes"/>
      <point x="428.0" y="244.0"/>
      <point x="320.0" y="340.2"/>
      <point x="320.0" y="469.6" type="curve" smooth="yes"/>
      <point x="320.0" y="588.0"/>
      <point x="412.6" y="697.8"/>
      <point x="547.0" y="697.8" type="curve" smooth="yes"/>
      <point x="675.2" y="697.8"/>
      <point x="773.8" y="594.2"/>
      <point x="773.8" y="469.6" type="curve" smooth="yes"/>
      <point x="773.8" y="354.6"/>
      <point x="676.8" y="244.0"/>
    </contour>
  </outline>
</glyph>
<glyph name="eight" format="2">
  <advance width="1099.25"/>
  <unicode hex="0038"/>
  <outline>
    <contour>
      <point x="548.8" y="-26.0" type="curve" smooth="yes"/>
      <point x="809.6" y="-26.0"/>
      <point x="1019.2" y="173.0"/>
      <point x="1019.2" y="419.0" type="curve" smooth="yes"/>
      <point x="1019.2" y="541.2"/>
      <point x="965.0" y="655.2"/>
      <point x="871.8" y="736.2" type="curve"/>
      <point x="942.8" y="808.0"/>
      <point x="988.2" y="904.2"/>
      <point x="988.2" y="1010.0" type="curve" smooth="yes"/>
      <point x="988.2" y="1239.6"/>
      <point x="791.0" y="1426.0"/>
      <point x="548.8" y="1426.0" type="curve" smooth="yes"/>
      <point x="306.6" y="1426.0"/>
      <point x="109.2" y="1239.6"/>
      <point x="109.2" y="1010.0" type="curve" smooth="yes"/>
      <point x="109.2" y="904.2"/>
      <point x="154.8" y="808.0"/>
      <point x="225.8" y="736.2" type="curve"/>
      <point x="134.6" y="655.2"/>
      <point x="80.0" y="541.2"/>
      <point x="80.0" y="419.0" type="curve" smooth="yes"/>
      <point x="80.0" y="171.2"/>
      <point x="288.0" y="-26.0"/>
    </contour>
    <contour>
      <point x="548.8" y="244.0" type="curve" smooth="yes"/>
      <point x="446.8" y="244.0"/>
      <point x="363.0" y="322.2"/>
      <point x="363.0" y="419.0" type="curve" smooth="yes"/>
      <point x="363.0" y="515.8"/>
      <point x="446.8" y="594.0"/>
      <point x="548.8" y="594.0" type="curve" smooth="yes"/>
      <point x="651.2" y="594.0"/>
      <point x="734.6" y="515.8"/>
      <point x="734.6" y="419.0" type="curve" smooth="yes"/>
      <point x="734.6" y="322.2"/>
      <point x="651.2" y="244.0"/>
    </contour>
    <contour>
      <point x="548.8" y="864.0" type="curve" smooth="yes"/>
      <point x="463.0" y="864.0"/>
      <point x="394.0" y="929.8"/>
      <point x="394.0" y="1010.0" type="curve" smooth="yes"/>
      <point x="394.0" y="1090.2"/>
      <point x="463.0" y="1156.0"/>
      <point x="548.8" y="1156.0" type="curve" smooth="yes"/>
      <point x="634.6" y="1156.0"/>
      <point x="703.6" y="1090.2"/>
      <point x="703.6" y="1010.0" type="curve" smooth="yes"/>
      <point x="703.6" y="929.8"/>
      <point x="634.6" y="864.0"/>
    </contour>
  </outline>
</glyph>
<glyph name="nine" format="2">
  <advance width="1107.5"/>
  <unicode hex="0039"/>
  <outline>
    <contour>
      <point x="274.0" y="0.0" type="line"/>
      <point x="587.0" y="0.0" type="line"/>
      <point x="980.8" y="683.2" type="line" smooth="yes"/>
      <point x="1026.8" y="762.8"/>
      <point x="1047.6" y="843.8"/>
      <point x="1047.6" y="932.0" type="curve" smooth="yes"/>
      <point x="1047.6" y="1204.6"/>
      <point x="824.2" y="1426.0"/>
      <point x="555.6" y="1426.0" type="curve" smooth="yes"/>
      <point x="281.2" y="1426.0"/>
      <point x="60.0" y="1202.8"/>
      <point x="60.0" y="932.0" type="curve" smooth="yes"/>
      <point x="60.0" y="664.2"/>
      <point x="274.2" y="452.2"/>
      <point x="533.6" y="448.0" type="curve"/>
    </contour>
    <contour>
      <point x="553.6" y="708.0" type="curve" smooth="yes"/>
      <point x="426.8" y="708.0"/>
      <point x="329.6" y="810.2"/>
      <point x="329.6" y="933.6" type="curve" smooth="yes"/>
      <point x="329.6" y="1047.2"/>
      <point x="425.2" y="1156.2"/>
      <point x="555.6" y="1156.2" type="curve" smooth="yes"/>
      <point x="671.0" y="1156.2"/>
      <point x="777.8" y="1061.2"/>
      <point x="777.8" y="933.6" type="curve" smooth="yes"/>
      <point x="777.8" y="816.6"/>
      <point x="686.6" y="708.0"/>
    </contour>
  </outline>
</glyph>
<glyph name="colon" format="2">
  <advance width="473.75"/>
  <unicode hex="003A"/>
  <outline>
    <contour>
      <point x="216.8" y="726.2" type="curve" smooth="yes"/>
      <point x="291.8" y="726.2"/>
      <point x="353.8" y="786.6"/>
      <point x="353.8" y="863.2" type="curve" smooth="yes"/>
      <point x="353.8" y="938.0"/>
      <point x="291.8" y="1000.0"/>
      <point x="216.8" y="1000.0" type="curve" smooth="yes"/>
      <point x="140.2" y="1000.0"/>
      <point x="80.0" y="938.0"/>
      <point x="80.0" y="863.2" type="curve" smooth="yes"/>
      <point x="80.0" y="786.6"/>
      <point x="140.2" y="726.2"/>
    </contour>
    <contour>
      <point x="216.8" y="-26.0" type="curve" smooth="yes"/>
      <point x="291.8" y="-26.0"/>
      <point x="353.8" y="34.2"/>
      <point x="353.8" y="111.0" type="curve" smooth="yes"/>
      <point x="353.8" y="185.8"/>
      <point x="291.8" y="247.8"/>
      <point x="216.8" y="247.8" type="curve" smooth="yes"/>
      <point x="140.2" y="247.8"/>
      <point x="80.0" y="185.8"/>
      <point x="80.0" y="111.0" type="curve" smooth="yes"/>
      <point x="80.0" y="34.2"/>
      <point x="140.2" y="-26.0"/>
    </contour>
  </outline>
</glyph>
<glyph name="semicolon" format="2">
  <advance width="533.5"/>
  <unicode hex="003B"/>
  <outline>
    <contour>
      <point x="80.0" y="-112.0" type="line"/>
      <point x="260.0" y="-112.0" type="line"/>
      <point x="412.0" y="226.0" type="line"/>
      <point x="142.0" y="226.0" type="line"/>
    </contour>
    <contour>
      <point x="276.8" y="726.2" type="curve" smooth="yes"/>
      <point x="351.6" y="726.2"/>
      <point x="413.6" y="786.6"/>
      <point x="413.6" y="863.0" type="curve" smooth="yes"/>
      <point x="413.6" y="938.0"/>
      <point x="351.6" y="1000.0"/>
      <point x="276.8" y="1000.0" type="curve" smooth="yes"/>
      <point x="200.0" y="1000.0"/>
      <point x="139.8" y="938.0"/>
      <point x="139.8" y="863.0" type="curve" smooth="yes"/>
      <point x="139.8" y="786.6"/>
      <point x="200.0" y="726.2"/>
    </contour>
  </outline>
</glyph>
<glyph name="less" format="2">
  <advance width="1160.0"/>
  <unicode hex="003C"/>
  <outline>
    <contour>
      <point x="1080.0" y="89.6" type="line"/>
      <point x="1080.0" y="370.2" type="line"/>
      <point x="274.0" y="600.0" type="line"/>
      <point x="1080.0" y="829.6" type="line"/>
      <point x="1080.0" y="1110.6" type="line"/>
      <point x="80.0" y="824.6" type="line"/>
      <point x="80.0" y="373.6" type="line"/>
    </contour>
  </outline>
</glyph>
<glyph name="equal" format="2">
  <advance width="1160.0"/>
  <unicode hex="003D"/>
  <outline>
    <contour>
      <point x="80.0" y="246.8" type="line"/>
      <point x="1080.0" y="246.8" type="line"/>
      <point x="1080.0" y="516.8" type="line"/>
      <point x="80.0" y="516.8" type="line"/>
    </contour>
    <contour>
      <point x="80.0" y="683.2" type="line"/>
      <point x="1080.0" y="683.2" type="line"/>
      <point x="1080.0" y="953.2" type="line"/>
      <point x="80.0" y="953.2" type="line"/>
    </contour>
  </outline>
</glyph>
<glyph name="greater" format="2">
  <advance width="1160.0"/>
  <unicode hex="003E"/>
  <outline>
    <contour>
      <point x="80.0" y="100.0" type="line"/>
      <point x="1080.0" y="373.6" type="line"/>
      <point x="1080.0" y="824.6" type="line"/>
      <point x="80.0" y="1100.0" type="line"/>
      <point x="80.0" y="819.0" type="line"/>
      <point x="886.0" y="600.0" type="line"/>
      <point x="80.0" y="380.8" type="line"/>
    </contour>
  </outline>
</glyph>
<glyph name="question" format="2">
  <advance width="1133.75"/>
  <unicode hex="003F"/>
  <outline>
    <contour>
      <point x="425.8" y="415.2" type="curve"/>
      <point x="695.8" y="415.2" type="line"/>
      <point x="695.8" y="471.8"/>
      <point x="724.8" y="520.8"/>
      <point x="773.8" y="546.6" type="curve" smooth="yes"/>
      <point x="922.8" y="626.0"/>
      <point x="1013.8" y="784.8"/>
      <point x="1013.8" y="961.0" type="curve" smooth="yes"/>
      <point x="1013.8" y="1217.0"/>
      <point x="804.6" y="1426.2"/>
      <point x="546.8" y="1426.2" type="curve" smooth="yes"/>
      <point x="289.2" y="1426.2"/>
      <point x="80.0" y="1217.0"/>
      <point x="80.0" y="961.0" type="curve"/>
      <point x="350.0" y="961.0" type="line"/>
      <point x="350.0" y="1069.6"/>
      <point x="438.6" y="1156.2"/>
      <point x="546.8" y="1156.2" type="curve" smooth="yes"/>
      <point x="655.0" y="1156.2"/>
      <point x="743.8" y="1069.6"/>
      <point x="743.8" y="961.0" type="curve" smooth="yes"/>
      <point x="743.8" y="883.8"/>
      <point x="706.8" y="816.8"/>
      <point x="646.0" y="784.2" type="curve" smooth="yes"/>
      <point x="508.8" y="709.8"/>
      <point x="425.8" y="570.8"/>
    </contour>
    <contour>
      <point x="573.0" y="-26.0" type="curve" smooth="yes"/>
      <point x="648.0" y="-26.0"/>
      <point x="708.2" y="34.6"/>
      <point x="708.2" y="112.80000000000001" type="curve" smooth="yes"/>
      <point x="708.2" y="187.60000000000002"/>
      <point x="648.0" y="247.8"/>
      <point x="573.0" y="247.8" type="curve" smooth="yes"/>
      <point x="496.6" y="247.8"/>
      <point x="436.2" y="187.60000000000002"/>
      <point x="436.2" y="112.80000000000001" type="curve" smooth="yes"/>
      <point x="436.2" y="34.6"/>
      <point x="496.6" y="-26.0"/>
    </contour>
  </outline>
</glyph>
<glyph name="at" format="2">
  <advance width="1860.125"/>
  <unicode hex="0040"/>
  <outline>
    <contour>
      <point x="930.2" y="-267.2" type="curve"/>
      <point x="930.2" y="2.8000000000000043" type="line"/>
      <point x="608.2" y="2.8000000000000043"/>
      <point x="350.0" y="229.0"/>
      <point x="350.0" y="550.2" type="curve" smooth="yes"/>
      <point x="350.0" y="872.4"/>
      <point x="611.8" y="1131.0"/>
      <point x="930.2" y="1131.0" type="curve" smooth="yes"/>
      <point x="1246.8" y="1131.0"/>
      <point x="1510.2" y="873.0"/>
      <point x="1510.2" y="550.2" type="curve" smooth="yes"/>
      <point x="1510.2" y="460.6"/>
      <point x="1477.6" y="293.2"/>
      <point x="1393.6" y="293.2" type="curve" smooth="yes"/>
      <point x="1350.0" y="293.2"/>
      <point x="1324.2" y="320.8"/>
      <point x="1324.2" y="367.8" type="curve" smooth="yes"/>
      <point x="1324.2" y="883.4" type="line"/>
      <point x="1124.2" y="927.2" type="line"/>
      <point x="1124.2" y="891.2" type="line"/>
      <point x="1076.8" y="926.8"/>
      <point x="981.6" y="948.0"/>
      <point x="909.8" y="948.0" type="curve" smooth="yes"/>
      <point x="690.8" y="948.0"/>
      <point x="512.8" y="770.0"/>
      <point x="512.8" y="550.2" type="curve" smooth="yes"/>
      <point x="512.8" y="331.0"/>
      <point x="690.8" y="152.2"/>
      <point x="909.8" y="152.2" type="curve" smooth="yes"/>
      <point x="990.2" y="152.2"/>
      <point x="1058.4" y="177.8"/>
      <point x="1110.2" y="221.2" type="curve"/>
      <point x="1133.8" y="113.6"/>
      <point x="1286.2" y="23.199999999999996"/>
      <point x="1411.0" y="23.199999999999996" type="curve" smooth="yes"/>
      <point x="1648.0" y="23.199999999999996"/>
      <point x="1780.2" y="285.8"/>
      <point x="1780.2" y="550.2" type="curve" smooth="yes"/>
      <point x="1780.2" y="1016.8"/>
      <point x="1403.0" y="1401.0"/>
      <point x="930.2" y="1401.0" type="curve" smooth="yes"/>
      <point x="460.4" y="1401.0"/>
      <point x="80.0" y="1020.6"/>
      <point x="80.0" y="550.2" type="curve" smooth="yes"/>
      <point x="80.0" y="79.8"/>
      <point x="459.6" y="-267.2"/>
    </contour>
    <contour>
      <point x="932.6" y="351.2" type="curve" smooth="yes"/>
      <point x="824.0" y="351.2"/>
      <point x="733.8" y="440.6"/>
      <point x="733.8" y="550.2" type="curve" smooth="yes"/>
      <point x="733.8" y="661.0"/>
      <point x="823.2" y="748.8"/>
      <point x="932.6" y="748.8" type="curve" smooth="yes"/>
      <point x="1043.6" y="748.8"/>
      <point x="1125.8" y="660.2"/>
      <point x="1125.8" y="552.4" type="curve" smooth="yes"/>
      <point x="1125.8" y="444.8"/>
      <point x="1041.8" y="351.2"/>
    </contour>
  </outline>
</glyph>
<glyph name="A" format="2">
  <advance width="1483.75"/>
  <unicode hex="0041"/>
  <outline>
    <contour>
      <point x="588.2" y="1400.0" type="line"/>
      <point x="80.0" y="0.0" type="line"/>
      <point x="366.2" y="0.0" type="line"/>
      <point x="451.8" y="235.0" type="line"/>
      <point x="1032.0" y="235.0" type="line"/>
      <point x="1117.6" y="0.0" type="line"/>
      <point x="1403.8" y="0.0" type="line"/>
      <point x="895.6" y="1400.0" type="line"/>
    </contour>
    <contour>
      <point x="550.8" y="505.0" type="line"/>
      <point x="741.0" y="1029.8" type="line"/>
      <point x="933.0" y="505.0" type="line"/>
    </contour>
  </outline>
</glyph>
<glyph name="B" format="2">
  <advance width="1189.0"/>
  <unicode hex="0042"/>
  <outline>
    <contour>
      <point x="120.0" y="0.0" type="line"/>
      <point x="694.8" y="0.0" type="line" smooth="yes"/>
      <point x="922.6" y="0.0"/>
      <point x="1109.0" y="167.8"/>
      <point x="1109.0" y="384.6" type="curve" smooth="yes"/>
      <point x="1109.0" y="513.6"/>
      <point x="1081.0" y="722.2"/>
      <point x="905.2" y="766.4" type="curve"/>
      <point x="1005.8" y="809.8"/>
      <point x="1041.6" y="924.2"/>
      <point x="1041.6" y="1019.8" type="curve" smooth="yes"/>
      <point x="1041.6" y="1252.2"/>
      <point x="864.6" y="1399.8"/>
      <point x="639.2" y="1399.8" type="curve" smooth="yes"/>
      <point x="120.0" y="1399.8" type="line"/>
    </contour>
    <contour>
      <point x="390.0" y="229.8" type="line"/>
      <point x="390.0" y="639.4" type="line"/>
      <point x="666.8" y="639.4" type="line" smooth="yes"/>
      <point x="778.6" y="639.4"/>
      <point x="868.8" y="541.2"/>
      <point x="868.8" y="438.8" type="curve" smooth="yes"/>
      <point x="868.8" y="318.0"/>
      <point x="778.6" y="229.8"/>
      <point x="666.8" y="229.8" type="curve" smooth="yes"/>
    </contour>
    <contour>
      <point x="390.0" y="865.6" type="line"/>
      <point x="390.0" y="1168.2" type="line"/>
      <point x="607.8" y="1168.2" type="line" smooth="yes"/>
      <point x="697.6" y="1168.2"/>
      <point x="771.6" y="1117.0"/>
      <point x="771.6" y="1021.6" type="curve" smooth="yes"/>
      <point x="771.6" y="928.6"/>
      <point x="697.6" y="865.6"/>
      <point x="607.8" y="865.6" type="curve" smooth="yes"/>
    </contour>
  </outline>
</glyph>
<glyph name="C" format="2">
  <advance width="1398.0"/>
  <unicode hex="0043"/>
  <outline>
    <contour>
      <point x="748.0" y="-26.0" type="curve"/>
      <point x="974.0" y="-26.0"/>
      <point x="1172.0" y="87.8"/>
      <point x="1298.0" y="262.0" type="curve"/>
      <point x="1057.0" y="393.2" type="line"/>
      <point x="982.0" y="302.6"/>
      <point x="871.6" y="244.0"/>
      <point x="748.0" y="244.0" type="curve"/>
      <point x="517.6" y="244.0"/>
      <point x="330.0" y="449.2"/>
      <point x="330.0" y="700.0" type="curve"/>
      <point x="330.0" y="951.2"/>
      <point x="516.8" y="1156.0"/>
      <point x="748.0" y="1156.0" type="curve"/>
      <point x="870.2" y="1156.0"/>
      <point x="981.6" y="1098.0"/>
      <point x="1057.0" y="1008.2" type="curve"/>
      <point x="1298.0" y="1137.8" type="line"/>
      <point x="1172.0" y="1312.0"/>
      <point x="974.0" y="1426.0"/>
      <point x="748.0" y="1426.0" type="curve"/>
      <point x="368.0" y="1426.0"/>
      <point x="60.0" y="1101.8"/>
      <point x="60.0" y="700.0" type="curve"/>
      <point x="60.0" y="299.8"/>
      <point x="368.0" y="-26.0"/>
    </contour>
  </outline>
</glyph>
<glyph name="D" format="2">
  <advance width="1343.75"/>
  <unicode hex="0044"/>
  <outline>
    <contour>
      <point x="120.0" y="0.0" type="line"/>
      <point x="583.8" y="0.0" type="line" smooth="yes"/>
      <point x="970.0" y="0.0"/>
      <point x="1283.8" y="314.0"/>
      <point x="1283.8" y="700.0" type="curve" smooth="yes"/>
      <point x="1283.8" y="1086.0"/>
      <point x="970.0" y="1400.0"/>
      <point x="583.8" y="1400.0" type="curve" smooth="yes"/>
      <point x="120.0" y="1400.0" type="line"/>
    </contour>
    <contour>
      <point x="390.0" y="270.0" type="line"/>
      <point x="390.0" y="1130.0" type="line"/>
      <point x="583.8" y="1130.0" type="line" smooth="yes"/>
      <point x="818.8" y="1130.0"/>
      <point x="1013.8" y="936.8"/>
      <point x="1013.8" y="700.0" type="curve" smooth="yes"/>
      <point x="1013.8" y="461.6"/>
      <point x="817.2" y="270.0"/>
      <point x="583.8" y="270.0" type="curve" smooth="yes"/>
    </contour>
  </outline>
</glyph>
<glyph name="E" format="2">
  <advance width="1104.5"/>
  <unicode hex="0045"/>
  <outline>
    <contour>
      <point x="120.0" y="0.0" type="line"/>
      <point x="1004.6" y="0.0" type="line"/>
      <point x="1004.6" y="270.0" type="line"/>
      <point x="390.0" y="270.0" type="line"/>
      <point x="390.0" y="615.0" type="line"/>
      <point x="871.0" y="615.0" type="line"/>
      <point x="871.0" y="885.0" type="line"/>
      <point x="390.0" y="885.0" type="line"/>
      <point x="390.0" y="1130.0" type="line"/>
      <point x="1004.6" y="1130.0" type="line"/>
      <point x="1004.6" y="1400.0" type="line"/>
      <point x="120.0" y="1400.0" type="line"/>
    </contour>
  </outline>
</glyph>
<glyph name="F" format="2">
  <advance width="969.5"/>
  <unicode hex="0046"/>
  <outline>
    <contour>
      <point x="120.0" y="0.0" type="line"/>
      <point x="390.0" y="0.0" type="line"/>
      <point x="390.0" y="615.0" type="line"/>
      <point x="853.6" y="615.0" type="line"/>
      <point x="853.6" y="885.0" type="line"/>
      <point x="390.0" y="885.0" type="line"/>
      <point x="390.0" y="1130.0" type="line"/>
      <point x="949.6" y="1130.0" type="line"/>
      <point x="949.6" y="1400.0" type="line"/>
      <point x="120.0" y="1400.0" type="line"/>
    </contour>
  </outline>
</glyph>
<glyph name="G" format="2">
  <advance width="1496.875"/>
  <unicode hex="0047"/>
  <outline>
    <contour>
      <point x="748.2" y="-26.0" type="curve" smooth="yes"/>
      <point x="1139.8" y="-26.0"/>
      <point x="1450.6" y="315.8"/>
      <point x="1436.0" y="727.8" type="curve"/>
      <point x="894.2" y="727.8" type="line"/>
      <point x="894.2" y="492.8" type="line"/>
      <point x="1117.8" y="492.8" type="line"/>
      <point x="1040.2" y="331.0"/>
      <point x="897.8" y="244.0"/>
      <point x="751.8" y="244.0" type="curve" smooth="yes"/>
      <point x="519.2" y="244.0"/>
      <point x="330.0" y="444.6"/>
      <point x="330.0" y="696.6" type="curve" smooth="yes"/>
      <point x="330.0" y="965.2"/>
      <point x="531.0" y="1156.0"/>
      <point x="750.0" y="1156.0" type="curve" smooth="yes"/>
      <point x="859.6" y="1156.0"/>
      <point x="970.2" y="1107.6"/>
      <point x="1057.0" y="1006.6" type="curve"/>
      <point x="1298.2" y="1136.2" type="line"/>
      <point x="1149.6" y="1334.8"/>
      <point x="951.2" y="1424.2"/>
      <point x="753.6" y="1424.2" type="curve" smooth="yes"/>
      <point x="394.2" y="1424.2"/>
      <point x="60.0" y="1126.2"/>
      <point x="60.0" y="701.8" type="curve" smooth="yes"/>
      <point x="60.0" y="303.6"/>
      <point x="357.6" y="-26.0"/>
    </contour>
  </outline>
</glyph>
<glyph name="H" format="2">
  <advance width="1320.75"/>
  <unicode hex="0048"/>
  <outline>
    <contour>
      <point x="930.8" y="1400.0" type="line"/>
      <point x="930.8" y="885.0" type="line"/>
      <point x="390.0" y="885.0" type="line"/>
      <point x="390.0" y="1400.0" type="line"/>
      <point x="120.0" y="1400.0" type="line"/>
      <point x="120.0" y="0.0" type="line"/>
      <point x="390.0" y="0.0" type="line"/>
      <point x="390.0" y="615.0" type="line"/>
      <point x="930.8" y="615.0" type="line"/>
      <point x="930.8" y="0.0" type="line"/>
      <point x="1200.8" y="0.0" type="line"/>
      <point x="1200.8" y="1400.0" type="line"/>
    </contour>
  </outline>
</glyph>
<glyph name="J" format="2">
  <advance width="909.5"/>
  <unicode hex="004A"/>
  <outline>
    <contour>
      <point x="332.2" y="-26.0" type="curve" smooth="yes"/>
      <point x="584.2" y="-26.0"/>
      <point x="789.6" y="181.8"/>
      <point x="789.6" y="433.6" type="curve" smooth="yes"/>
      <point x="789.6" y="1400.0" type="line"/>
      <point x="519.6" y="1400.0" type="line"/>
      <point x="519.6" y="433.6" type="line" smooth="yes"/>
      <point x="519.6" y="331.0"/>
      <point x="434.8" y="244.0"/>
      <point x="332.2" y="244.0" type="curve" smooth="yes"/>
      <point x="278.2" y="244.0"/>
      <point x="238.6" y="266.2"/>
      <point x="212.8" y="287.6" type="curve"/>
      <point x="40.0" y="80.6" type="line"/>
      <point x="121.2" y="10.8"/>
      <point x="225.8" y="-26.0"/>
    </contour>
  </outline>
</glyph>
<glyph name="K" format="2">
  <advance width="1199.25"/>
  <unicode hex="004B"/>
  <outline>
    <contour>
      <point x="1174.2" y="0.0" type="line"/>
      <point x="621.2" y="739.8" type="line"/>
      <point x="1175.6" y="1400.0" type="line"/>
      <point x="822.8" y="1400.0" type="line"/>
      <point x="390.0" y="882.8" type="line"/>
      <point x="390.0" y="1400.0" type="line"/>
      <point x="120.0" y="1400.0" type="line"/>
      <point x="120.0" y="0.0" type="line"/>
      <point x="390.0" y="0.0" type="line"/>
      <point x="390.0" y="463.2" type="line"/>
      <point x="444.8" y="529.0" type="line"/>
      <point x="821.8" y="0.0" type="line"/>
    </contour>
  </outline>
</glyph>
<glyph name="L" format="2">
  <advance width="1057.5"/>
  <unicode hex="004C"/>
  <outline>
    <contour>
      <point x="120.0" y="0.0" type="line"/>
      <point x="957.6" y="0.0" type="line"/>
      <point x="957.6" y="270.0" type="line"/>
      <point x="390.0" y="270.0" type="line"/>
      <point x="390.0" y="1400.0" type="line"/>
      <point x="120.0" y="1400.0" type="line"/>
    </contour>
  </outline>
</glyph>
<glyph name="M" format="2">
  <advance width="1895.0"/>
  <unicode hex="004D"/>
  <outline>
    <contour>
      <point x="120.0" y="0.0" type="line"/>
      <point x="395.2" y="0.0" type="line"/>
      <point x="552.8" y="815.0" type="line"/>
      <point x="854.6" y="17.200000000000003" type="line"/>
      <point x="1040.2" y="17.200000000000003" type="line"/>
      <point x="1342.0" y="815.0" type="line"/>
      <point x="1499.6" y="0.0" type="line"/>
      <point x="1775.0" y="0.0" type="line"/>
      <point x="1503.0" y="1400.0" type="line"/>
      <point x="1275.8" y="1400.0" type="line"/>
      <point x="947.6" y="535.8" type="line"/>
      <point x="619.0" y="1400.0" type="line"/>
      <point x="391.8" y="1400.0" type="line"/>
    </contour>
  </outline>
</glyph>
<glyph name="N" format="2">
  <advance width="1363.75"/>
  <unicode hex="004E"/>
  <outline>
    <contour>
      <point x="123.8" y="0.0" type="line"/>
      <point x="393.8" y="0.0" type="line"/>
      <point x="393.8" y="912.2" type="line"/>
      <point x="948.6" y="0.0" type="line"/>
      <point x="1240.0" y="0.0" type="line"/>
      <point x="1240.0" y="1400.0" type="line"/>
      <point x="970.0" y="1400.0" type="line"/>
      <point x="970.0" y="487.8" type="line"/>
      <point x="415.6" y="1400.0" type="line"/>
      <point x="123.8" y="1400.0" type="line"/>
    </contour>
  </outline>
</glyph>
<glyph name="O" format="2">
  <advance width="1540.0"/>
  <unicode hex="004F"/>
  <outline>
    <contour>
      <point x="770.0" y="-26.0" type="curve" smooth="yes"/>
      <point x="1150.0" y="-26.0"/>
      <point x="1460.0" y="300.0"/>
      <point x="1460.0" y="700.0" type="curve" smooth="yes"/>
      <point x="1460.0" y="1100.0"/>
      <point x="1150.0" y="1426.0"/>
      <point x="770.0" y="1426.0" type="curve" smooth="yes"/>
      <point x="390.0" y="1426.0"/>
      <point x="80.0" y="1100.0"/>
      <point x="80.0" y="700.0" type="curve" smooth="yes"/>
      <point x="80.0" y="300.0"/>
      <point x="390.0" y="-26.0"/>
    </contour>
    <contour>
      <point x="770.0" y="244.0" type="curve" smooth="yes"/>
      <point x="539.2" y="244.0"/>
      <point x="350.0" y="449.6"/>
      <point x="350.0" y="700.0" type="curve" smooth="yes"/>
      <point x="350.0" y="949.8"/>
      <point x="538.8" y="1156.0"/>
      <point x="770.0" y="1156.0" type="curve" smooth="yes"/>
      <point x="1000.8" y="1156.0"/>
      <point x="1190.0" y="950.2"/>
      <point x="1190.0" y="700.0" type="curve" smooth="yes"/>
      <point x="1190.0" y="450.2"/>
      <point x="1001.2" y="244.0"/>
    </contour>
  </outline>
</glyph>
<glyph name="P" format="2">
  <advance width="1122.5"/>
  <unicode hex="0050"/>
  <outline>
    <contour>
      <point x="120.0" y="0.0" type="line"/>
      <point x="390.0" y="0.0" type="line"/>
      <point x="390.0" y="551.0" type="line"/>
      <point x="633.0" y="551.0" type="line" smooth="yes"/>
      <point x="854.0" y="551.0"/>
      <point x="1042.6" y="740.2"/>
      <point x="1042.6" y="975.6" type="curve" smooth="yes"/>
      <point x="1042.6" y="1207.0"/>
      <point x="861.8" y="1400.0"/>
      <point x="633.0" y="1400.0" type="curve" smooth="yes"/>
      <point x="120.0" y="1400.0" type="line"/>
    </contour>
    <contour>
      <point x="390.0" y="821.0" type="line"/>
      <point x="390.0" y="1168.6" type="line"/>
      <point x="603.2" y="1168.6" type="line" smooth="yes"/>
      <point x="696.0" y="1168.6"/>
      <point x="772.6" y="1091.0"/>
      <point x="772.6" y="994.8" type="curve" smooth="yes"/>
      <point x="772.6" y="898.6"/>
      <point x="696.0" y="821.0"/>
      <point x="603.2" y="821.0" type="curve" smooth="yes"/>
    </contour>
  </outline>
</glyph>
<glyph name="Q" format="2">
  <advance width="1578.25"/>
  <unicode hex="0051"/>
  <outline>
    <contour>
      <point x="1307.0" y="-46.8" type="line"/>
      <point x="1497.8" y="144.0" type="line"/>
      <point x="1340.8" y="300.8" type="line"/>
      <point x="1414.6" y="416.8"/>
      <point x="1459.8" y="555.6"/>
      <point x="1459.8" y="707.0" type="curve" smooth="yes"/>
      <point x="1459.8" y="1107.0"/>
      <point x="1150.0" y="1433.0"/>
      <point x="770.0" y="1433.0" type="curve" smooth="yes"/>
      <point x="389.8" y="1433.0"/>
      <point x="80.0" y="1107.0"/>
      <point x="80.0" y="707.0" type="curve" smooth="yes"/>
      <point x="80.0" y="305.2"/>
      <point x="389.8" y="-19.0"/>
      <point x="770.0" y="-19.0" type="curve" smooth="yes"/>
      <point x="913.0" y="-19.0"/>
      <point x="1045.6" y="26.799999999999997"/>
      <point x="1153.8" y="104.8" type="curve"/>
    </contour>
    <contour>
      <point x="770.0" y="251.0" type="curve" smooth="yes"/>
      <point x="539.6" y="251.0"/>
      <point x="350.0" y="454.8"/>
      <point x="350.0" y="707.0" type="curve" smooth="yes"/>
      <point x="350.0" y="956.6"/>
      <point x="538.8" y="1163.0"/>
      <point x="770.0" y="1163.0" type="curve" smooth="yes"/>
      <point x="1000.2" y="1163.0"/>
      <point x="1189.8" y="957.6"/>
      <point x="1189.8" y="707.0" type="curve" smooth="yes"/>
      <point x="1189.8" y="634.0"/>
      <point x="1172.0" y="563.2"/>
      <point x="1139.6" y="502.20000000000005" type="curve"/>
      <point x="1041.2" y="600.6" type="line"/>
      <point x="850.6" y="409.6" type="line"/>
      <point x="957.6" y="302.6" type="line"/>
      <point x="901.8" y="269.6"/>
      <point x="836.6" y="251.0"/>
    </contour>
  </outline>
</glyph>
<glyph name="R" format="2">
  <advance width="1241.5"/>
  <unicode hex="0052"/>
  <outline>
    <contour>
      <point x="123.8" y="0.0" type="line"/>
      <point x="393.8" y="0.0" type="line"/>
      <point x="393.8" y="551.0" type="line"/>
      <point x="526.2" y="551.0" type="line"/>
      <point x="846.2" y="0.0" type="line"/>
      <point x="1157.8" y="0.0" type="line"/>
      <point x="823.8" y="575.8" type="line"/>
      <point x="979.8" y="640.8"/>
      <point x="1083.8" y="790.8"/>
      <point x="1083.8" y="975.6" type="curve" smooth="yes"/>
      <point x="1083.8" y="1208.8"/>
      <point x="904.8" y="1400.0"/>
      <point x="676.0" y="1400.0" type="curve" smooth="yes"/>
      <point x="123.8" y="1400.0" type="line"/>
    </contour>
    <contour>
      <point x="393.8" y="821.0" type="line"/>
      <point x="393.8" y="1168.6" type="line"/>
      <point x="644.6" y="1168.6" type="line" smooth="yes"/>
      <point x="737.2" y="1168.6"/>
      <point x="813.8" y="1091.0"/>
      <point x="813.8" y="994.8" type="curve" smooth="yes"/>
      <point x="813.8" y="898.6"/>
      <point x="737.2" y="821.0"/>
      <point x="644.6" y="821.0" type="curve" smooth="yes"/>
    </contour>
  </outline>
</glyph>
<glyph name="S" format="2">
  <advance width="1255.75"/>
  <unicode hex="0053"/>
  <outline>
    <contour>
      <point x="627.8" y="-26.0" type="curve" smooth="yes"/>
      <point x="910.6" y="-26.0"/>
      <point x="1154.6" y="146.2"/>
      <point x="1154.6" y="404.2" type="curve" smooth="yes"/>
      <point x="1154.6" y="658.2"/>
      <point x="912.0" y="792.2"/>
      <point x="627.8" y="835.0" type="curve" smooth="yes"/>
      <point x="486.8" y="856.6"/>
      <point x="371.2" y="873.2"/>
      <point x="371.2" y="994.8" type="curve" smooth="yes"/>
      <point x="371.2" y="1086.8"/>
      <point x="497.8" y="1155.0"/>
      <point x="627.8" y="1153.2" type="curve" smooth="yes"/>
      <point x="764.2" y="1153.2"/>
      <point x="877.2" y="1092.2"/>
      <point x="901.8" y="1021.8" type="curve"/>
      <point x="1155.8" y="1113.6" type="line"/>
      <point x="1085.8" y="1309.6"/>
      <point x="860.2" y="1425.0"/>
      <point x="627.8" y="1425.0" type="curve" smooth="yes"/>
      <point x="348.8" y="1425.0"/>
      <point x="101.2" y="1252.8"/>
      <point x="101.2" y="994.8" type="curve" smooth="yes"/>
      <point x="101.2" y="723.6"/>
      <point x="327.0" y="609.6"/>
      <point x="627.8" y="564.6" type="curve" smooth="yes"/>
      <point x="752.8" y="545.6"/>
      <point x="884.6" y="502.2"/>
      <point x="884.6" y="404.2" type="curve" smooth="yes"/>
      <point x="884.6" y="308.6"/>
      <point x="761.0" y="244.0"/>
      <point x="627.8" y="244.0" type="curve" smooth="yes"/>
      <point x="491.2" y="244.0"/>
      <point x="378.2" y="306.8"/>
      <point x="353.8" y="377.2" type="curve"/>
      <point x="100.0" y="283.6" type="line"/>
      <point x="170.6" y="90.2"/>
      <point x="394.0" y="-26.0"/>
    </contour>
  </outline>
</glyph>
<glyph name="T" format="2">
  <advance width="1259.75"/>
  <unicode hex="0054"/>
  <outline>
    <contour>
      <point x="1179.8" y="1400.0" type="line"/>
      <point x="80.0" y="1400.0" type="line"/>
      <point x="80.0" y="1130.0" type="line"/>
      <point x="494.8" y="1130.0" type="line"/>
      <point x="494.8" y="0.0" type="line"/>
      <point x="764.8" y="0.0" type="line"/>
      <point x="764.8" y="1130.0" type="line"/>
      <point x="1179.8" y="1130.0" type="line"/>
    </contour>
  </outline>
</glyph>
<glyph name="U" format="2">
  <advance width="1368.25"/>
  <unicode hex="0055"/>
  <outline>
    <contour>
      <point x="685.0" y="-26.0" type="curve" smooth="yes"/>
      <point x="1021.0" y="-26.0"/>
      <point x="1248.2" y="246.0"/>
      <point x="1248.2" y="584.0" type="curve" smooth="yes"/>
      <point x="1248.2" y="1400.0" type="line"/>
      <point x="978.2" y="1400.0" type="line"/>
      <point x="978.2" y="584.0" type="line" smooth="yes"/>
      <point x="978.2" y="396.6"/>
      <point x="874.0" y="244.0"/>
      <point x="685.0" y="244.0" type="curve" smooth="yes"/>
      <point x="498.2" y="244.0"/>
      <point x="390.0" y="397.8"/>
      <point x="390.0" y="584.0" type="curve" smooth="yes"/>
      <point x="390.0" y="1400.0" type="line"/>
      <point x="120.0" y="1400.0" type="line"/>
      <point x="120.0" y="584.0" type="line" smooth="yes"/>
      <point x="120.0" y="246.0"/>
      <point x="349.0" y="-26.0"/>
    </contour>
  </outline>
</glyph>
<glyph name="V" format="2">
  <advance width="1403.25"/>
  <unicode hex="0056"/>
  <outline>
    <contour>
      <point x="528.0" y="0.0" type="line"/>
      <point x="875.0" y="0.0" type="line"/>
      <point x="1383.2" y="1400.0" type="line"/>
      <point x="1097.0" y="1400.0" type="line"/>
      <point x="701.6" y="312.6" type="line"/>
      <point x="306.2" y="1400.0" type="line"/>
      <point x="20.0" y="1400.0" type="line"/>
    </contour>
  </outline>
</glyph>
<glyph name="W" format="2">
  <advance width="1929.0"/>
  <unicode hex="0057"/>
  <outline>
    <contour>
      <point x="458.0" y="0.0" type="line"/>
      <point x="763.6" y="0.0" type="line"/>
      <point x="964.6" y="791.5999999999999" type="line"/>
      <point x="1167.2" y="0.0" type="line"/>
      <point x="1473.0" y="0.0" type="line"/>
      <point x="1829.0" y="1400.0" type="line"/>
      <point x="1550.0" y="1400.0" type="line"/>
      <point x="1319.2" y="493.8" type="line"/>
      <point x="1088.2" y="1400.0" type="line"/>
      <point x="840.8" y="1400.0" type="line"/>
      <point x="610.0" y="493.8" type="line"/>
      <point x="379.0" y="1400.0" type="line"/>
      <point x="100.0" y="1400.0" type="line"/>
    </contour>
  </outline>
</glyph>
<glyph name="X" format="2">
  <advance width="1479.0"/>
  <unicode hex="0058"/>
  <outline>
    <contour>
      <point x="60.0" y="0.0" type="line"/>
      <point x="395.0" y="0.0" type="line"/>
      <point x="739.6" y="473.6" type="line"/>
      <point x="1084.2" y="0.0" type="line"/>
      <point x="1419.0" y="0.0" type="line"/>
      <point x="907.0" y="704.0" type="line"/>
      <point x="1415.0" y="1402.0" type="line"/>
      <point x="1082.0" y="1402.0" type="line"/>
      <point x="739.6" y="932.6" type="line"/>
      <point x="397.0" y="1402.0" type="line"/>
      <point x="64.0" y="1402.0" type="line"/>
      <point x="572.2" y="704.0" type="line"/>
    </contour>
  </outline>
</glyph>
<glyph name="Y" format="2">
  <advance width="1356.5"/>
  <unicode hex="0059"/>
  <outline>
    <contour>
      <point x="978.0" y="1400.0" type="line"/>
      <point x="678.2" y="924.2" type="line"/>
      <point x="378.6" y="1400.0" type="line"/>
      <point x="60.0" y="1400.0" type="line"/>
      <point x="543.2" y="630.8" type="line"/>
      <point x="543.2" y="0.0" type="line"/>
      <point x="813.2" y="0.0" type="line"/>
      <point x="813.2" y="630.8" type="line"/>
      <point x="1296.6" y="1400.0" type="line"/>
    </contour>
  </outline>
</glyph>
<glyph name="bracketleft" format="2">
  <advance width="666.5"/>
  <unicode hex="005B"/>
  <outline>
    <contour>
      <point x="566.6" y="158.0" type="line"/>
      <point x="390.0" y="158.0" type="line"/>
      <point x="390.0" y="1130.0" type="line"/>
      <point x="566.6" y="1130.0" type="line"/>
      <point x="566.6" y="1400.0" type="line"/>
      <point x="120.0" y="1400.0" type="line"/>
      <point x="120.0" y="-112.0" type="line"/>
      <point x="566.6" y="-112.0" type="line"/>
    </contour>
  </outline>
</glyph>
<glyph name="bracketright" format="2">
  <advance width="668.25"/>
  <unicode hex="005D"/>
  <outline>
    <contour>
      <point x="100.0" y="-112.0" type="line"/>
      <point x="548.2" y="-112.0" type="line"/>
      <point x="548.2" y="1400.0" type="line"/>
      <point x="100.0" y="1400.0" type="line"/>
      <point x="100.0" y="1130.0" type="line"/>
      <point x="278.2" y="1130.0" type="line"/>
      <point x="278.2" y="158.0" type="line"/>
      <point x="100.0" y="158.0" type="line"/>
    </contour>
  </outline>
</glyph>
<glyph name="asciicircum" format="2">
  <advance width="1002.0"/>
  <unicode hex="005E"/>
  <outline>
    <contour>
      <point x="80.0" y="1000.0" type="line"/>
      <point x="367.8" y="1000.0" type="line"/>
      <point x="501.0" y="1367.2" type="line"/>
      <point x="634.0" y="1000.0" type="line"/>
      <point x="922.0" y="1000.0" type="line"/>
      <point x="686.0" y="1650.0" type="line"/>
      <point x="316.0" y="1650.0" type="line"/>
    </contour>
  </outline>
</glyph>
<glyph name="underscore" format="2">
  <advance width="1240.0"/>
  <unicode hex="005F"/>
  <outline>
    <contour>
      <point x="120.0" y="158.0" type="line"/>
      <point x="120.0" y="-112.0" type="line"/>
      <point x="1120.0" y="-112.0" type="line"/>
      <point x="1120.0" y="158.0" type="line"/>
    </contour>
  </outline>
</glyph>
<glyph name="grave" format="2">
  <advance width="1150.0"/>
  <unicode hex="0060"/>
  <outline>
    <contour>
      <point x="320.0" y="1426.0" type="line"/>
      <point x="527.6" y="1138.0" type="line"/>
      <point x="670.0" y="1138.0" type="line"/>
      <point x="590.0" y="1426.0" type="line"/>
    </contour>
  </outline>
</glyph>
<glyph name="a" format="2">
  <advance width="1259.25"/>
  <unicode hex="0061"/>
  <outline>
    <contour>
      <point x="869.2" y="1000.0" type="line"/>
      <point x="881.6" y="887.0" type="line"/>
      <point x="807.8" y="967.8"/>
      <point x="708.6" y="1028.0"/>
      <point x="583.8" y="1028.0" type="curve"/>
      <point x="299.8" y="1028.0"/>
      <point x="70.8" y="797.2"/>
      <point x="71.8" y="512.2" type="curve"/>
      <point x="70.8" y="215.2"/>
      <point x="311.2" y="-26.0"/>
      <point x="608.2" y="-26.0" type="curve"/>
      <point x="720.0" y="-26.0"/>
      <point x="803.4" y="27.2"/>
      <point x="856.2" y="108.0" type="curve"/>
      <point x="868.4" y="0.0" type="line"/>
      <point x="1139.2" y="0.0" type="line"/>
      <point x="1139.2" y="1000.0" type="line"/>
    </contour>
    <contour>
      <point x="616.2" y="233.60000000000002" type="curve"/>
      <point x="483.4" y="233.60000000000002"/>
      <point x="362.8" y="348.2"/>
      <point x="345.2" y="487.8" type="curve"/>
      <point x="330.4" y="642.6"/>
      <point x="438.6" y="766.8"/>
      <point x="582.8" y="766.8" type="curve"/>
      <point x="717.8" y="766.8"/>
      <point x="831.2" y="653.6"/>
      <point x="847.8" y="512.2" type="curve"/>
      <point x="862.6" y="359.6"/>
      <point x="762.2" y="233.60000000000002"/>
    </contour>
  </outline>
</glyph>
<glyph name="b" format="2">
  <advance width="1249.25"/>
  <unicode hex="0062"/>
  <outline>
    <contour>
      <point x="661.6" y="1028.0" type="curve"/>
      <point x="544.6" y="1028.0"/>
      <point x="453.2" y="971.2"/>
      <point x="390.0" y="890.6" type="curve"/>
      <point x="390.0" y="1500.0" type="line"/>
      <point x="120.0" y="1500.0" type="line"/>
      <point x="120.0" y="0.0" type="line"/>
      <point x="390.0" y="0.0" type="line"/>
      <point x="390.0" y="111.6" type="line"/>
      <point x="453.2" y="30.799999999999997"/>
      <point x="544.6" y="-26.0"/>
      <point x="661.6" y="-26.0" type="curve"/>
      <point x="953.2" y="-26.0"/>
      <point x="1189.2" y="210.0"/>
      <point x="1189.2" y="501.8" type="curve"/>
      <point x="1189.2" y="792.0"/>
      <point x="953.2" y="1028.0"/>
    </contour>
    <contour>
      <point x="658.0" y="235.2" type="curve"/>
      <point x="519.6" y="235.2"/>
      <point x="413.20000000000005" y="353.8"/>
      <point x="413.20000000000005" y="501.8" type="curve"/>
      <point x="413.20000000000005" y="647.6"/>
      <point x="519.0" y="768.6"/>
      <point x="658.0" y="768.6" type="curve"/>
      <point x="797.8" y="768.6"/>
      <point x="912.2" y="648.6"/>
      <point x="912.2" y="501.8" type="curve"/>
      <point x="912.2" y="354.2"/>
      <point x="798.8" y="235.2"/>
    </contour>
  </outline>
</glyph>
<glyph name="c" format="2">
  <advance width="1019.75"/>
  <unicode hex="0063"/>
  <outline>
    <contour>
      <point x="717.0" y="313.6" type="line"/>
      <point x="675.8" y="270.8"/>
      <point x="619.6" y="244.0"/>
      <point x="560.0" y="244.0" type="curve"/>
      <point x="430.0" y="244.0"/>
      <point x="330.0" y="364.6"/>
      <point x="330.0" y="500.0" type="curve"/>
      <point x="330.0" y="636.8"/>
      <point x="429.2" y="758.0"/>
      <point x="560.0" y="758.0" type="curve"/>
      <point x="618.0" y="758.0"/>
      <point x="674.8" y="732.6"/>
      <point x="717.0" y="686.8" type="curve"/>
      <point x="959.8" y="818.0" type="line"/>
      <point x="868.0" y="946.0"/>
      <point x="723.8" y="1028.0"/>
      <point x="560.0" y="1028.0" type="curve"/>
      <point x="284.0" y="1028.0"/>
      <point x="60.0" y="792.0"/>
      <point x="60.0" y="500.0" type="curve"/>
      <point x="60.0" y="210.0"/>
      <point x="284.0" y="-26.0"/>
      <point x="560.0" y="-26.0" type="curve"/>
      <point x="723.8" y="-26.0"/>
      <point x="868.0" y="56.0"/>
      <point x="959.8" y="182.2" type="curve"/>
    </contour>
  </outline>
</glyph>
<glyph name="d" format="2">
  <advance width="1235.5"/>
  <unicode hex="0064"/>
  <outline>
    <contour>
      <point x="859.2" y="1500.0" type="line"/>
      <point x="859.2" y="890.6" type="line"/>
      <point x="796.0" y="971.2"/>
      <point x="704.8" y="1026.2"/>
      <point x="586.0" y="1026.2" type="curve"/>
      <point x="296.0" y="1026.2"/>
      <point x="60.0" y="790.2"/>
      <point x="60.0" y="500.0" type="curve"/>
      <point x="60.0" y="210.0"/>
      <point x="296.0" y="-26.0"/>
      <point x="586.0" y="-26.0" type="curve"/>
      <point x="704.8" y="-26.0"/>
      <point x="796.0" y="29.0"/>
      <point x="859.2" y="109.8" type="curve"/>
      <point x="859.2" y="0.0" type="line"/>
      <point x="1129.2" y="0.0" type="line"/>
      <point x="1129.2" y="1500.0" type="line"/>
    </contour>
    <contour>
      <point x="589.6" y="233.60000000000002" type="curve"/>
      <point x="451.6" y="233.60000000000002"/>
      <point x="337.0" y="351.8"/>
      <point x="337.0" y="500.0" type="curve"/>
      <point x="337.0" y="647.8"/>
      <point x="450.8" y="766.8"/>
      <point x="589.6" y="766.8" type="curve"/>
      <point x="729.8" y="766.8"/>
      <point x="836.0" y="648.2"/>
      <point x="836.0" y="500.0" type="curve"/>
      <point x="836.0" y="352.6"/>
      <point x="730.2" y="233.60000000000002"/>
    </contour>
  </outline>
</glyph>
<glyph name="e" format="2">
  <advance width="1119.75"/>
  <unicode hex="0065"/>
  <outline>
    <contour>
      <point x="560.0" y="-26.0" type="curve" smooth="yes"/>
      <point x="760.0" y="-26.0"/>
      <point x="932.0" y="98.0"/>
      <point x="1012.8" y="276.0" type="curve"/>
      <point x="737.6" y="339.8" type="line"/>
      <point x="695.2" y="280.6"/>
      <point x="632.0" y="243.2"/>
      <point x="560.0" y="244.0" type="curve" smooth="yes"/>
      <point x="449.8" y="245.8"/>
      <point x="378.0" y="316.2"/>
      <point x="351.0" y="409.6" type="curve"/>
      <point x="1051.8" y="409.6" type="line"/>
      <point x="1103.6" y="729.6"/>
      <point x="874.8" y="1028.0"/>
      <point x="560.0" y="1028.0" type="curve" smooth="yes"/>
      <point x="284.0" y="1028.0"/>
      <point x="60.0" y="792.0"/>
      <point x="60.0" y="500.8" type="curve" smooth="yes"/>
      <point x="60.0" y="210.0"/>
      <point x="284.0" y="-26.0"/>
    </contour>
    <contour>
      <point x="341.4" y="609.6" type="line"/>
      <point x="368.8" y="715.2"/>
      <point x="455.8" y="793.0"/>
      <point x="560.0" y="793.0" type="curve" smooth="yes"/>
      <point x="664.8" y="793.0"/>
      <point x="752.8" y="714.2"/>
      <point x="779.2" y="609.6" type="curve"/>
    </contour>
  </outline>
</glyph>
<glyph name="f" format="2">
  <advance width="744.25"/>
  <unicode hex="0066"/>
  <outline>
    <contour>
      <point x="422.0" y="1196.8" type="line"/>
      <point x="422.0" y="1229.0"/>
      <point x="448.8" y="1254.0"/>
      <point x="481.0" y="1254.0" type="curve"/>
      <point x="500.6" y="1254.0"/>
      <point x="522.4" y="1243.0"/>
      <point x="532.2" y="1221.8" type="curve"/>
      <point x="726.6" y="1412.6" type="line"/>
      <point x="659.2" y="1488.6"/>
      <point x="569.0" y="1524.0"/>
      <point x="481.0" y="1524.0" type="curve"/>
      <point x="299.2" y="1524.0"/>
      <point x="152.0" y="1376.8"/>
      <point x="152.0" y="1196.8" type="curve"/>
      <point x="152.0" y="1000.0" type="line"/>
      <point x="50.0" y="1000.0" type="line"/>
      <point x="50.0" y="730.0" type="line"/>
      <point x="152.0" y="730.0" type="line"/>
      <point x="152.0" y="0.0" type="line"/>
      <point x="422.0" y="0.0" type="line"/>
      <point x="422.0" y="730.0" type="line"/>
      <point x="688.0" y="730.0" type="line"/>
      <point x="688.0" y="1000.0" type="line"/>
      <point x="422.0" y="1000.0" type="line"/>
    </contour>
  </outline>
</glyph>
<glyph name="g" format="2">
  <advance width="1239.25"/>
  <unicode hex="0067"/>
  <outline>
    <contour>
      <point x="849.2" y="1000.0" type="line"/>
      <point x="849.2" y="894.2" type="line"/>
      <point x="787.6" y="973.0"/>
      <point x="698.2" y="1026.2"/>
      <point x="582.8" y="1026.2" type="curve" smooth="yes"/>
      <point x="294.6" y="1026.2"/>
      <point x="60.0" y="790.2"/>
      <point x="60.0" y="500.0" type="curve" smooth="yes"/>
      <point x="60.0" y="210.0"/>
      <point x="294.6" y="-26.0"/>
      <point x="582.8" y="-26.0" type="curve" smooth="yes"/>
      <point x="698.2" y="-26.0"/>
      <point x="787.6" y="27.2"/>
      <point x="849.2" y="106.0" type="curve"/>
      <point x="849.2" y="-15.0" type="line" smooth="yes"/>
      <point x="849.2" y="-153.8"/>
      <point x="710.2" y="-228.2"/>
      <point x="563.8" y="-228.2" type="curve" smooth="yes"/>
      <point x="459.2" y="-228.2"/>
      <point x="360.2" y="-164.0"/>
      <point x="319.2" y="-62.8" type="curve"/>
      <point x="72.6" y="-174.6" type="line"/>
      <point x="155.2" y="-365.0"/>
      <point x="352.2" y="-500.0"/>
      <point x="563.8" y="-500.0" type="curve" smooth="yes"/>
      <point x="859.2" y="-500.0"/>
      <point x="1119.2" y="-310.0"/>
      <point x="1119.2" y="-15.0" type="curve" smooth="yes"/>
      <point x="1119.2" y="1000.0" type="line"/>
    </contour>
    <contour>
      <point x="586.2" y="233.60000000000002" type="curve" smooth="yes"/>
      <point x="449.6" y="233.60000000000002"/>
      <point x="337.0" y="352.0"/>
      <point x="337.0" y="500.0" type="curve" smooth="yes"/>
      <point x="337.0" y="647.8"/>
      <point x="448.8" y="766.8"/>
      <point x="586.2" y="766.8" type="curve" smooth="yes"/>
      <point x="725.2" y="766.8"/>
      <point x="831.6" y="647.2"/>
      <point x="831.6" y="500.0" type="curve" smooth="yes"/>
      <point x="831.6" y="353.6"/>
      <point x="725.8" y="233.60000000000002"/>
    </contour>
  </outline>
</glyph>
<glyph name="h" format="2">
  <advance width="1160.5"/>
  <unicode hex="0068"/>
  <outline>
    <contour>
      <point x="1080.6" y="510.2" type="line"/>
      <point x="1076.6" y="793.8"/>
      <point x="902.2" y="1026.2"/>
      <point x="620.2" y="1026.2" type="curve"/>
      <point x="514.2" y="1026.2"/>
      <point x="435.2" y="1010.2"/>
      <point x="390.0" y="920.2" type="curve"/>
      <point x="390.0" y="1500.0" type="line"/>
      <point x="120.0" y="1500.0" type="line"/>
      <point x="120.0" y="0.0" type="line"/>
      <point x="391.8" y="0.0" type="line"/>
      <point x="391.8" y="506.2" type="line"/>
      <point x="391.8" y="650.6"/>
      <point x="452.2" y="766.8"/>
      <point x="592.2" y="766.8" type="curve"/>
      <point x="713.2" y="766.8"/>
      <point x="810.6" y="650.6"/>
      <point x="810.6" y="506.2" type="curve"/>
      <point x="810.6" y="0.0" type="line"/>
      <point x="1080.6" y="0.0" type="line"/>
    </contour>
  </outline>
</glyph>
<glyph name="i" format="2">
  <advance width="515.5"/>
  <unicode hex="0069"/>
  <outline>
    <contour>
      <point x="122.6" y="1000.0" type="line"/>
      <point x="122.6" y="0.0" type="line"/>
      <point x="392.6" y="0.0" type="line"/>
      <point x="392.6" y="1000.0" type="line"/>
    </contour>
    <contour>
      <point x="256.8" y="1112.6" type="curve"/>
      <point x="333.2" y="1112.6"/>
      <point x="393.8" y="1173.2"/>
      <point x="393.8" y="1249.2" type="curve"/>
      <point x="393.8" y="1324.0"/>
      <point x="333.2" y="1386.2"/>
      <point x="256.8" y="1386.2" type="curve"/>
      <point x="182.0" y="1386.2"/>
      <point x="120.0" y="1324.0"/>
      <point x="120.0" y="1249.2" type="curve"/>
      <point x="120.0" y="1173.2"/>
      <point x="182.0" y="1112.6"/>
    </contour>
  </outline>
</glyph>
<glyph name="j" format="2">
  <advance width="530.75"/>
  <unicode hex="006A"/>
  <outline>
    <contour>
      <point x="-80.0" y="-500.0" type="line"/>
      <point x="175.8" y="-500.0"/>
      <point x="378.8" y="-295.0"/>
      <point x="378.8" y="-43.0" type="curve"/>
      <point x="378.8" y="1000.0" type="line"/>
      <point x="108.8" y="1000.0" type="line"/>
      <point x="108.8" y="-43.0" type="line"/>
      <point x="108.8" y="-147.8"/>
      <point x="24.199999999999996" y="-230.0"/>
      <point x="-80.0" y="-230.0" type="curve"/>
    </contour>
    <contour>
      <point x="243.8" y="1112.6" type="curve"/>
      <point x="318.6" y="1112.6"/>
      <point x="380.8" y="1174.6"/>
      <point x="380.8" y="1249.2" type="curve"/>
      <point x="380.8" y="1325.8"/>
      <point x="318.6" y="1386.2"/>
      <point x="243.8" y="1386.2" type="curve"/>
      <point x="167.2" y="1386.2"/>
      <point x="107.0" y="1325.8"/>
      <point x="107.0" y="1249.2" type="curve"/>
      <point x="107.0" y="1174.6"/>
      <point x="167.2" y="1112.6"/>
    </contour>
  </outline>
</glyph>
<glyph name="k" format="2">
  <advance width="1096.25"/>
  <unicode hex="006B"/>
  <outline>
    <contour>
      <point x="1045.2" y="0.0" type="line"/>
      <point x="704.2" y="589.8" type="line"/>
      <point x="1047.2" y="1000.0" type="line"/>
      <point x="694.6" y="1000.0" type="line"/>
      <point x="393.8" y="640.8" type="line"/>
      <point x="393.8" y="1500.0" type="line"/>
      <point x="123.8" y="1500.0" type="line"/>
      <point x="123.8" y="0.0" type="line"/>
      <point x="393.8" y="0.0" type="line"/>
      <point x="393.8" y="221.2" type="line"/>
      <point x="519.0" y="370.0" type="line"/>
      <point x="734.0" y="0.0" type="line"/>
    </contour>
  </outline>
</glyph>
<glyph name="l" format="2">
  <advance width="517.5"/>
  <unicode hex="006C"/>
  <outline>
    <contour>
      <point x="123.8" y="0.19999999999999996" type="line"/>
      <point x="393.8" y="0.19999999999999996" type="line"/>
      <point x="393.8" y="1500.0" type="line"/>
      <point x="123.8" y="1500.0" type="line"/>
    </contour>
  </outline>
</glyph>
<glyph name="m" format="2">
  <advance width="1739.25"/>
  <unicode hex="006D"/>
  <outline>
    <contour>
      <point x="82.6" y="0.0" type="line"/>
      <point x="352.6" y="0.0" type="line"/>
      <point x="352.6" y="531.8" type="line" smooth="yes"/>
      <point x="352.6" y="643.6"/>
      <point x="435.8" y="736.2"/>
      <point x="542.8" y="736.2" type="curve" smooth="yes"/>
      <point x="651.0" y="736.2"/>
      <point x="734.6" y="646.2"/>
      <point x="734.6" y="534.2" type="curve" smooth="yes"/>
      <point x="734.6" y="0.0" type="line"/>
      <point x="1004.6" y="0.0" type="line"/>
      <point x="1004.6" y="534.2" type="line" smooth="yes"/>
      <point x="1004.6" y="646.2"/>
      <point x="1088.2" y="736.2"/>
      <point x="1196.6" y="736.2" type="curve" smooth="yes"/>
      <point x="1305.6" y="736.2"/>
      <point x="1386.8" y="646.2"/>
      <point x="1386.8" y="534.2" type="curve" smooth="yes"/>
      <point x="1386.8" y="0.0" type="line"/>
      <point x="1656.8" y="0.0" type="line"/>
      <point x="1656.8" y="534.2" type="line" smooth="yes"/>
      <point x="1656.8" y="793.8"/>
      <point x="1455.8" y="1006.2"/>
      <point x="1196.6" y="1006.2" type="curve" smooth="yes"/>
      <point x="1068.6" y="1006.2"/>
      <point x="954.4" y="954.2"/>
      <point x="869.6" y="860.4" type="curve"/>
      <point x="785.8" y="953.6"/>
      <point x="671.6" y="1006.2"/>
      <point x="542.8" y="1006.2" type="curve" smooth="yes"/>
      <point x="470.2" y="1006.2"/>
      <point x="409.2" y="984.8"/>
      <point x="352.6" y="931.2" type="curve"/>
      <point x="352.6" y="1000.0" type="line"/>
      <point x="82.6" y="1000.0" type="line"/>
    </contour>
  </outline>
</glyph>
<glyph name="n" format="2">
  <advance width="1193.75"/>
  <unicode hex="006E"/>
  <outline>
    <contour>
      <point x="1093.8" y="512.0" type="line"/>
      <point x="1091.6" y="795.6"/>
      <point x="917.2" y="1028.0"/>
      <point x="635.2" y="1028.0" type="curve"/>
      <point x="522.2" y="1028.0"/>
      <point x="434.6" y="975.2"/>
      <point x="370.0" y="894.0" type="curve"/>
      <point x="370.0" y="1000.0" type="line"/>
      <point x="100.0" y="1000.0" type="line"/>
      <point x="100.0" y="0.0" type="line"/>
      <point x="370.0" y="0.0" type="line"/>
      <point x="370.0" y="508.0" type="line"/>
      <point x="370.0" y="650.6"/>
      <point x="449.8" y="768.6"/>
      <point x="588.0" y="768.6" type="curve"/>
      <point x="728.2" y="768.6"/>
      <point x="823.8" y="650.6"/>
      <point x="823.8" y="508.0" type="curve"/>
      <point x="823.8" y="0.0" type="line"/>
      <point x="1093.8" y="0.0" type="line"/>
    </contour>
  </outline>
</glyph>
<glyph name="o" format="2">
  <advance width="1120.0"/>
  <unicode hex="006F"/>
  <outline>
    <contour>
      <point x="560.0" y="-26.0" type="curve" smooth="yes"/>
      <point x="836.0" y="-26.0"/>
      <point x="1060.0" y="210.0"/>
      <point x="1060.0" y="500.0" type="curve" smooth="yes"/>
      <point x="1060.0" y="792.0"/>
      <point x="836.0" y="1028.0"/>
      <point x="560.0" y="1028.0" type="curve" smooth="yes"/>
      <point x="284.0" y="1028.0"/>
      <point x="60.0" y="792.0"/>
      <point x="60.0" y="500.0" type="curve" smooth="yes"/>
      <point x="60.0" y="210.0"/>
      <point x="284.0" y="-26.0"/>
    </contour>
    <contour>
      <point x="560.0" y="244.0" type="curve" smooth="yes"/>
      <point x="435.6" y="244.0"/>
      <point x="330.0" y="355.6"/>
      <point x="330.0" y="500.0" type="curve" smooth="yes"/>
      <point x="330.0" y="638.2"/>
      <point x="430.8" y="758.0"/>
      <point x="560.0" y="758.0" type="curve" smooth="yes"/>
      <point x="685.6" y="758.0"/>
      <point x="790.0" y="641.8"/>
      <point x="790.0" y="500.0" type="curve" smooth="yes"/>
      <point x="790.0" y="362.0"/>
      <point x="690.8" y="244.0"/>
    </contour>
  </outline>
</glyph>
<glyph name="p" format="2">
  <advance width="1267.5"/>
  <unicode hex="0070"/>
  <outline>
    <contour>
      <point x="390.0" y="-500.0" type="line"/>
      <point x="390.0" y="109.6" type="line"/>
      <point x="453.2" y="28.799999999999997"/>
      <point x="542.8" y="-28.0"/>
      <point x="661.6" y="-28.0" type="curve"/>
      <point x="953.2" y="-28.0"/>
      <point x="1187.6" y="208.0"/>
      <point x="1187.6" y="500.0" type="curve"/>
      <point x="1187.6" y="790.0"/>
      <point x="953.2" y="1026.0"/>
      <point x="661.6" y="1026.0" type="curve"/>
      <point x="542.8" y="1026.0"/>
      <point x="453.2" y="969.2"/>
      <point x="390.0" y="888.6" type="curve"/>
      <point x="390.0" y="1000.0" type="line"/>
      <point x="120.0" y="1000.0" type="line"/>
      <point x="120.0" y="-500.0" type="line"/>
    </contour>
    <contour>
      <point x="658.0" y="766.6" type="curve"/>
      <point x="798.8" y="766.6"/>
      <point x="912.2" y="645.8"/>
      <point x="912.2" y="500.0" type="curve"/>
      <point x="912.2" y="351.6"/>
      <point x="797.8" y="233.2"/>
      <point x="658.0" y="233.2" type="curve"/>
      <point x="519.0" y="233.2"/>
      <point x="413.20000000000005" y="352.6"/>
      <point x="413.20000000000005" y="500.0" type="curve"/>
      <point x="413.20000000000005" y="646.2"/>
      <point x="519.6" y="766.6"/>
    </contour>
  </outline>
</glyph>
<glyph name="q" format="2">
  <advance width="1267.5"/>
  <unicode hex="0071"/>
  <outline>
    <contour>
      <point x="606.0" y="-28.0" type="curve"/>
      <point x="724.8" y="-28.0"/>
      <point x="814.2" y="28.799999999999997"/>
      <point x="877.6" y="109.6" type="curve"/>
      <point x="877.6" y="-500.0" type="line"/>
      <point x="1147.6" y="-500.0" type="line"/>
      <point x="1147.6" y="1000.0" type="line"/>
      <point x="877.6" y="1000.0" type="line"/>
      <point x="877.6" y="888.6" type="line"/>
      <point x="814.2" y="969.2"/>
      <point x="724.8" y="1026.0"/>
      <point x="606.0" y="1026.0" type="curve"/>
      <point x="316.0" y="1026.0"/>
      <point x="80.0" y="790.0"/>
      <point x="80.0" y="500.0" type="curve"/>
      <point x="80.0" y="208.0"/>
      <point x="316.0" y="-28.0"/>
    </contour>
    <contour>
      <point x="609.6" y="766.6" type="curve"/>
      <point x="749.8" y="766.6"/>
      <point x="854.2" y="646.2"/>
      <point x="854.2" y="500.0" type="curve"/>
      <point x="854.2" y="352.6"/>
      <point x="750.2" y="233.2"/>
      <point x="609.6" y="233.2" type="curve"/>
      <point x="469.8" y="233.2"/>
      <point x="357.0" y="351.6"/>
      <point x="357.0" y="500.0" type="curve"/>
      <point x="357.0" y="645.8"/>
      <point x="468.8" y="766.6"/>
    </contour>
  </outline>
</glyph>
<glyph name="r" format="2">
  <advance width="813.25"/>
  <unicode hex="0072"/>
  <outline>
    <contour>
      <point x="740.0" y="724.2" type="curve"/>
      <point x="783.2" y="1013.6" type="line"/>
      <point x="744.0" y="1025.6"/>
      <point x="700.8" y="1026.2"/>
      <point x="655.6" y="1026.2" type="curve" smooth="yes"/>
      <point x="542.6" y="1026.2"/>
      <point x="454.6" y="973.6"/>
      <point x="390.0" y="894.0" type="curve"/>
      <point x="390.0" y="998.2" type="line"/>
      <point x="120.0" y="998.2" type="line"/>
      <point x="120.0" y="0.0" type="line"/>
      <point x="391.8" y="0.0" type="line"/>
      <point x="391.8" y="506.2" type="line" smooth="yes"/>
      <point x="391.8" y="650.6"/>
      <point x="469.8" y="766.8"/>
      <point x="608.2" y="766.8" type="curve" smooth="yes"/>
      <point x="660.0" y="766.8"/>
      <point x="704.6" y="750.2"/>
    </contour>
  </outline>
</glyph>
<glyph name="s" format="2">
  <advance width="891.25"/>
  <unicode hex="0073"/>
  <outline>
    <contour>
      <point x="422.0" y="-18.2" type="curve" smooth="yes"/>
      <point x="630.8" y="-35.8"/>
      <point x="830.8" y="100.2"/>
      <point x="830.8" y="296.6" type="curve" smooth="yes"/>
      <point x="836.0" y="467.8"/>
      <point x="673.0" y="565.6"/>
      <point x="499.0" y="622.0" type="curve" smooth="yes"/>
      <point x="436.8" y="641.8"/>
      <point x="332.0" y="646.0"/>
      <point x="332.0" y="714.0" type="curve" smooth="yes"/>
      <point x="332.0" y="785.0"/>
      <point x="395.2" y="809.6"/>
      <point x="476.2" y="804.2" type="curve" smooth="yes"/>
      <point x="537.6" y="799.0"/>
      <point x="592.0" y="759.8"/>
      <point x="618.2" y="720.2" type="curve"/>
      <point x="831.2" y="846.6" type="line"/>
      <point x="750.0" y="966.0"/>
      <point x="610.8" y="1034.0"/>
      <point x="453.6" y="1034.0" type="curve" smooth="yes"/>
      <point x="256.8" y="1034.0"/>
      <point x="79.6" y="908.6"/>
      <point x="79.6" y="707.0" type="curve" smooth="yes"/>
      <point x="79.6" y="525.2"/>
      <point x="251.6" y="418.8"/>
      <point x="436.0" y="385.2" type="curve" smooth="yes"/>
      <point x="498.2" y="372.6"/>
      <point x="581.8" y="359.0"/>
      <point x="581.8" y="293.0" type="curve" smooth="yes"/>
      <point x="581.8" y="233.0"/>
      <point x="516.8" y="209.8"/>
      <point x="451.8" y="209.8" type="curve" smooth="yes"/>
      <point x="367.8" y="209.8"/>
      <point x="309.8" y="260.8"/>
      <point x="287.6" y="293.6" type="curve"/>
      <point x="60.0" y="196.0" type="line"/>
      <point x="121.2" y="67.2"/>
      <point x="267.6" y="-6.0"/>
    </contour>
  </outline>
</glyph>
<glyph name="t" format="2">
  <advance width="722.5"/>
  <unicode hex="0074"/>
  <outline>
    <contour>
      <point x="662.8" y="730.0" type="line"/>
      <point x="662.8" y="1000.0" type="line"/>
      <point x="479.8" y="1000.0" type="line"/>
      <point x="479.6" y="1314.0" type="line"/>
      <point x="209.6" y="1314.0" type="line"/>
      <point x="209.8" y="1000.0" type="line"/>
      <point x="70.2" y="1000.0" type="line"/>
      <point x="70.2" y="730.0" type="line"/>
      <point x="209.8" y="730.0" type="line"/>
      <point x="209.6" y="0.0" type="line"/>
      <point x="479.6" y="0.0" type="line"/>
      <point x="479.8" y="730.0" type="line"/>
    </contour>
  </outline>
</glyph>
<glyph name="u" format="2">
  <advance width="1233.75"/>
  <unicode hex="0075"/>
  <outline>
    <contour>
      <point x="120.0" y="490.0" type="line"/>
      <point x="122.2" y="204.8"/>
      <point x="296.6" y="-27.8"/>
      <point x="578.6" y="-27.8" type="curve"/>
      <point x="691.6" y="-27.8"/>
      <point x="779.2" y="26.799999999999997"/>
      <point x="843.8" y="106.19999999999999" type="curve"/>
      <point x="843.8" y="0.0" type="line"/>
      <point x="1113.8" y="0.0" type="line"/>
      <point x="1113.8" y="1000.0" type="line"/>
      <point x="843.8" y="1000.0" type="line"/>
      <point x="843.8" y="494.0" type="line"/>
      <point x="843.8" y="349.8"/>
      <point x="764.0" y="233.60000000000002"/>
      <point x="625.8" y="233.60000000000002" type="curve"/>
      <point x="485.6" y="233.60000000000002"/>
      <point x="390.0" y="349.8"/>
      <point x="390.0" y="494.0" type="curve"/>
      <point x="390.0" y="1000.0" type="line"/>
      <point x="120.0" y="1000.0" type="line"/>
    </contour>
  </outline>
</glyph>
<glyph name="v" format="2">
  <advance width="1197.0"/>
  <unicode hex="0076"/>
  <outline>
    <contour>
      <point x="772.8" y="0.0" type="line"/>
      <point x="1137.0" y="1000.6" type="line"/>
      <point x="849.0" y="1000.6" type="line"/>
      <point x="598.6" y="310.20000000000005" type="line"/>
      <point x="348.0" y="1000.6" type="line"/>
      <point x="60.0" y="1000.6" type="line"/>
      <point x="424.2" y="0.0" type="line"/>
    </contour>
  </outline>
</glyph>
<glyph name="w" format="2">
  <advance width="1725.0"/>
  <unicode hex="0077"/>
  <outline>
    <contour>
      <point x="660.0" y="0.0" type="line"/>
      <point x="862.2" y="609.2" type="line"/>
      <point x="1064.8" y="0.0" type="line"/>
      <point x="1330.8" y="0.0" type="line"/>
      <point x="1665.0" y="1000.2" type="line"/>
      <point x="1400.2" y="1000.2" type="line"/>
      <point x="1196.8" y="392.20000000000005" type="line"/>
      <point x="995.0" y="1000.2" type="line"/>
      <point x="730.0" y="1000.2" type="line"/>
      <point x="528.2" y="392.20000000000005" type="line"/>
      <point x="324.6" y="1000.2" type="line"/>
      <point x="60.0" y="1000.2" type="line"/>
      <point x="394.2" y="0.0" type="line"/>
    </contour>
  </outline>
</glyph>
<glyph name="x" format="2">
  <advance width="1225.0"/>
  <unicode hex="0078"/>
  <outline>
    <contour>
      <point x="80.0" y="0.0" type="line"/>
      <point x="413.0" y="0.0" type="line"/>
      <point x="611.8" y="273.6" type="line"/>
      <point x="812.0" y="0.0" type="line"/>
      <point x="1145.0" y="0.0" type="line"/>
      <point x="779.0" y="502.0" type="line"/>
      <point x="1141.6" y="1000.6" type="line"/>
      <point x="808.6" y="1000.6" type="line"/>
      <point x="611.8" y="732.6" type="line"/>
      <point x="416.6" y="1000.6" type="line"/>
      <point x="83.6" y="1000.6" type="line"/>
      <point x="446.0" y="502.0" type="line"/>
    </contour>
  </outline>
</glyph>
<glyph name="y" format="2">
  <advance width="1173.5"/>
  <unicode hex="0079"/>
  <outline>
    <contour>
      <point x="805.8" y="1000.0" type="line"/>
      <point x="574.8" y="369.20000000000005" type="line"/>
      <point x="375.20000000000005" y="1000.0" type="line"/>
      <point x="80.0" y="1000.0" type="line"/>
      <point x="439.8" y="0.19999999999999996" type="line"/>
      <point x="259.6" y="-500.0" type="line"/>
      <point x="545.8" y="-500.0" type="line"/>
      <point x="1093.6" y="1000.0" type="line"/>
    </contour>
  </outline>
</glyph>
<glyph name="z" format="2">
  <advance width="1089.0"/>
  <unicode hex="007A"/>
  <outline>
    <contour>
      <point x="971.6" y="730.0" type="line"/>
      <point x="971.6" y="1000.0" type="line"/>
      <point x="117.6" y="1000.0" type="line"/>
      <point x="117.6" y="730.0" type="line"/>
      <point x="581.8" y="730.0" type="line"/>
      <point x="117.6" y="270.0" type="line"/>
      <point x="117.6" y="0.0" type="line"/>
      <point x="971.6" y="0.0" type="line"/>
      <point x="971.6" y="270.0" type="line"/>
      <point x="507.20000000000005" y="270.0" type="line"/>
    </contour>
  </outline>
</glyph>
<glyph name="braceleft" format="2">
  <advance width="825.0"/>
  <unicode hex="007B"/>
  <outline>
    <contour>
      <point x="608.8" y="-112.2" type="curve" smooth="yes"/>
      <point x="725.0" y="-112.2" type="line"/>
      <point x="725.0" y="157.8" type="line"/>
      <point x="608.8" y="157.8" type="line" smooth="yes"/>
      <point x="564.2" y="157.8"/>
      <point x="528.8" y="193.2"/>
      <point x="528.8" y="237.8" type="curve" smooth="yes"/>
      <point x="528.8" y="492.8" type="line" smooth="yes"/>
      <point x="524.8" y="559.6"/>
      <point x="454.0" y="582.8"/>
      <point x="439.6" y="643.8" type="curve" smooth="yes"/>
      <point x="453.6" y="699.2"/>
      <point x="524.8" y="730.0"/>
      <point x="528.8" y="795.0" type="curve" smooth="yes"/>
      <point x="528.8" y="1050.0" type="line" smooth="yes"/>
      <point x="528.8" y="1094.6"/>
      <point x="564.6" y="1130.0"/>
      <point x="608.8" y="1130.0" type="curve" smooth="yes"/>
      <point x="725.0" y="1130.0" type="line"/>
      <point x="725.0" y="1400.0" type="line"/>
      <point x="608.8" y="1400.0" type="line" smooth="yes"/>
      <point x="414.8" y="1400.0"/>
      <point x="258.8" y="1242.0"/>
      <point x="258.8" y="1050.0" type="curve" smooth="yes"/>
      <point x="258.8" y="804.0" type="line" smooth="yes"/>
      <point x="258.0" y="744.2"/>
      <point x="120.0" y="721.8"/>
      <point x="120.0" y="643.8" type="curve" smooth="yes"/>
      <point x="120.0" y="559.8"/>
      <point x="258.0" y="550.6"/>
      <point x="258.8" y="482.0" type="curve" smooth="yes"/>
      <point x="258.8" y="237.8" type="line" smooth="yes"/>
      <point x="258.8" y="44.0"/>
      <point x="414.8" y="-112.2"/>
    </contour>
  </outline>
</glyph>
<glyph name="bar" format="2">
  <advance width="550.0"/>
  <unicode hex="007C"/>
  <outline>
    <contour>
      <point x="140.0" y="1400.0" type="line"/>
      <point x="140.0" y="-302.0" type="line"/>
      <point x="410.0" y="-302.0" type="line"/>
      <point x="410.0" y="1400.0" type="line"/>
    </contour>
  </outline>
</glyph>
<glyph name="braceright" format="2">
  <advance width="825.0"/>
  <unicode hex="007D"/>
  <outline>
    <contour>
      <point x="100.0" y="-112.2" type="line"/>
      <point x="216.2" y="-112.2" type="line" smooth="yes"/>
      <point x="410.2" y="-112.2"/>
      <point x="566.2" y="44.0"/>
      <point x="566.2" y="237.8" type="curve" smooth="yes"/>
      <point x="566.2" y="482.0" type="line" smooth="yes"/>
      <point x="567.0" y="550.6"/>
      <point x="705.0" y="559.8"/>
      <point x="705.0" y="643.8" type="curve" smooth="yes"/>
      <point x="705.0" y="721.8"/>
      <point x="567.0" y="744.2"/>
      <point x="566.2" y="804.0" type="curve" smooth="yes"/>
      <point x="566.2" y="1050.0" type="line" smooth="yes"/>
      <point x="566.2" y="1242.0"/>
      <point x="410.2" y="1400.0"/>
      <point x="216.2" y="1400.0" type="curve" smooth="yes"/>
      <point x="100.0" y="1400.0" type="line"/>
      <point x="100.0" y="1130.0" type="line"/>
      <point x="216.2" y="1130.0" type="line" smooth="yes"/>
      <point x="260.6" y="1130.0"/>
      <point x="296.2" y="1094.6"/>
      <point x="296.2" y="1050.0" type="curve" smooth="yes"/>
      <point x="296.2" y="795.0" type="line"/>
      <point x="300.2" y="730.0"/>
      <point x="371.6" y="699.2"/>
      <point x="385.6" y="643.8" type="curve" smooth="yes"/>
      <point x="371.0" y="582.8"/>
      <point x="300.2" y="559.6"/>
      <point x="296.2" y="492.8" type="curve"/>
      <point x="296.2" y="237.8" type="line" smooth="yes"/>
      <point x="296.2" y="193.2"/>
      <point x="260.8" y="157.8"/>
      <point x="216.2" y="157.8" type="curve" smooth="yes"/>
      <point x="100.0" y="157.8" type="line"/>
    </contour>
  </outline>
</glyph>
<glyph name="asciitilde" format="2">
  <advance width="1325.5"/>
  <unicode hex="007E"/>
  <outline>
    <contour>
      <point x="977.4" y="391.4" type="curve" smooth="yes"/>
      <point x="1163.6" y="391.4"/>
      <point x="1268.4" y="553.8"/>
      <point x="1241.6" y="737.2" type="curve"/>
      <point x="977.2" y="741.8" type="line"/>
      <point x="980.8" y="684.8"/>
      <point x="959.8" y="637.2"/>
      <point x="902.4" y="637.2" type="curve" smooth="yes"/>
      <point x="760.8" y="637.2"/>
      <point x="565.6" y="808.6"/>
      <point x="390.6" y="808.6" type="curve" smooth="yes"/>
      <point x="203.4" y="808.6"/>
      <point x="56.6" y="640.8"/>
      <point x="82.8" y="459.2" type="curve"/>
      <point x="347.4" y="453.8" type="line"/>
      <point x="343.8" y="504.6"/>
      <point x="361.2" y="556.2"/>
      <point x="418.4" y="555.8" type="curve" smooth="yes"/>
      <point x="557.4" y="556.2"/>
      <point x="801.2" y="391.4"/>
    </contour>
  </outline>
</glyph>
<glyph name="exclamdown" format="2">
  <advance width="467.0"/>
  <unicode hex="00A1"/>
  <outline>
    <contour>
      <point x="215.0" y="1026.0" type="curve"/>
      <point x="140.2" y="1026.0"/>
      <point x="80.0" y="965.8"/>
      <point x="80.0" y="887.2" type="curve"/>
      <point x="80.0" y="812.6"/>
      <point x="140.2" y="752.2"/>
      <point x="215.0" y="752.2" type="curve"/>
      <point x="291.8" y="752.2"/>
      <point x="352.0" y="812.6"/>
      <point x="352.0" y="887.2" type="curve"/>
      <point x="352.0" y="965.8"/>
      <point x="291.8" y="1026.0"/>
    </contour>
    <contour>
      <point x="329.0" y="580.0" type="line"/>
      <point x="102.8" y="580.0" type="line"/>
      <point x="102.8" y="-400.0" type="line"/>
      <point x="329.0" y="-400.0" type="line"/>
    </contour>
  </outline>
</glyph>
<glyph name="cent" format="2">
  <advance width="1092.0"/>
  <unicode hex="00A2"/>
  <outline>
    <contour>
      <point x="490.2" y="0.0" type="line"/>
      <point x="672.8" y="0.0" type="line"/>
      <point x="672.8" y="207.0" type="line"/>
      <point x="816.6" y="232.6"/>
      <point x="938.6" y="319.6"/>
      <point x="1012.0" y="440.0" type="curve"/>
      <point x="778.0" y="575.0" type="line"/>
      <point x="735.0" y="510.0"/>
      <point x="660.2" y="468.0"/>
      <point x="582.0" y="468.0" type="curve" smooth="yes"/>
      <point x="456.0" y="468.0"/>
      <point x="350.0" y="572.8"/>
      <point x="350.0" y="702.0" type="curve" smooth="yes"/>
      <point x="350.0" y="828.8"/>
      <point x="455.6" y="934.0"/>
      <point x="582.0" y="934.0" type="curve" smooth="yes"/>
      <point x="660.2" y="934.0"/>
      <point x="735.0" y="892.0"/>
      <point x="778.0" y="827.0" type="curve"/>
      <point x="1012.0" y="962.0" type="line"/>
      <point x="938.6" y="1082.6"/>
      <point x="816.6" y="1169.6"/>
      <point x="672.8" y="1195.0" type="curve"/>
      <point x="672.8" y="1400.0" type="line"/>
      <point x="490.2" y="1400.0" type="line"/>
      <point x="490.2" y="1195.0" type="line"/>
      <point x="258.0" y="1152.6"/>
      <point x="80.0" y="947.0"/>
      <point x="80.0" y="702.0" type="curve" smooth="yes"/>
      <point x="80.0" y="455.2"/>
      <point x="258.0" y="251.2"/>
      <point x="490.2" y="207.0" type="curve"/>
    </contour>
  </outline>
</glyph>
<glyph name="sterling" format="2">
  <advance width="1204.0"/>
  <unicode hex="00A3"/>
  <outline>
    <contour>
      <point x="104.0" y="0.0" type="line"/>
      <point x="1101.2" y="0.0" type="line"/>
      <point x="1101.2" y="270.0" type="line"/>
      <point x="603.8" y="270.0" type="line"/>
      <point x="616.6" y="285.0"/>
      <point x="635.0" y="326.8"/>
      <point x="635.0" y="366.6" type="curve" smooth="yes"/>
      <point x="635.0" y="626.6"/>
      <point x="350.0" y="675.6"/>
      <point x="350.0" y="905.0" type="curve" smooth="yes"/>
      <point x="350.0" y="1042.8"/>
      <point x="463.2" y="1156.0"/>
      <point x="601.0" y="1156.0" type="curve" smooth="yes"/>
      <point x="740.8" y="1156.0"/>
      <point x="854.0" y="1042.8"/>
      <point x="854.0" y="905.0" type="curve"/>
      <point x="1124.0" y="905.0" type="line"/>
      <point x="1124.0" y="1192.2"/>
      <point x="888.6" y="1426.0"/>
      <point x="601.0" y="1426.0" type="curve" smooth="yes"/>
      <point x="315.6" y="1426.0"/>
      <point x="80.0" y="1190.6"/>
      <point x="80.0" y="905.0" type="curve" smooth="yes"/>
      <point x="80.0" y="710.6"/>
      <point x="302.0" y="574.6"/>
      <point x="352.8" y="450.6" type="curve" smooth="yes"/>
      <point x="410.6" y="338.8"/>
      <point x="235.2" y="270.0"/>
      <point x="104.0" y="270.0" type="curve"/>
    </contour>
    <contour>
      <point x="104.0" y="445.0" type="line"/>
      <point x="878.6" y="445.0" type="line"/>
      <point x="878.6" y="627.6" type="line"/>
      <point x="104.0" y="627.6" type="line"/>
    </contour>
  </outline>
</glyph>
<glyph name="currency" format="2">
  <advance width="1037.5"/>
  <unicode hex="00A4"/>
  <outline>
    <contour>
      <point x="209.6" y="261.2" type="line"/>
      <point x="338.2" y="390.2" type="line"/>
      <point x="451.6" y="321.4"/>
      <point x="587.8" y="322.8"/>
      <point x="702.8" y="388.2" type="curve"/>
      <point x="829.8" y="261.2" type="line"/>
      <point x="957.6" y="390.6" type="line"/>
      <point x="830.8" y="517.6" type="line"/>
      <point x="897.2" y="628.8"/>
      <point x="897.2" y="770.8"/>
      <point x="828.8" y="882.2" type="curve"/>
      <point x="957.6" y="1011.2" type="line"/>
      <point x="829.8" y="1138.8" type="line"/>
      <point x="699.0" y="1009.8" type="line"/>
      <point x="590.0" y="1072.6"/>
      <point x="447.8" y="1072.4"/>
      <point x="340.6" y="1007.8" type="curve"/>
      <point x="209.6" y="1138.8" type="line"/>
      <point x="80.0" y="1011.2" type="line"/>
      <point x="212.6" y="878.4" type="line"/>
      <point x="146.0" y="768.8"/>
      <point x="146.0" y="630.8"/>
      <point x="210.6" y="521.4" type="curve"/>
      <point x="80.0" y="390.6" type="line"/>
    </contour>
    <contour>
      <point x="521.6" y="521.4" type="curve" smooth="yes"/>
      <point x="424.8" y="519.6"/>
      <point x="344.2" y="600.6"/>
      <point x="344.2" y="698.8" type="curve" smooth="yes"/>
      <point x="344.2" y="789.6"/>
      <point x="418.6" y="876.2"/>
      <point x="521.6" y="874.4" type="curve" smooth="yes"/>
      <point x="614.2" y="872.6"/>
      <point x="697.2" y="803.6"/>
      <point x="697.2" y="698.8" type="curve" smooth="yes"/>
      <point x="697.2" y="599.4"/>
      <point x="619.0" y="523.2"/>
    </contour>
  </outline>
</glyph>
<glyph name="yen" format="2">
  <advance width="1361.5"/>
  <unicode hex="00A5"/>
  <outline>
    <contour>
      <point x="545.8" y="0.0" type="line"/>
      <point x="815.8" y="0.0" type="line"/>
      <point x="815.8" y="136.8" type="line"/>
      <point x="1044.8" y="136.8" type="line"/>
      <point x="1044.8" y="319.4" type="line"/>
      <point x="815.8" y="319.4" type="line"/>
      <point x="815.8" y="402.8" type="line"/>
      <point x="1044.8" y="402.8" type="line"/>
      <point x="1044.8" y="585.4" type="line"/>
      <point x="815.8" y="585.4" type="line"/>
      <point x="815.8" y="630.8" type="line"/>
      <point x="1299.0" y="1400.0" type="line"/>
      <point x="980.6" y="1400.0" type="line"/>
      <point x="680.8" y="924.2" type="line"/>
      <point x="381.0" y="1400.0" type="line"/>
      <point x="62.6" y="1400.0" type="line"/>
      <point x="545.8" y="630.8" type="line"/>
      <point x="545.8" y="585.4" type="line"/>
      <point x="316.8" y="585.4" type="line"/>
      <point x="316.8" y="402.8" type="line"/>
      <point x="545.8" y="402.8" type="line"/>
      <point x="545.8" y="319.4" type="line"/>
      <point x="316.8" y="319.4" type="line"/>
      <point x="316.8" y="136.8" type="line"/>
      <point x="545.8" y="136.8" type="line"/>
    </contour>
  </outline>
</glyph>
<glyph name="section" format="2">
  <advance width="1108.5"/>
  <unicode hex="00A7"/>
  <outline>
    <contour>
      <point x="542.6" y="-364.6" type="curve" smooth="yes"/>
      <point x="739.2" y="-364.6"/>
      <point x="916.6" y="-239.0"/>
      <point x="916.6" y="-37.599999999999994" type="curve" smooth="yes"/>
      <point x="916.6" y="42.2"/>
      <point x="882.0" y="105.0"/>
      <point x="820.2" y="152.0" type="curve"/>
      <point x="922.2" y="230.2"/>
      <point x="988.6" y="357.8"/>
      <point x="988.6" y="499.8" type="curve" smooth="yes"/>
      <point x="988.6" y="736.2"/>
      <point x="831.6" y="911.8"/>
      <point x="606.2" y="954.2" type="curve" smooth="yes"/>
      <point x="540.0" y="966.8"/>
      <point x="444.6" y="978.2"/>
      <point x="444.6" y="1044.6" type="curve" smooth="yes"/>
      <point x="444.6" y="1115.6"/>
      <point x="507.8" y="1140.0"/>
      <point x="588.8" y="1134.8" type="curve" smooth="yes"/>
      <point x="650.0" y="1129.6"/>
      <point x="704.6" y="1090.2"/>
      <point x="730.8" y="1050.8" type="curve"/>
      <point x="943.8" y="1177.0" type="line"/>
      <point x="862.6" y="1296.6"/>
      <point x="723.2" y="1364.6"/>
      <point x="566.0" y="1364.6" type="curve" smooth="yes"/>
      <point x="369.2" y="1364.6"/>
      <point x="192.0" y="1239.0"/>
      <point x="192.0" y="1037.6" type="curve" smooth="yes"/>
      <point x="192.0" y="957.6"/>
      <point x="226.2" y="894.8"/>
      <point x="286.6" y="849.6" type="curve"/>
      <point x="185.8" y="771.0"/>
      <point x="120.0" y="641.8"/>
      <point x="120.0" y="499.8" type="curve" smooth="yes"/>
      <point x="120.0" y="283.6"/>
      <point x="282.8" y="74.0"/>
      <point x="497.0" y="47.6" type="curve" smooth="yes"/>
      <point x="561.2" y="38.8"/>
      <point x="664.0" y="23.6"/>
      <point x="664.0" y="-44.599999999999994" type="curve" smooth="yes"/>
      <point x="664.0" y="-115.6"/>
      <point x="600.8" y="-140.0"/>
      <point x="519.8" y="-134.79999999999998" type="curve" smooth="yes"/>
      <point x="458.6" y="-129.6"/>
      <point x="404.0" y="-90.19999999999999"/>
      <point x="377.8" y="-50.8" type="curve"/>
      <point x="164.8" y="-177.0" type="line"/>
      <point x="246.0" y="-296.6"/>
      <point x="385.2" y="-364.6"/>
    </contour>
    <contour>
      <point x="566.6" y="283.8" type="curve" smooth="yes"/>
      <point x="441.6" y="283.8"/>
      <point x="356.8" y="379.2"/>
      <point x="356.8" y="499.8" type="curve" smooth="yes"/>
      <point x="356.8" y="605.0"/>
      <point x="444.6" y="716.2"/>
      <point x="535.0" y="716.2" type="curve" smooth="yes"/>
      <point x="664.8" y="716.2"/>
      <point x="751.8" y="628.2"/>
      <point x="751.8" y="499.0" type="curve" smooth="yes"/>
      <point x="751.8" y="390.2"/>
      <point x="665.8" y="283.8"/>
    </contour>
  </outline>
</glyph>
<glyph name="copyright" format="2">
  <advance width="1932.25"/>
  <unicode hex="00A9"/>
  <outline>
    <contour>
      <point x="965.2" y="-344.6" type="curve" smooth="yes"/>
      <point x="1455.0" y="-344.6"/>
      <point x="1852.2" y="51.0"/>
      <point x="1852.2" y="540.8" type="curve" smooth="yes"/>
      <point x="1852.2" y="1032.2"/>
      <point x="1455.0" y="1426.0"/>
      <point x="965.2" y="1426.0" type="curve" smooth="yes"/>
      <point x="475.6" y="1426.0"/>
      <point x="80.0" y="1030.6"/>
      <point x="80.0" y="540.8" type="curve" smooth="yes"/>
      <point x="80.0" y="51.0"/>
      <point x="475.6" y="-344.6"/>
    </contour>
    <contour>
      <point x="965.2" y="-74.6" type="curve" smooth="yes"/>
      <point x="632.8" y="-74.6"/>
      <point x="350.0" y="192.6"/>
      <point x="350.0" y="540.8" type="curve" smooth="yes"/>
      <point x="350.0" y="873.8"/>
      <point x="618.0" y="1155.6"/>
      <point x="965.2" y="1156.0" type="curve" smooth="yes"/>
      <point x="1308.2" y="1156.6"/>
      <point x="1582.2" y="878.0"/>
      <point x="1582.2" y="540.8" type="curve" smooth="yes"/>
      <point x="1582.2" y="208.2"/>
      <point x="1313.2" y="-74.6"/>
    </contour>
    <component base="c" xOffset="406.8" yOffset="40.8"/>
  </outline>
</glyph>
<glyph name="logicalnot" format="2">
  <advance width="1035.5"/>
  <unicode hex="00AC"/>
  <outline>
    <contour>
      <point x="685.6" y="282.6" type="line"/>
      <point x="955.6" y="282.6" type="line"/>
      <point x="955.6" y="917.6" type="line"/>
      <point x="80.0" y="917.6" type="line"/>
      <point x="80.0" y="647.6" type="line"/>
      <point x="685.6" y="647.6" type="line"/>
    </contour>
  </outline>
</glyph>
<glyph name="registered" format="2">
  <advance width="1156.75"/>
  <unicode hex="00AE"/>
  <outline>
    <contour>
      <point x="577.6" y="382.6" type="curve" smooth="yes"/>
      <point x="860.0" y="382.8"/>
      <point x="1096.8" y="611.6"/>
      <point x="1096.8" y="901.8" type="curve" smooth="yes"/>
      <point x="1096.8" y="1181.0"/>
      <point x="869.2" y="1419.2"/>
      <point x="577.6" y="1419.2" type="curve" smooth="yes"/>
      <point x="291.6" y="1419.2"/>
      <point x="60.0" y="1187.0"/>
      <point x="60.0" y="901.8" type="curve" smooth="yes"/>
      <point x="60.0" y="615.0"/>
      <point x="291.2" y="382.8"/>
    </contour>
    <contour>
      <point x="577.6" y="573.8" type="curve" smooth="yes"/>
      <point x="397.6" y="573.8"/>
      <point x="251.2" y="720.0"/>
      <point x="251.2" y="901.8" type="curve" smooth="yes"/>
      <point x="251.2" y="1081.8"/>
      <point x="397.6" y="1228.0"/>
      <point x="577.6" y="1228.0" type="curve" smooth="yes"/>
      <point x="759.2" y="1228.0"/>
      <point x="905.6" y="1081.8"/>
      <point x="905.6" y="901.8" type="curve" smooth="yes"/>
      <point x="905.6" y="720.0"/>
      <point x="759.2" y="573.8"/>
    </contour>
    <contour>
      <point x="436.0" y="700.0" type="line"/>
      <point x="539.8" y="700.0" type="line"/>
      <point x="539.8" y="856.8" type="line"/>
      <point x="559.6" y="856.8" type="line"/>
      <point x="651.8" y="700.0" type="line"/>
      <point x="770.8" y="700.0" type="line"/>
      <point x="669.6" y="874.6" type="line"/>
      <point x="710.6" y="896.8"/>
      <point x="737.6" y="942.6"/>
      <point x="737.6" y="994.6" type="curve" smooth="yes"/>
      <point x="737.6" y="1070.6"/>
      <point x="679.2" y="1132.6"/>
      <point x="605.6" y="1132.6" type="curve" smooth="yes"/>
      <point x="436.0" y="1132.6" type="line"/>
    </contour>
    <contour>
      <point x="539.8" y="960.6" type="line"/>
      <point x="539.8" y="1028.8" type="line"/>
      <point x="605.6" y="1028.8" type="line" smooth="yes"/>
      <point x="620.8" y="1028.8"/>
      <point x="633.8" y="1013.8"/>
      <point x="633.8" y="994.6" type="curve" smooth="yes"/>
      <point x="633.8" y="975.6"/>
      <point x="620.8" y="960.6"/>
      <point x="605.6" y="960.6" type="curve" smooth="yes"/>
    </contour>
  </outline>
</glyph>
<glyph name="degree" format="2">
  <advance width="965.75"/>
  <unicode hex="00B0"/>
  <outline>
    <contour>
      <point x="483.8" y="678.0" type="curve" smooth="yes"/>
      <point x="700.0" y="678.0"/>
      <point x="885.8" y="849.8"/>
      <point x="885.8" y="1080.0" type="curve" smooth="yes"/>
      <point x="885.8" y="1292.8"/>
      <point x="714.0" y="1482.0"/>
      <point x="483.8" y="1482.0" type="curve" smooth="yes"/>
      <point x="258.8" y="1482.0"/>
      <point x="80.0" y="1298.0"/>
      <point x="80.0" y="1080.0" type="curve" smooth="yes"/>
      <point x="80.0" y="867.2"/>
      <point x="255.2" y="678.0"/>
    </contour>
    <contour>
      <point x="483.8" y="948.0" type="curve" smooth="yes"/>
      <point x="409.8" y="948.0"/>
      <point x="350.0" y="1006.0"/>
      <point x="350.0" y="1080.0" type="curve" smooth="yes"/>
      <point x="350.0" y="1154.0"/>
      <point x="409.8" y="1212.0"/>
      <point x="483.8" y="1212.0" type="curve" smooth="yes"/>
      <point x="556.0" y="1212.0"/>
      <point x="615.8" y="1154.0"/>
      <point x="615.8" y="1080.0" type="curve" smooth="yes"/>
      <point x="615.8" y="1006.0"/>
      <point x="556.0" y="948.0"/>
    </contour>
  </outline>
</glyph>
<glyph name="plusminus" format="2">
  <advance width="1160.0"/>
  <unicode hex="00B1"/>
  <outline>
    <contour>
      <point x="445.0" y="387.6" type="line"/>
      <point x="715.0" y="387.6" type="line"/>
      <point x="715.0" y="752.6" type="line"/>
      <point x="1080.0" y="752.6" type="line"/>
      <point x="1080.0" y="1022.6" type="line"/>
      <point x="715.0" y="1022.6" type="line"/>
      <point x="715.0" y="1387.6" type="line"/>
      <point x="445.0" y="1387.6" type="line"/>
      <point x="445.0" y="1022.6" type="line"/>
      <point x="80.0" y="1022.6" type="line"/>
      <point x="80.0" y="752.6" type="line"/>
      <point x="445.0" y="752.6" type="line"/>
    </contour>
    <contour>
      <point x="80.0" y="0.19999999999999996" type="line"/>
      <point x="1080.0" y="0.19999999999999996" type="line"/>
      <point x="1080.0" y="270.2" type="line"/>
      <point x="80.0" y="270.2" type="line"/>
    </contour>
  </outline>
</glyph>
<glyph name="twosuperior" format="2">
  <advance width="719.875"/>
  <unicode hex="00B2"/>
  <outline>
    <contour>
      <point x="96.0" y="818.0" type="line"/>
      <point x="565.4" y="818.0" type="line"/>
      <point x="565.4" y="974.0" type="line"/>
      <point x="379.8" y="974.0" type="line"/>
      <point x="471.4" y="1051.0"/>
      <point x="575.8" y="1133.6"/>
      <point x="575.8" y="1238.6" type="curve"/>
      <point x="575.8" y="1371.6"/>
      <point x="469.4" y="1468.0"/>
      <point x="337.4" y="1468.0" type="curve"/>
      <point x="204.2" y="1468.0"/>
      <point x="96.0" y="1371.6"/>
      <point x="96.0" y="1238.6" type="curve"/>
      <point x="252.0" y="1238.6" type="line"/>
      <point x="252.0" y="1286.2"/>
      <point x="289.8" y="1322.6"/>
      <point x="337.4" y="1322.6" type="curve"/>
      <point x="383.2" y="1322.6"/>
      <point x="419.8" y="1286.2"/>
      <point x="419.8" y="1238.6" type="curve"/>
      <point x="356.8" y="1104.4"/>
      <point x="208.8" y="1032.2"/>
      <point x="96.0" y="955.0" type="curve"/>
    </contour>
  </outline>
</glyph>
<glyph name="threesuperior" format="2">
  <advance width="582.0"/>
  <unicode hex="00B3"/>
  <outline>
    <contour>
      <point x="292.0" y="798.0" type="curve" smooth="yes"/>
      <point x="410.6" y="798.0"/>
      <point x="510.0" y="885.6"/>
      <point x="510.0" y="1007.0" type="curve" smooth="yes"/>
      <point x="510.0" y="1060.8"/>
      <point x="491.2" y="1112.2"/>
      <point x="452.2" y="1151.0" type="curve"/>
      <point x="478.0" y="1184.8"/>
      <point x="492.8" y="1228.6"/>
      <point x="492.8" y="1274.0" type="curve" smooth="yes"/>
      <point x="492.8" y="1387.2"/>
      <point x="401.2" y="1467.8"/>
      <point x="287.0" y="1467.8" type="curve" smooth="yes"/>
      <point x="173.8" y="1467.8"/>
      <point x="82.2" y="1387.2"/>
      <point x="82.2" y="1274.0" type="curve"/>
      <point x="238.2" y="1274.0" type="line"/>
      <point x="238.2" y="1300.8"/>
      <point x="261.2" y="1322.2"/>
      <point x="287.0" y="1322.2" type="curve" smooth="yes"/>
      <point x="313.8" y="1322.2"/>
      <point x="336.8" y="1300.8"/>
      <point x="336.8" y="1274.0" type="curve" smooth="yes"/>
      <point x="336.8" y="1239.6"/>
      <point x="315.2" y="1197.2"/>
      <point x="237.4" y="1197.2" type="curve"/>
      <point x="237.4" y="1096.4" type="line"/>
      <point x="315.0" y="1096.4"/>
      <point x="354.0" y="1050.2"/>
      <point x="354.0" y="1007.0" type="curve" smooth="yes"/>
      <point x="354.0" y="970.2"/>
      <point x="326.2" y="943.6"/>
      <point x="292.0" y="943.6" type="curve" smooth="yes"/>
      <point x="255.8" y="943.6"/>
      <point x="228.0" y="970.2"/>
      <point x="228.0" y="1007.0" type="curve"/>
      <point x="72.0" y="1007.0" type="line"/>
      <point x="72.0" y="885.6"/>
      <point x="171.6" y="798.0"/>
    </contour>
  </outline>
</glyph>
<glyph name="periodcentered" format="2">
  <advance width="433.75"/>
  <unicode hex="00B7"/>
  <outline>
    <contour>
      <point x="216.8" y="463.2" type="curve" smooth="yes"/>
      <point x="291.8" y="463.2"/>
      <point x="353.8" y="523.4"/>
      <point x="353.8" y="600.2" type="curve" smooth="yes"/>
      <point x="353.8" y="674.8"/>
      <point x="291.8" y="736.8"/>
      <point x="216.8" y="736.8" type="curve" smooth="yes"/>
      <point x="140.2" y="736.8"/>
      <point x="80.0" y="674.8"/>
      <point x="80.0" y="600.2" type="curve" smooth="yes"/>
      <point x="80.0" y="523.4"/>
      <point x="140.2" y="463.2"/>
    </contour>
  </outline>
</glyph>
<glyph name="onesuperior" format="2">
  <advance width="457.875"/>
  <unicode hex="00B9"/>
  <outline>
    <contour>
      <point x="157.8" y="818.0" type="line"/>
      <point x="313.8" y="818.0" type="line"/>
      <point x="313.8" y="1449.0" type="line"/>
      <point x="118.2" y="1449.0" type="line"/>
      <point x="96.0" y="1293.0" type="line"/>
      <point x="157.8" y="1293.0" type="line"/>
    </contour>
  </outline>
</glyph>
<glyph name="questiondown" format="2">
  <advance width="1129.0"/>
  <unicode hex="00BF"/>
  <outline>
    <contour>
      <point x="547.0" y="-426.2" type="curve" smooth="yes"/>
      <point x="804.8" y="-426.2"/>
      <point x="1014.0" y="-217.0"/>
      <point x="1014.0" y="39.0" type="curve"/>
      <point x="744.0" y="39.0" type="line"/>
      <point x="744.0" y="-69.19999999999999"/>
      <point x="655.2" y="-156.2"/>
      <point x="547.0" y="-156.2" type="curve" smooth="yes"/>
      <point x="438.8" y="-156.2"/>
      <point x="350.0" y="-69.19999999999999"/>
      <point x="350.0" y="39.0" type="curve" smooth="yes"/>
      <point x="350.0" y="116.2"/>
      <point x="387.0" y="183.2"/>
      <point x="447.8" y="216.0" type="curve" smooth="yes"/>
      <point x="585.0" y="290.6"/>
      <point x="668.0" y="429.8"/>
      <point x="668.0" y="585.0" type="curve"/>
      <point x="398.0" y="585.0" type="line"/>
      <point x="398.0" y="528.4"/>
      <point x="368.8" y="479.2"/>
      <point x="320.0" y="453.6" type="curve" smooth="yes"/>
      <point x="171.0" y="374.2"/>
      <point x="80.0" y="215.2"/>
      <point x="80.0" y="39.0" type="curve" smooth="yes"/>
      <point x="80.0" y="-217.0"/>
      <point x="289.2" y="-426.2"/>
    </contour>
    <contour>
      <point x="520.8" y="752.2" type="curve" smooth="yes"/>
      <point x="597.2" y="752.2"/>
      <point x="657.6" y="812.6"/>
      <point x="657.6" y="887.2" type="curve" smooth="yes"/>
      <point x="657.6" y="965.8"/>
      <point x="597.2" y="1026.0"/>
      <point x="520.8" y="1026.0" type="curve" smooth="yes"/>
      <point x="445.8" y="1026.0"/>
      <point x="385.6" y="965.8"/>
      <point x="385.6" y="887.2" type="curve" smooth="yes"/>
      <point x="385.6" y="812.6"/>
      <point x="445.8" y="752.2"/>
    </contour>
  </outline>
</glyph>
<glyph name="AE" format="2">
  <advance width="1693.0"/>
  <unicode hex="00C6"/>
  <outline>
    <contour>
      <point x="80.0" y="0.0" type="line"/>
      <point x="366.2" y="0.0" type="line"/>
      <point x="451.8" y="235.0" type="line"/>
      <point x="848.6" y="235.0" type="line"/>
      <point x="848.6" y="0.0" type="line"/>
      <point x="1593.0" y="0.0" type="line"/>
      <point x="1593.0" y="270.0" type="line"/>
      <point x="1118.6" y="270.0" type="line"/>
      <point x="1118.6" y="565.0" type="line"/>
      <point x="1497.0" y="565.0" type="line"/>
      <point x="1497.0" y="835.0" type="line"/>
      <point x="1118.6" y="835.0" type="line"/>
      <point x="1118.6" y="1130.0" type="line"/>
      <point x="1593.0" y="1130.0" type="line"/>
      <point x="1593.0" y="1400.0" type="line"/>
      <point x="588.2" y="1400.0" type="line"/>
    </contour>
    <contour>
      <point x="550.8" y="505.0" type="line"/>
      <point x="777.6" y="1130.0" type="line"/>
      <point x="848.6" y="1130.0" type="line"/>
      <point x="848.6" y="505.0" type="line"/>
    </contour>
  </outline>
</glyph>
<glyph name="Eth" format="2">
  <advance width="1460.75"/>
  <unicode hex="00D0"/>
  <outline>
    <contour>
      <point x="238.6" y="0.0" type="line"/>
      <point x="700.8" y="0.0" type="line" smooth="yes"/>
      <point x="1086.8" y="0.0"/>
      <point x="1400.8" y="314.0"/>
      <point x="1400.8" y="700.0" type="curve" smooth="yes"/>
      <point x="1400.8" y="1086.0"/>
      <point x="1086.8" y="1400.0"/>
      <point x="700.8" y="1400.0" type="curve" smooth="yes"/>
      <point x="238.6" y="1400.0" type="line"/>
      <point x="238.6" y="885.0" type="line"/>
      <point x="100.0" y="885.0" type="line"/>
      <point x="100.0" y="615.0" type="line"/>
      <point x="238.6" y="615.0" type="line"/>
    </contour>
    <contour>
      <point x="508.6" y="270.0" type="line"/>
      <point x="508.6" y="615.0" type="line"/>
      <point x="766.6" y="615.0" type="line"/>
      <point x="766.6" y="885.0" type="line"/>
      <point x="508.6" y="885.0" type="line"/>
      <point x="508.6" y="1130.0" type="line"/>
      <point x="700.8" y="1130.0" type="line" smooth="yes"/>
      <point x="936.2" y="1130.0"/>
      <point x="1130.8" y="937.6"/>
      <point x="1130.8" y="700.0" type="curve" smooth="yes"/>
      <point x="1130.8" y="464.2"/>
      <point x="938.2" y="270.0"/>
      <point x="700.8" y="270.0" type="curve" smooth="yes"/>
    </contour>
  </outline>
</glyph>
<glyph name="multiply" format="2">
  <advance width="1057.0"/>
  <unicode hex="00D7"/>
  <outline>
    <contour>
      <point x="270.8" y="150.8" type="line"/>
      <point x="527.6" y="409.2" type="line"/>
      <point x="786.0" y="150.8" type="line"/>
      <point x="977.0" y="341.6" type="line"/>
      <point x="718.2" y="600.0" type="line"/>
      <point x="977.0" y="858.6" type="line"/>
      <point x="786.0" y="1049.2" type="line"/>
      <point x="527.6" y="790.8" type="line"/>
      <point x="270.8" y="1049.2" type="line"/>
      <point x="80.0" y="858.6" type="line"/>
      <point x="336.8" y="600.0" type="line"/>
      <point x="80.0" y="341.6" type="line"/>
    </contour>
  </outline>
</glyph>
<glyph name="Oslash" format="2">
  <advance width="1540.0"/>
  <unicode hex="00D8"/>
  <outline>
    <contour>
      <point x="457.0" y="-114.6" type="line"/>
      <point x="534.2" y="20.2" type="line"/>
      <point x="608.0" y="-9.4"/>
      <point x="686.8" y="-26.0"/>
      <point x="770.0" y="-26.0" type="curve" smooth="yes"/>
      <point x="1150.0" y="-26.0"/>
      <point x="1460.0" y="300.0"/>
      <point x="1460.0" y="700.0" type="curve" smooth="yes"/>
      <point x="1460.0" y="911.8"/>
      <point x="1373.0" y="1102.2"/>
      <point x="1234.6" y="1235.8" type="curve"/>
      <point x="1319.0" y="1379.6" type="line"/>
      <point x="1085.0" y="1514.6" type="line"/>
      <point x="1007.8" y="1381.6" type="line"/>
      <point x="934.0" y="1409.8"/>
      <point x="855.2" y="1426.0"/>
      <point x="770.0" y="1426.0" type="curve" smooth="yes"/>
      <point x="390.0" y="1426.0"/>
      <point x="80.0" y="1100.0"/>
      <point x="80.0" y="700.0" type="curve" smooth="yes"/>
      <point x="80.0" y="488.6"/>
      <point x="169.0" y="298.0"/>
      <point x="305.8" y="166.0" type="curve"/>
      <point x="223.0" y="20.400000000000002" type="line"/>
    </contour>
    <contour>
      <point x="449.6" y="414.20000000000005" type="line"/>
      <point x="388.2" y="490.6"/>
      <point x="350.0" y="591.0"/>
      <point x="350.0" y="700.0" type="curve" smooth="yes"/>
      <point x="350.0" y="949.8"/>
      <point x="538.8" y="1156.0"/>
      <point x="770.0" y="1156.0" type="curve" smooth="yes"/>
      <point x="804.8" y="1156.0"/>
      <point x="838.8" y="1150.6"/>
      <point x="869.2" y="1140.6" type="curve"/>
    </contour>
    <contour>
      <point x="770.0" y="244.0" type="curve" smooth="yes"/>
      <point x="737.2" y="244.0"/>
      <point x="703.2" y="249.60000000000002"/>
      <point x="672.8" y="261.2" type="curve"/>
      <point x="1092.6" y="986.0" type="line"/>
      <point x="1153.6" y="909.6"/>
      <point x="1190.0" y="809.0"/>
      <point x="1190.0" y="700.0" type="curve" smooth="yes"/>
      <point x="1190.0" y="450.2"/>
      <point x="1001.2" y="244.0"/>
    </contour>
  </outline>
</glyph>
<glyph name="Thorn" format="2">
  <advance width="1122.5"/>
  <unicode hex="00DE"/>
  <outline>
    <contour>
      <point x="120.0" y="0.0" type="line"/>
      <point x="390.0" y="0.0" type="line"/>
      <point x="390.0" y="275.6" type="line"/>
      <point x="633.0" y="275.6" type="line" smooth="yes"/>
      <point x="854.0" y="275.6"/>
      <point x="1042.6" y="464.8"/>
      <point x="1042.6" y="700.0" type="curve" smooth="yes"/>
      <point x="1042.6" y="931.6"/>
      <point x="861.8" y="1124.6"/>
      <point x="633.0" y="1124.6" type="curve" smooth="yes"/>
      <point x="390.0" y="1124.6" type="line"/>
      <point x="390.0" y="1400.0" type="line"/>
      <point x="120.0" y="1400.0" type="line"/>
    </contour>
    <contour>
      <point x="390.0" y="545.6" type="line"/>
      <point x="390.0" y="893.0" type="line"/>
      <point x="603.2" y="893.0" type="line" smooth="yes"/>
      <point x="696.0" y="893.0"/>
      <point x="772.6" y="815.6"/>
      <point x="772.6" y="719.2" type="curve" smooth="yes"/>
      <point x="772.6" y="623.0"/>
      <point x="696.0" y="545.6"/>
      <point x="603.2" y="545.6" type="curve" smooth="yes"/>
    </contour>
  </outline>
</glyph>
<glyph name="germandbls" format="2">
  <advance width="1164.0"/>
  <unicode hex="00DF"/>
  <outline>
    <contour>
      <point x="120.0" y="0.0" type="line"/>
      <point x="390.0" y="0.0" type="line"/>
      <point x="390.0" y="955.6" type="line" smooth="yes"/>
      <point x="390.0" y="1073.8"/>
      <point x="484.6" y="1168.2"/>
      <point x="602.8" y="1168.2" type="curve" smooth="yes"/>
      <point x="692.6" y="1168.2"/>
      <point x="766.6" y="1091.6"/>
      <point x="766.6" y="998.6" type="curve" smooth="yes"/>
      <point x="766.6" y="905.6"/>
      <point x="692.6" y="841.0"/>
      <point x="602.8" y="828.8" type="curve" smooth="yes"/>
      <point x="578.2" y="825.2" type="line"/>
      <point x="578.2" y="606.0" type="line"/>
      <point x="661.8" y="602.6" type="line" smooth="yes"/>
      <point x="773.6" y="597.2"/>
      <point x="863.8" y="517.6"/>
      <point x="863.8" y="416.2" type="curve" smooth="yes"/>
      <point x="863.8" y="315.0"/>
      <point x="773.6" y="229.8"/>
      <point x="661.8" y="229.8" type="curve" smooth="yes"/>
      <point x="578.2" y="229.8" type="line"/>
      <point x="615.8" y="0.0" type="line"/>
      <point x="689.8" y="0.0" type="line" smooth="yes"/>
      <point x="917.6" y="0.0"/>
      <point x="1104.0" y="169.0"/>
      <point x="1104.0" y="397.0" type="curve" smooth="yes"/>
      <point x="1104.0" y="526.0"/>
      <point x="1074.8" y="704.2"/>
      <point x="900.2" y="730.8" type="curve"/>
      <point x="1004.6" y="780.6"/>
      <point x="1036.6" y="904.2"/>
      <point x="1036.6" y="998.6" type="curve" smooth="yes"/>
      <point x="1036.6" y="1228.6"/>
      <point x="859.6" y="1399.8"/>
      <point x="634.2" y="1399.8" type="curve" smooth="yes"/>
      <point x="349.0" y="1399.8"/>
      <point x="120.0" y="1168.8"/>
      <point x="120.0" y="885.6" type="curve" smooth="yes"/>
    </contour>
  </outline>
</glyph>
<glyph name="ae" format="2">
  <advance width="1829.125"/>
  <unicode hex="00E6"/>
  <outline>
    <contour>
      <point x="498.6" y="-22.8" type="curve" smooth="yes"/>
      <point x="622.8" y="-22.8" type="line" smooth="yes"/>
      <point x="761.0" y="-22.8"/>
      <point x="848.6" y="27.599999999999994"/>
      <point x="926.8" y="124.8" type="curve"/>
      <point x="1014.2" y="33.8"/>
      <point x="1134.8" y="-22.8"/>
      <point x="1269.2" y="-22.8" type="curve" smooth="yes"/>
      <point x="1469.2" y="-22.8"/>
      <point x="1641.2" y="101.2"/>
      <point x="1721.2" y="279.2" type="curve"/>
      <point x="1446.0" y="344.0" type="line"/>
      <point x="1404.6" y="283.8"/>
      <point x="1341.2" y="247.2"/>
      <point x="1269.2" y="247.2" type="curve" smooth="yes"/>
      <point x="1158.2" y="249.0"/>
      <point x="1087.2" y="319.6"/>
      <point x="1060.2" y="413.8" type="curve"/>
      <point x="1760.2" y="413.8" type="line"/>
      <point x="1812.0" y="735.6"/>
      <point x="1583.2" y="1031.2"/>
      <point x="1269.2" y="1031.2" type="curve" smooth="yes"/>
      <point x="1135.0" y="1031.2"/>
      <point x="1014.8" y="974.6"/>
      <point x="928.2" y="882.8" type="curve"/>
      <point x="847.6" y="980.6"/>
      <point x="722.0" y="1031.2"/>
      <point x="549.2" y="1031.2" type="curve" smooth="yes"/>
      <point x="361.2" y="1031.2"/>
      <point x="216.6" y="1005.2"/>
      <point x="123.2" y="844.2" type="curve"/>
      <point x="355.6" y="707.6" type="line"/>
      <point x="379.2" y="747.0"/>
      <point x="416.6" y="785.8"/>
      <point x="549.2" y="785.8" type="curve" smooth="yes"/>
      <point x="684.2" y="785.8"/>
      <point x="756.6" y="719.0"/>
      <point x="772.6" y="613.8" type="curve"/>
      <point x="366.6" y="613.8" type="line" smooth="yes"/>
      <point x="204.0" y="613.8"/>
      <point x="80.0" y="503.8"/>
      <point x="78.8" y="340.8" type="curve" smooth="yes"/>
      <point x="79.2" y="114.8"/>
      <point x="227.6" y="-22.8"/>
    </contour>
    <contour>
      <point x="546.0" y="142.2" type="curve" smooth="yes"/>
      <point x="422.2" y="142.2"/>
      <point x="340.6" y="201.2"/>
      <point x="340.0" y="311.0" type="curve" smooth="yes"/>
      <point x="340.8" y="400.2"/>
      <point x="418.0" y="413.8"/>
      <point x="517.0" y="413.8" type="curve" smooth="yes"/>
      <point x="764.0" y="413.8" type="line"/>
      <point x="764.0" y="349.0" type="line" smooth="yes"/>
      <point x="764.0" y="256.6"/>
      <point x="686.6" y="142.2"/>
    </contour>
    <contour>
      <point x="1049.8" y="613.8" type="line"/>
      <point x="1076.2" y="719.2"/>
      <point x="1164.2" y="796.2"/>
      <point x="1269.2" y="796.2" type="curve" smooth="yes"/>
      <point x="1374.0" y="796.2"/>
      <point x="1461.2" y="718.2"/>
      <point x="1486.8" y="613.8" type="curve"/>
    </contour>
  </outline>
</glyph>
<glyph name="eth" format="2">
  <advance width="1125.75"/>
  <unicode hex="00F0"/>
  <outline>
    <contour>
      <point x="438.6" y="1024.6" type="line"/>
      <point x="874.8" y="1456.2" type="line"/>
      <point x="747.0" y="1585.8" type="line"/>
      <point x="308.8" y="1154.2" type="line"/>
    </contour>
    <component base="partialdiff"/>
  </outline>
</glyph>
<glyph name="divide" format="2">
  <advance width="1160.0"/>
  <unicode hex="00F7"/>
  <outline>
    <contour>
      <point x="80.0" y="465.0" type="line"/>
      <point x="1080.0" y="465.0" type="line"/>
      <point x="1080.0" y="735.0" type="line"/>
      <point x="80.0" y="735.0" type="line"/>
    </contour>
    <contour>
      <point x="580.0" y="1101.8" type="curve"/>
      <point x="500.6" y="1101.8"/>
      <point x="438.8" y="1037.0"/>
      <point x="438.8" y="960.2" type="curve"/>
      <point x="438.8" y="883.0"/>
      <point x="500.6" y="819.0"/>
      <point x="580.0" y="819.0" type="curve"/>
      <point x="657.0" y="819.0"/>
      <point x="721.0" y="883.0"/>
      <point x="721.0" y="960.2" type="curve"/>
      <point x="721.0" y="1037.0"/>
      <point x="657.0" y="1101.8"/>
    </contour>
    <contour>
      <point x="580.0" y="380.8" type="curve"/>
      <point x="500.6" y="380.8"/>
      <point x="438.8" y="316.2"/>
      <point x="438.8" y="239.2" type="curve"/>
      <point x="438.8" y="162.0"/>
      <point x="500.6" y="98.19999999999999"/>
      <point x="580.0" y="98.19999999999999" type="curve"/>
      <point x="657.0" y="98.19999999999999"/>
      <point x="721.6" y="162.0"/>
      <point x="721.6" y="239.2" type="curve"/>
      <point x="721.6" y="316.2"/>
      <point x="657.0" y="380.8"/>
    </contour>
  </outline>
</glyph>
<glyph name="oslash" format="2">
  <advance width="1120.0"/>
  <unicode hex="00F8"/>
  <outline>
    <contour>
      <point x="350.2" y="-80.2" type="line"/>
      <point x="397.8" y="2.799999999999997" type="line"/>
      <point x="448.6" y="-16.0"/>
      <point x="502.2" y="-26.0"/>
      <point x="560.0" y="-26.0" type="curve" smooth="yes"/>
      <point x="836.0" y="-26.0"/>
      <point x="1060.0" y="210.0"/>
      <point x="1060.0" y="500.0" type="curve" smooth="yes"/>
      <point x="1060.0" y="650.6"/>
      <point x="1000.6" y="785.8"/>
      <point x="905.6" y="881.8" type="curve"/>
      <point x="958.6" y="973.8" type="line"/>
      <point x="770.0" y="1082.6" type="line"/>
      <point x="720.6" y="999.6" type="line"/>
      <point x="671.8" y="1018.2"/>
      <point x="616.2" y="1028.0"/>
      <point x="560.0" y="1028.0" type="curve" smooth="yes"/>
      <point x="284.0" y="1028.0"/>
      <point x="60.0" y="792.0"/>
      <point x="60.0" y="500.0" type="curve" smooth="yes"/>
      <point x="60.0" y="351.8"/>
      <point x="119.8" y="216.6"/>
      <point x="214.8" y="120.6" type="curve"/>
      <point x="161.8" y="28.6" type="line"/>
    </contour>
    <contour>
      <point x="348.0" y="347.8" type="line"/>
      <point x="323.6" y="386.2"/>
      <point x="309.0" y="431.6"/>
      <point x="309.0" y="484.2" type="curve" smooth="yes"/>
      <point x="309.0" y="658.8"/>
      <point x="445.8" y="801.8"/>
      <point x="599.6" y="784.8" type="curve"/>
    </contour>
    <contour>
      <point x="520.6" y="217.60000000000002" type="curve"/>
      <point x="772.2" y="654.6" type="line"/>
      <point x="795.0" y="615.8"/>
      <point x="811.0" y="568.6"/>
      <point x="811.0" y="515.8" type="curve" smooth="yes"/>
      <point x="811.0" y="342.2"/>
      <point x="679.2" y="200.0"/>
    </contour>
  </outline>
</glyph>
<glyph name="idotless" format="2">
  <advance width="510.2"/>
  <unicode hex="0131"/>
  <outline>
    <contour>
      <point x="120.0" y="1000.0" type="line"/>
      <point x="120.0" y="0.0" type="line"/>
      <point x="390.0" y="0.0" type="line"/>
      <point x="390.0" y="1000.0" type="line"/>
    </contour>
  </outline>
</glyph>
<glyph name="OE" format="2">
  <advance width="2109.75"/>
  <unicode hex="0152"/>
  <outline>
    <contour>
      <point x="770.0" y="-26.0" type="curve" smooth="yes"/>
      <point x="932.8" y="-26.0"/>
      <point x="1082.0" y="38.2"/>
      <point x="1193.6" y="141.6" type="curve"/>
      <point x="1193.6" y="0.0" type="line"/>
      <point x="2009.8" y="0.0" type="line"/>
      <point x="2009.8" y="270.0" type="line"/>
      <point x="1463.6" y="270.0" type="line"/>
      <point x="1463.6" y="565.0" type="line"/>
      <point x="1913.8" y="565.0" type="line"/>
      <point x="1913.8" y="835.0" type="line"/>
      <point x="1463.6" y="835.0" type="line"/>
      <point x="1463.6" y="1130.0" type="line"/>
      <point x="2009.8" y="1130.0" type="line"/>
      <point x="2009.8" y="1400.0" type="line"/>
      <point x="1193.6" y="1400.0" type="line"/>
      <point x="1193.6" y="1258.6" type="line"/>
      <point x="1082.0" y="1361.8"/>
      <point x="932.8" y="1426.0"/>
      <point x="770.0" y="1426.0" type="curve" smooth="yes"/>
      <point x="390.0" y="1426.0"/>
      <point x="80.0" y="1100.0"/>
      <point x="80.0" y="700.0" type="curve" smooth="yes"/>
      <point x="80.0" y="300.0"/>
      <point x="390.0" y="-26.0"/>
    </contour>
    <contour>
      <point x="770.0" y="244.0" type="curve" smooth="yes"/>
      <point x="539.2" y="244.0"/>
      <point x="350.0" y="449.6"/>
      <point x="350.0" y="700.0" type="curve" smooth="yes"/>
      <point x="350.0" y="949.8"/>
      <point x="538.8" y="1156.0"/>
      <point x="770.0" y="1156.0" type="curve" smooth="yes"/>
      <point x="1000.8" y="1156.0"/>
      <point x="1190.0" y="950.2"/>
      <point x="1190.0" y="700.0" type="curve" smooth="yes"/>
      <point x="1190.0" y="450.2"/>
      <point x="1001.2" y="244.0"/>
    </contour>
  </outline>
</glyph>
<glyph name="oe" format="2">
  <advance width="1849.0"/>
  <unicode hex="0153"/>
  <outline>
    <contour>
      <point x="560.0" y="-26.0" type="curve" smooth="yes"/>
      <point x="706.0" y="-26.0"/>
      <point x="837.6" y="42.8"/>
      <point x="925.0" y="148.6" type="curve"/>
      <point x="1012.6" y="42.8"/>
      <point x="1144.0" y="-26.0"/>
      <point x="1290.0" y="-26.0" type="curve" smooth="yes"/>
      <point x="1490.0" y="-26.0"/>
      <point x="1662.0" y="98.0"/>
      <point x="1742.0" y="276.0" type="curve"/>
      <point x="1466.8" y="340.8" type="line"/>
      <point x="1425.2" y="280.6"/>
      <point x="1362.0" y="244.0"/>
      <point x="1290.0" y="244.0" type="curve" smooth="yes"/>
      <point x="1179.0" y="245.8"/>
      <point x="1108.0" y="316.2"/>
      <point x="1081.0" y="410.6" type="curve"/>
      <point x="1781.0" y="410.6" type="line"/>
      <point x="1832.8" y="732.2"/>
      <point x="1604.0" y="1028.0"/>
      <point x="1290.0" y="1028.0" type="curve" smooth="yes"/>
      <point x="1144.0" y="1028.0"/>
      <point x="1012.6" y="959.2"/>
      <point x="925.0" y="853.2" type="curve"/>
      <point x="837.6" y="959.2"/>
      <point x="706.0" y="1028.0"/>
      <point x="560.0" y="1028.0" type="curve" smooth="yes"/>
      <point x="284.0" y="1028.0"/>
      <point x="60.0" y="792.0"/>
      <point x="60.0" y="500.0" type="curve" smooth="yes"/>
      <point x="60.0" y="210.0"/>
      <point x="284.0" y="-26.0"/>
    </contour>
    <contour>
      <point x="560.0" y="244.0" type="curve" smooth="yes"/>
      <point x="435.6" y="244.0"/>
      <point x="330.0" y="355.6"/>
      <point x="330.0" y="500.0" type="curve" smooth="yes"/>
      <point x="330.0" y="638.2"/>
      <point x="430.8" y="758.0"/>
      <point x="560.0" y="758.0" type="curve" smooth="yes"/>
      <point x="685.6" y="758.0"/>
      <point x="790.0" y="641.8"/>
      <point x="790.0" y="500.0" type="curve" smooth="yes"/>
      <point x="790.0" y="362.0"/>
      <point x="690.8" y="244.0"/>
    </contour>
    <contour>
      <point x="1070.6" y="610.6" type="line"/>
      <point x="1097.0" y="716.0"/>
      <point x="1185.0" y="793.0"/>
      <point x="1290.0" y="793.0" type="curve" smooth="yes"/>
      <point x="1394.8" y="793.0"/>
      <point x="1482.0" y="715.0"/>
      <point x="1507.6" y="610.6" type="curve"/>
    </contour>
  </outline>
</glyph>
<glyph name="caron" format="2">
  <advance width="709.5"/>
  <unicode hex="02C7"/>
  <outline>
    <contour>
      <point x="220.2" y="1166.0" type="line"/>
      <point x="489.6" y="1166.0" type="line"/>
      <point x="589.6" y="1400.0" type="line"/>
      <point x="415.2" y="1400.0" type="line"/>
      <point x="355.8" y="1254.8" type="line"/>
      <point x="294.2" y="1400.0" type="line"/>
      <point x="120.0" y="1400.0" type="line"/>
    </contour>
  </outline>
</glyph>
<glyph name="breve" format="2">
  <advance width="1144.0"/>
  <unicode hex="02D8"/>
  <outline>
    <contour>
      <point x="572.0" y="1128.0" type="curve" smooth="yes"/>
      <point x="755.0" y="1128.0"/>
      <point x="904.0" y="1275.6"/>
      <point x="904.0" y="1460.0" type="curve"/>
      <point x="739.0" y="1460.0" type="line"/>
      <point x="739.0" y="1366.0"/>
      <point x="664.0" y="1293.0"/>
      <point x="572.0" y="1293.0" type="curve" smooth="yes"/>
      <point x="480.8" y="1293.0"/>
      <point x="405.0" y="1368.6"/>
      <point x="405.0" y="1460.0" type="curve"/>
      <point x="240.0" y="1460.0" type="line"/>
      <point x="240.0" y="1278.0"/>
      <point x="390.0" y="1128.0"/>
    </contour>
  </outline>
</glyph>
<glyph name="ogonek" format="2">
  <advance width="1183.0"/>
  <unicode hex="02DB"/>
  <outline>
    <contour>
      <point x="642.8" y="-434.2" type="curve" smooth="yes"/>
      <point x="755.0" y="-434.2" type="line"/>
      <point x="755.0" y="-236.0" type="line"/>
      <point x="639.2" y="-236.0" type="line" smooth="yes"/>
      <point x="549.8" y="-236.0"/>
      <point x="460.2" y="-146.6"/>
      <point x="460.2" y="-58.8" type="curve" smooth="yes"/>
      <point x="460.2" y="62.0" type="line"/>
      <point x="262.0" y="62.0" type="line"/>
      <point x="262.0" y="-55.2" type="line" smooth="yes"/>
      <point x="262.0" y="-264.6"/>
      <point x="431.8" y="-434.2"/>
    </contour>
  </outline>
</glyph>
<glyph name="acutecomb" format="2">
  <unicode hex="0301"/>
  <outline>
    <contour>
      <point x="480.0" y="1138.0" type="line"/>
      <point x="622.6" y="1138.0" type="line"/>
      <point x="830.0" y="1426.0" type="line"/>
      <point x="560.0" y="1426.0" type="line"/>
    </contour>
  </outline>
</glyph>
<glyph name="circumflexcomb" format="2">
  <unicode hex="0302"/>
  <outline>
    <contour>
      <point x="500.2" y="1400.0" type="line"/>
      <point x="400.0" y="1166.0" type="line"/>
      <point x="574.2" y="1166.0" type="line"/>
      <point x="635.8" y="1311.2" type="line"/>
      <point x="695.2" y="1166.0" type="line"/>
      <point x="869.6" y="1166.0" type="line"/>
      <point x="769.6" y="1400.0" type="line"/>
    </contour>
  </outline>
</glyph>
<glyph name="tildecomb" format="2">
  <unicode hex="0303"/>
  <outline>
    <contour>
      <point x="803.2" y="1209.0" type="curve" smooth="yes"/>
      <point x="950.2" y="1209.0"/>
      <point x="1034.2" y="1336.8"/>
      <point x="976.6" y="1512.0" type="curve"/>
      <point x="819.0" y="1460.8" type="line"/>
      <point x="832.8" y="1423.6"/>
      <point x="846.2" y="1377.6"/>
      <point x="807.0" y="1377.6" type="curve" smooth="yes"/>
      <point x="771.8" y="1377.6"/>
      <point x="588.0" y="1520.0"/>
      <point x="491.2" y="1520.0" type="curve" smooth="yes"/>
      <point x="335.8" y="1520.0"/>
      <point x="262.2" y="1388.6"/>
      <point x="320.0" y="1222.6" type="curve"/>
      <point x="474.2" y="1264.8" type="line"/>
      <point x="462.0" y="1306.8"/>
      <point x="461.8" y="1328.8"/>
      <point x="474.8" y="1349.8" type="curve" smooth="yes"/>
      <point x="500.2" y="1390.0"/>
      <point x="701.8" y="1209.0"/>
    </contour>
  </outline>
</glyph>
<glyph name="dotaccentcomb" format="2">
  <unicode hex="0307"/>
  <outline>
    <contour>
      <point x="538.8" y="1137.2" type="curve" smooth="yes"/>
      <point x="615.2" y="1137.2"/>
      <point x="675.6" y="1195.6"/>
      <point x="675.6" y="1274.0" type="curve" smooth="yes"/>
      <point x="675.6" y="1350.8"/>
      <point x="615.2" y="1410.8"/>
      <point x="538.8" y="1410.8" type="curve" smooth="yes"/>
      <point x="460.2" y="1410.8"/>
      <point x="400.0" y="1350.8"/>
      <point x="400.0" y="1274.0" type="curve" smooth="yes"/>
      <point x="400.0" y="1195.6"/>
      <point x="460.2" y="1137.2"/>
    </contour>
  </outline>
</glyph>
<glyph name="dieresiscomb" format="2">
  <unicode hex="0308"/>
  <outline>
    <contour>
      <point x="539.0" y="1137.2" type="curve" smooth="yes"/>
      <point x="615.6" y="1137.2"/>
      <point x="676.0" y="1195.6"/>
      <point x="676.0" y="1274.0" type="curve" smooth="yes"/>
      <point x="676.0" y="1350.6"/>
      <point x="615.6" y="1411.0"/>
      <point x="539.0" y="1411.0" type="curve" smooth="yes"/>
      <point x="460.6" y="1411.0"/>
      <point x="400.0" y="1350.6"/>
      <point x="400.0" y="1274.0" type="curve" smooth="yes"/>
      <point x="400.0" y="1195.6"/>
      <point x="460.6" y="1137.2"/>
    </contour>
    <contour>
      <point x="955.6" y="1137.2" type="curve" smooth="yes"/>
      <point x="1032.0" y="1137.2"/>
      <point x="1092.6" y="1195.6"/>
      <point x="1092.6" y="1274.0" type="curve" smooth="yes"/>
      <point x="1092.6" y="1350.6"/>
      <point x="1032.0" y="1411.0"/>
      <point x="955.6" y="1411.0" type="curve" smooth="yes"/>
      <point x="877.0" y="1411.0"/>
      <point x="816.6" y="1350.6"/>
      <point x="816.6" y="1274.0" type="curve" smooth="yes"/>
      <point x="816.6" y="1195.6"/>
      <point x="877.0" y="1137.2"/>
    </contour>
  </outline>
</glyph>
<glyph name="ringcomb" format="2">
  <unicode hex="030A"/>
  <outline>
    <contour>
      <point x="592.2" y="1089.6" type="curve" smooth="yes"/>
      <point x="698.0" y="1089.6"/>
      <point x="784.6" y="1176.0"/>
      <point x="784.6" y="1283.8" type="curve" smooth="yes"/>
      <point x="784.6" y="1387.6"/>
      <point x="698.0" y="1474.2"/>
      <point x="592.2" y="1474.2" type="curve" smooth="yes"/>
      <point x="486.6" y="1474.2"/>
      <point x="400.0" y="1387.6"/>
      <point x="400.0" y="1283.8" type="curve" smooth="yes"/>
      <point x="400.0" y="1178.0"/>
      <point x="486.6" y="1089.6"/>
    </contour>
    <contour>
      <point x="592.2" y="1191.8" type="curve" smooth="yes"/>
      <point x="542.2" y="1191.8"/>
      <point x="502.2" y="1231.8"/>
      <point x="502.2" y="1283.8" type="curve" smooth="yes"/>
      <point x="502.2" y="1331.8"/>
      <point x="542.2" y="1371.8"/>
      <point x="592.2" y="1371.8" type="curve" smooth="yes"/>
      <point x="642.2" y="1371.8"/>
      <point x="682.2" y="1331.8"/>
      <point x="682.2" y="1283.8" type="curve" smooth="yes"/>
      <point x="682.2" y="1231.8"/>
      <point x="642.2" y="1191.8"/>
    </contour>
  </outline>
</glyph>
<glyph name="cedillacomb" format="2">
  <unicode hex="0327"/>
  <outline>
    <contour>
      <point x="400.0" y="-306.0" type="line"/>
      <point x="512.2" y="-306.0" type="line" smooth="yes"/>
      <point x="723.2" y="-306.0"/>
      <point x="893.0" y="-136.2"/>
      <point x="893.0" y="73.0" type="curve" smooth="yes"/>
      <point x="893.0" y="185.2" type="line"/>
      <point x="694.8" y="185.2" type="line"/>
      <point x="694.8" y="69.6" type="line" smooth="yes"/>
      <point x="694.8" y="-18.199999999999996"/>
      <point x="605.2" y="-107.8"/>
      <point x="515.8" y="-107.8" type="curve" smooth="yes"/>
      <point x="400.0" y="-107.8" type="line"/>
    </contour>
  </outline>
</glyph>
<glyph name="mu" format="2">
  <advance width="1153.75"/>
  <unicode hex="03BC"/>
  <outline>
    <contour>
      <point x="80.0" y="-432.0" type="line"/>
      <point x="350.0" y="-432.0" type="line"/>
      <point x="350.0" y="26.0" type="line"/>
      <point x="402.8" y="-7.0"/>
      <point x="466.2" y="-27.8"/>
      <point x="538.6" y="-27.8" type="curve" smooth="yes"/>
      <point x="651.6" y="-27.8"/>
      <point x="739.2" y="26.799999999999997"/>
      <point x="803.8" y="106.19999999999999" type="curve"/>
      <point x="803.8" y="0.0" type="line"/>
      <point x="1073.8" y="0.0" type="line"/>
      <point x="1073.8" y="1000.0" type="line"/>
      <point x="803.8" y="1000.0" type="line"/>
      <point x="803.8" y="494.0" type="line" smooth="yes"/>
      <point x="803.8" y="349.8"/>
      <point x="724.0" y="233.60000000000002"/>
      <point x="585.8" y="233.60000000000002" type="curve" smooth="yes"/>
      <point x="445.6" y="233.60000000000002"/>
      <point x="350.0" y="349.8"/>
      <point x="350.0" y="494.0" type="curve" smooth="yes"/>
      <point x="350.0" y="1000.0" type="line"/>
      <point x="80.0" y="1000.0" type="line"/>
    </contour>
  </outline>
</glyph>
<glyph name="Germandbls" format="2">
  <advance width="1224.0"/>
  <unicode hex="1E9E"/>
  <outline>
    <contour>
      <point x="120.0" y="0.0" type="line"/>
      <point x="390.0" y="0.0" type="line"/>
      <point x="390.0" y="955.6" type="line" smooth="yes"/>
      <point x="390.0" y="1073.8"/>
      <point x="486.0" y="1168.2"/>
      <point x="585.0" y="1168.2" type="curve" smooth="yes"/>
      <point x="679.0" y="1168.2"/>
      <point x="763.8" y="1164.8"/>
      <point x="764.0" y="1083.8" type="curve" smooth="yes"/>
      <point x="764.2" y="1039.0"/>
      <point x="580.0" y="845.0"/>
      <point x="581.0" y="702.8" type="curve" smooth="yes"/>
      <point x="581.6" y="602.6" type="line"/>
      <point x="661.6" y="602.6" type="line" smooth="yes"/>
      <point x="773.2" y="602.6"/>
      <point x="923.8" y="557.6"/>
      <point x="923.8" y="416.6" type="curve" smooth="yes"/>
      <point x="923.8" y="275.0"/>
      <point x="773.6" y="229.8"/>
      <point x="661.8" y="229.8" type="curve" smooth="yes"/>
      <point x="578.2" y="229.8" type="line"/>
      <point x="633.2" y="0.0" type="line"/>
      <point x="689.8" y="0.0" type="line" smooth="yes"/>
      <point x="917.6" y="0.0"/>
      <point x="1164.0" y="146.6"/>
      <point x="1164.0" y="414.6" type="curve" smooth="yes"/>
      <point x="1164.0" y="586.2"/>
      <point x="984.0" y="766.2"/>
      <point x="803.2" y="732.2" type="curve"/>
      <point x="952.2" y="916.8"/>
      <point x="1035.2" y="984.2"/>
      <point x="1035.2" y="1078.6" type="curve" smooth="yes"/>
      <point x="1035.2" y="1257.0"/>
      <point x="840.2" y="1399.8"/>
      <point x="634.6" y="1399.8" type="curve" smooth="yes"/>
      <point x="351.0" y="1399.8"/>
      <point x="120.0" y="1168.8"/>
      <point x="120.0" y="885.2" type="curve" smooth="yes"/>
    </contour>
  </outline>
</glyph>
<glyph name="quoteleft" format="2">
  <advance width="432.0"/>
  <unicode hex="2018"/>
  <unicode hex="02BB"/>
  <outline>
    <contour>
      <point x="60.0" y="878.0" type="line"/>
      <point x="330.0" y="878.0" type="line"/>
      <point x="392.0" y="1400.0" type="line"/>
      <point x="212.0" y="1400.0" type="line"/>
    </contour>
  </outline>
</glyph>
<glyph name="dagger" format="2">
  <advance width="876.0"/>
  <unicode hex="2020"/>
  <outline>
    <contour>
      <point x="80.0" y="1017.6" type="line"/>
      <point x="303.0" y="1017.6" type="line"/>
      <point x="303.0" y="565.0" type="line"/>
      <point x="573.0" y="565.0" type="line"/>
      <point x="573.0" y="1017.6" type="line"/>
      <point x="796.0" y="1017.6" type="line"/>
      <point x="796.0" y="1287.6" type="line"/>
      <point x="573.0" y="1287.6" type="line"/>
      <point x="573.0" y="1500.0" type="line"/>
      <point x="303.0" y="1500.0" type="line"/>
      <point x="303.0" y="1287.6" type="line"/>
      <point x="80.0" y="1287.6" type="line"/>
    </contour>
  </outline>
</glyph>
<glyph name="daggerdbl" format="2">
  <advance width="876.0"/>
  <unicode hex="2021"/>
  <outline>
    <contour>
      <point x="80.0" y="717.0" type="line"/>
      <point x="303.0" y="717.0" type="line"/>
      <point x="303.0" y="560.0" type="line"/>
      <point x="573.0" y="560.0" type="line"/>
      <point x="573.0" y="717.0" type="line"/>
      <point x="796.0" y="717.0" type="line"/>
      <point x="796.0" y="985.0" type="line"/>
      <point x="573.0" y="985.0" type="line"/>
      <point x="573.0" y="1105.0" type="line"/>
      <point x="796.0" y="1105.0" type="line"/>
      <point x="796.0" y="1375.0" type="line"/>
      <point x="573.0" y="1375.0" type="line"/>
      <point x="573.0" y="1500.0" type="line"/>
      <point x="303.0" y="1500.0" type="line"/>
      <point x="303.0" y="1375.0" type="line"/>
      <point x="80.0" y="1375.0" type="line"/>
      <point x="80.0" y="1105.0" type="line"/>
      <point x="303.0" y="1105.0" type="line"/>
      <point x="303.0" y="985.0" type="line"/>
      <point x="80.0" y="985.0" type="line"/>
    </contour>
  </outline>
</glyph>
<glyph name="bullet" format="2">
  <advance width="525.0"/>
  <unicode hex="2022"/>
  <outline>
    <contour>
      <point x="262.2" y="417.6" type="curve" smooth="yes"/>
      <point x="363.0" y="417.6"/>
      <point x="445.0" y="497.8"/>
      <point x="445.0" y="600.2" type="curve" smooth="yes"/>
      <point x="445.0" y="700.6"/>
      <point x="363.0" y="782.6"/>
      <point x="262.2" y="782.6" type="curve" smooth="yes"/>
      <point x="160.2" y="782.6"/>
      <point x="80.0" y="700.6"/>
      <point x="80.0" y="600.2" type="curve" smooth="yes"/>
      <point x="80.0" y="497.8"/>
      <point x="160.2" y="417.6"/>
    </contour>
  </outline>
</glyph>
<glyph name="perthousand" format="2">
  <advance width="2246.0"/>
  <unicode hex="2030"/>
  <outline>
    <contour>
      <point x="222.6" y="0.0" type="line"/>
      <point x="534.0" y="0.0" type="line"/>
      <point x="1342.0" y="1400.0" type="line"/>
      <point x="1030.6" y="1400.0" type="line"/>
    </contour>
    <contour>
      <point x="396.2" y="777.6" type="curve"/>
      <point x="563.6" y="777.6"/>
      <point x="710.8" y="912.6"/>
      <point x="710.8" y="1092.0" type="curve"/>
      <point x="710.8" y="1266.2"/>
      <point x="568.8" y="1406.8"/>
      <point x="396.2" y="1406.8" type="curve"/>
      <point x="227.2" y="1406.8"/>
      <point x="80.0" y="1273.2"/>
      <point x="80.0" y="1092.0" type="curve"/>
      <point x="80.0" y="916.0"/>
      <point x="223.8" y="777.6"/>
    </contour>
    <contour>
      <point x="396.2" y="960.0" type="curve"/>
      <point x="322.2" y="960.0"/>
      <point x="262.6" y="1018.2"/>
      <point x="262.6" y="1092.0" type="curve"/>
      <point x="262.6" y="1166.0"/>
      <point x="322.2" y="1224.2"/>
      <point x="396.2" y="1224.2" type="curve"/>
      <point x="468.6" y="1224.2"/>
      <point x="528.2" y="1166.0"/>
      <point x="528.2" y="1092.0" type="curve"/>
      <point x="528.2" y="1018.2"/>
      <point x="468.6" y="960.0"/>
    </contour>
    <contour>
      <point x="1161.0" y="-8.400000000000006" type="curve"/>
      <point x="1335.2" y="-8.400000000000006"/>
      <point x="1477.2" y="133.8"/>
      <point x="1477.2" y="306.2" type="curve"/>
      <point x="1477.2" y="473.6"/>
      <point x="1342.2" y="622.6"/>
      <point x="1161.0" y="622.6" type="curve"/>
      <point x="993.8" y="622.6"/>
      <point x="846.2" y="485.8"/>
      <point x="846.2" y="306.2" type="curve"/>
      <point x="846.2" y="140.8"/>
      <point x="985.0" y="-8.400000000000006"/>
    </contour>
    <contour>
      <point x="1161.0" y="174.0" type="curve"/>
      <point x="1088.8" y="174.0"/>
      <point x="1028.8" y="234.0"/>
      <point x="1028.8" y="306.2" type="curve"/>
      <point x="1028.8" y="380.0"/>
      <point x="1088.8" y="440.0"/>
      <point x="1161.0" y="440.0" type="curve"/>
      <point x="1234.8" y="440.0"/>
      <point x="1294.8" y="380.0"/>
      <point x="1294.8" y="306.2" type="curve"/>
      <point x="1294.8" y="234.0"/>
      <point x="1234.8" y="174.0"/>
    </contour>
    <contour>
      <point x="1849.8" y="-8.400000000000006" type="curve"/>
      <point x="2024.0" y="-8.400000000000006"/>
      <point x="2166.0" y="133.8"/>
      <point x="2166.0" y="306.2" type="curve"/>
      <point x="2166.0" y="473.6"/>
      <point x="2031.0" y="622.6"/>
      <point x="1849.8" y="622.6" type="curve"/>
      <point x="1682.6" y="622.6"/>
      <point x="1535.0" y="485.8"/>
      <point x="1535.0" y="306.2" type="curve"/>
      <point x="1535.0" y="140.8"/>
      <point x="1673.8" y="-8.400000000000006"/>
    </contour>
    <contour>
      <point x="1849.8" y="174.0" type="curve"/>
      <point x="1777.6" y="174.0"/>
      <point x="1717.6" y="234.0"/>
      <point x="1717.6" y="306.2" type="curve"/>
      <point x="1717.6" y="380.0"/>
      <point x="1777.6" y="440.0"/>
      <point x="1849.8" y="440.0" type="curve"/>
      <point x="1923.6" y="440.0"/>
      <point x="1983.6" y="380.0"/>
      <point x="1983.6" y="306.2" type="curve"/>
      <point x="1983.6" y="234.0"/>
      <point x="1923.6" y="174.0"/>
    </contour>
  </outline>
</glyph>
<glyph name="guilsinglleft" format="2">
  <advance width="792.5"/>
  <unicode hex="2039"/>
  <outline>
    <contour>
      <point x="420.0" y="261.0" type="line"/>
      <point x="692.6" y="261.0" type="line"/>
      <point x="394.2" y="601.0" type="line"/>
      <point x="692.6" y="939.0" type="line"/>
      <point x="420.0" y="939.0" type="line"/>
      <point x="120.0" y="601.0" type="line"/>
    </contour>
  </outline>
</glyph>
<glyph name="guilsinglright" format="2">
  <advance width="792.5"/>
  <unicode hex="203A"/>
  <outline>
    <contour>
      <point x="100.0" y="261.0" type="line"/>
      <point x="372.6" y="261.0" type="line"/>
      <point x="672.6" y="601.0" type="line"/>
      <point x="372.6" y="939.0" type="line"/>
      <point x="100.0" y="939.0" type="line"/>
      <point x="398.2" y="601.0" type="line"/>
    </contour>
  </outline>
</glyph>
<glyph name="fraction" format="2">
  <advance width="1028.5"/>
  <unicode hex="2044"/>
  <unicode hex="2215"/>
  <outline>
    <contour>
      <point x="0.0" y="0.0" type="line"/>
      <point x="220.60000000000002" y="0.0" type="line"/>
      <point x="1028.6" y="1400.0" type="line"/>
      <point x="808.0" y="1400.0" type="line"/>
    </contour>
  </outline>
</glyph>
<glyph name="zerosuperior" format="2">
  <advance width="648.0"/>
  <unicode hex="2070"/>
  <outline>
    <contour>
      <point x="324.0" y="798.0" type="curve"/>
      <point x="463.0" y="798.0"/>
      <point x="576.0" y="941.8"/>
      <point x="576.0" y="1133.8" type="curve"/>
      <point x="576.0" y="1324.0"/>
      <point x="463.0" y="1468.0"/>
      <point x="324.0" y="1468.0" type="curve"/>
      <point x="185.0" y="1468.0"/>
      <point x="72.0" y="1324.0"/>
      <point x="72.0" y="1133.8" type="curve"/>
      <point x="72.0" y="941.8"/>
      <point x="185.0" y="798.0"/>
    </contour>
    <contour>
      <point x="324.0" y="943.6" type="curve"/>
      <point x="262.6" y="943.6"/>
      <point x="228.0" y="1047.8"/>
      <point x="228.0" y="1133.8" type="curve"/>
      <point x="228.0" y="1211.2"/>
      <point x="257.8" y="1322.6"/>
      <point x="324.0" y="1322.6" type="curve"/>
      <point x="383.6" y="1322.6"/>
      <point x="420.0" y="1216.6"/>
      <point x="420.0" y="1133.8" type="curve"/>
      <point x="420.0" y="1061.8"/>
      <point x="385.8" y="943.6"/>
    </contour>
  </outline>
</glyph>
<glyph name="foursuperior" format="2">
  <advance width="693.25"/>
  <unicode hex="2074"/>
  <outline>
    <contour>
      <point x="337.0" y="818.0" type="line"/>
      <point x="493.0" y="818.0" type="line"/>
      <point x="493.0" y="910.6" type="line"/>
      <point x="549.2" y="910.6" type="line"/>
      <point x="549.2" y="1066.6" type="line"/>
      <point x="493.0" y="1066.6" type="line"/>
      <point x="493.0" y="1449.0" type="line"/>
      <point x="318.8" y="1449.0" type="line"/>
      <point x="96.0" y="1098.2" type="line"/>
      <point x="96.0" y="910.6" type="line"/>
      <point x="337.0" y="910.6" type="line"/>
    </contour>
    <contour>
      <point x="248.2" y="1066.6" type="line"/>
      <point x="351.8" y="1231.4" type="line"/>
      <point x="351.8" y="1066.6" type="line"/>
    </contour>
  </outline>
</glyph>
<glyph name="fivesuperior" format="2">
  <advance width="701.5"/>
  <unicode hex="2075"/>
  <outline>
    <contour>
      <point x="319.8" y="798.0" type="curve" smooth="yes"/>
      <point x="450.6" y="798.0"/>
      <point x="557.6" y="891.2"/>
      <point x="557.6" y="1021.8" type="curve" smooth="yes"/>
      <point x="557.6" y="1162.8"/>
      <point x="453.6" y="1260.0"/>
      <point x="290.4" y="1256.6" type="curve"/>
      <point x="291.8" y="1314.0" type="line"/>
      <point x="491.8" y="1314.0" type="line"/>
      <point x="491.8" y="1449.0" type="line"/>
      <point x="149.8" y="1449.0" type="line"/>
      <point x="116.6" y="1090.2" type="line"/>
      <point x="183.6" y="1100.6"/>
      <point x="281.2" y="1105.0"/>
      <point x="319.8" y="1101.6" type="curve" smooth="yes"/>
      <point x="365.0" y="1097.2"/>
      <point x="401.6" y="1065.4"/>
      <point x="401.6" y="1021.8" type="curve" smooth="yes"/>
      <point x="401.6" y="978.6"/>
      <point x="365.0" y="943.6"/>
      <point x="319.8" y="943.6" type="curve" smooth="yes"/>
      <point x="275.6" y="943.6"/>
      <point x="240.0" y="978.6"/>
      <point x="240.0" y="1021.8" type="curve"/>
      <point x="84.0" y="1021.8" type="line"/>
      <point x="84.0" y="891.2"/>
      <point x="190.8" y="798.0"/>
    </contour>
  </outline>
</glyph>
<glyph name="sixsuperior" format="2">
  <advance width="706.0"/>
  <unicode hex="2076"/>
  <outline>
    <contour>
      <point x="329.0" y="798.0" type="curve" smooth="yes"/>
      <point x="455.4" y="798.0"/>
      <point x="562.0" y="886.4"/>
      <point x="562.0" y="1017.2" type="curve" smooth="yes"/>
      <point x="562.0" y="1126.8"/>
      <point x="492.4" y="1215.6"/>
      <point x="370.2" y="1245.0" type="curve"/>
      <point x="488.0" y="1446.0" type="line"/>
      <point x="306.8" y="1446.0" type="line"/>
      <point x="115.6" y="1115.6"/>
      <point x="96.0" y="1091.8"/>
      <point x="96.0" y="1019.0" type="curve" smooth="yes"/>
      <point x="96.0" y="888.2"/>
      <point x="198.2" y="798.0"/>
    </contour>
    <contour>
      <point x="329.0" y="943.6" type="curve" smooth="yes"/>
      <point x="296.8" y="943.6"/>
      <point x="260.8" y="959.8"/>
      <point x="253.8" y="1003.8" type="curve" smooth="yes"/>
      <point x="245.8" y="1045.0"/>
      <point x="273.2" y="1094.2"/>
      <point x="329.0" y="1094.2" type="curve" smooth="yes"/>
      <point x="366.0" y="1094.2"/>
      <point x="397.2" y="1069.0"/>
      <point x="403.4" y="1032.2" type="curve" smooth="yes"/>
      <point x="412.2" y="985.2"/>
      <point x="376.0" y="943.6"/>
    </contour>
  </outline>
</glyph>
<glyph name="sevensuperior" format="2">
  <advance width="676.75"/>
  <unicode hex="2077"/>
  <outline>
    <contour>
      <point x="153.6" y="818.0" type="line"/>
      <point x="332.0" y="818.0" type="line"/>
      <point x="604.8" y="1294.8" type="line"/>
      <point x="604.8" y="1446.4" type="line"/>
      <point x="120.0" y="1446.4" type="line"/>
      <point x="120.0" y="1290.4" type="line"/>
      <point x="424.6" y="1290.4" type="line"/>
    </contour>
  </outline>
</glyph>
<glyph name="eightsuperior" format="2">
  <advance width="630.625"/>
  <unicode hex="2078"/>
  <outline>
    <contour>
      <point x="314.2" y="798.0" type="curve" smooth="yes"/>
      <point x="437.6" y="798.0"/>
      <point x="534.6" y="881.2"/>
      <point x="534.6" y="1002.6" type="curve" smooth="yes"/>
      <point x="534.6" y="1059.4"/>
      <point x="513.6" y="1110.6"/>
      <point x="479.8" y="1149.2" type="curve"/>
      <point x="506.2" y="1182.4"/>
      <point x="522.0" y="1227.6"/>
      <point x="522.0" y="1272.2" type="curve" smooth="yes"/>
      <point x="522.0" y="1387.6"/>
      <point x="427.8" y="1469.8"/>
      <point x="314.2" y="1469.8" type="curve" smooth="yes"/>
      <point x="201.0" y="1469.8"/>
      <point x="108.6" y="1387.6"/>
      <point x="108.6" y="1272.2" type="curve" smooth="yes"/>
      <point x="108.6" y="1227.6"/>
      <point x="124.6" y="1182.4"/>
      <point x="150.8" y="1149.2" type="curve"/>
      <point x="117.2" y="1110.6"/>
      <point x="96.0" y="1059.4"/>
      <point x="96.0" y="1002.6" type="curve" smooth="yes"/>
      <point x="96.0" y="881.2"/>
      <point x="193.2" y="798.0"/>
    </contour>
    <contour>
      <point x="314.2" y="941.8" type="curve" smooth="yes"/>
      <point x="280.2" y="941.8"/>
      <point x="252.0" y="968.6"/>
      <point x="252.0" y="1002.6" type="curve" smooth="yes"/>
      <point x="252.0" y="1038.4"/>
      <point x="280.2" y="1066.6"/>
      <point x="314.2" y="1066.6" type="curve" smooth="yes"/>
      <point x="350.4" y="1066.6"/>
      <point x="378.6" y="1038.4"/>
      <point x="378.6" y="1002.6" type="curve" smooth="yes"/>
      <point x="378.6" y="968.6"/>
      <point x="350.4" y="941.8"/>
    </contour>
    <contour>
      <point x="314.2" y="1222.6" type="curve" smooth="yes"/>
      <point x="287.6" y="1222.6"/>
      <point x="264.6" y="1245.6"/>
      <point x="264.6" y="1272.2" type="curve" smooth="yes"/>
      <point x="264.6" y="1301.2"/>
      <point x="287.6" y="1322.6"/>
      <point x="314.2" y="1322.6" type="curve" smooth="yes"/>
      <point x="343.2" y="1322.6"/>
      <point x="366.0" y="1301.2"/>
      <point x="366.0" y="1272.2" type="curve" smooth="yes"/>
      <point x="366.0" y="1245.6"/>
      <point x="343.2" y="1222.6"/>
    </contour>
  </outline>
</glyph>
<glyph name="ninesuperior" format="2">
  <advance width="658.125"/>
  <unicode hex="2079"/>
  <outline>
    <contour>
      <point x="144.2" y="818.0" type="line"/>
      <point x="324.2" y="818.0" type="line"/>
      <point x="505.6" y="1130.8" type="line"/>
      <point x="524.8" y="1164.4"/>
      <point x="533.8" y="1198.8"/>
      <point x="534.2" y="1232.6" type="curve" smooth="yes"/>
      <point x="545.6" y="1359.6"/>
      <point x="444.6" y="1468.0"/>
      <point x="305.2" y="1468.0" type="curve" smooth="yes"/>
      <point x="181.6" y="1468.0"/>
      <point x="81.4" y="1382.2"/>
      <point x="76.0" y="1261.4" type="curve" smooth="yes"/>
      <point x="63.2" y="1151.2"/>
      <point x="140.2" y="1038.4"/>
      <point x="261.2" y="1022.0" type="curve"/>
    </contour>
    <contour>
      <point x="305.2" y="1170.0" type="curve" smooth="yes"/>
      <point x="276.0" y="1170.0"/>
      <point x="231.4" y="1188.6"/>
      <point x="228.8" y="1240.2" type="curve" smooth="yes"/>
      <point x="225.8" y="1280.2"/>
      <point x="254.6" y="1322.6"/>
      <point x="305.2" y="1322.6" type="curve" smooth="yes"/>
      <point x="340.4" y="1322.6"/>
      <point x="378.8" y="1291.6"/>
      <point x="381.6" y="1254.8" type="curve" smooth="yes"/>
      <point x="384.6" y="1210.0"/>
      <point x="349.6" y="1170.0"/>
    </contour>
  </outline>
</glyph>
<glyph name="zeroinferior" format="2">
  <advance width="648.0"/>
  <unicode hex="2080"/>
  <outline>
    <contour>
      <point x="324.0" y="-31.0" type="curve"/>
      <point x="463.0" y="-31.0"/>
      <point x="576.0" y="123.0"/>
      <point x="576.0" y="315.0" type="curve"/>
      <point x="576.0" y="504.4"/>
      <point x="463.0" y="658.8"/>
      <point x="324.0" y="658.8" type="curve"/>
      <point x="185.0" y="658.8"/>
      <point x="72.0" y="504.4"/>
      <point x="72.0" y="315.0" type="curve"/>
      <point x="72.0" y="123.0"/>
      <point x="185.0" y="-31.0"/>
    </contour>
    <contour>
      <point x="324.0" y="125.0" type="curve"/>
      <point x="262.6" y="125.0"/>
      <point x="228.0" y="229.2"/>
      <point x="228.0" y="315.0" type="curve"/>
      <point x="228.0" y="391.6"/>
      <point x="257.8" y="502.8"/>
      <point x="324.0" y="502.8" type="curve"/>
      <point x="383.6" y="502.8"/>
      <point x="420.0" y="396.8"/>
      <point x="420.0" y="315.0" type="curve"/>
      <point x="420.0" y="242.2"/>
      <point x="385.8" y="125.0"/>
    </contour>
  </outline>
</glyph>
<glyph name="oneinferior" format="2">
  <advance width="457.875"/>
  <unicode hex="2081"/>
  <outline>
    <contour>
      <point x="157.8" y="0.0" type="line"/>
      <point x="313.8" y="0.0" type="line"/>
      <point x="313.8" y="631.0" type="line"/>
      <point x="118.2" y="631.0" type="line"/>
      <point x="96.0" y="475.0" type="line"/>
      <point x="157.8" y="475.0" type="line"/>
    </contour>
  </outline>
</glyph>
<glyph name="twoinferior" format="2">
  <advance width="719.875"/>
  <unicode hex="2082"/>
  <outline>
    <contour>
      <point x="96.0" y="0.0" type="line"/>
      <point x="565.4" y="0.0" type="line"/>
      <point x="565.4" y="156.0" type="line"/>
      <point x="379.8" y="156.0" type="line"/>
      <point x="471.4" y="233.8"/>
      <point x="575.8" y="315.6"/>
      <point x="575.8" y="421.6" type="curve"/>
      <point x="575.8" y="553.6"/>
      <point x="469.4" y="660.6"/>
      <point x="337.4" y="660.6" type="curve"/>
      <point x="204.2" y="660.6"/>
      <point x="96.0" y="553.6"/>
      <point x="96.0" y="421.6" type="curve"/>
      <point x="252.0" y="421.6" type="line"/>
      <point x="252.0" y="469.2"/>
      <point x="289.8" y="504.6"/>
      <point x="337.4" y="504.6" type="curve"/>
      <point x="383.2" y="504.6"/>
      <point x="419.8" y="469.2"/>
      <point x="419.8" y="421.6" type="curve"/>
      <point x="356.8" y="287.2"/>
      <point x="208.8" y="215.2"/>
      <point x="96.0" y="137.0" type="curve"/>
    </contour>
  </outline>
</glyph>
<glyph name="threeinferior" format="2">
  <advance width="582.0"/>
  <unicode hex="2083"/>
  <outline>
    <contour>
      <point x="292.0" y="-31.0" type="curve" smooth="yes"/>
      <point x="410.6" y="-31.0"/>
      <point x="510.0" y="67.0"/>
      <point x="510.0" y="187.6" type="curve" smooth="yes"/>
      <point x="510.0" y="241.6"/>
      <point x="491.2" y="292.6"/>
      <point x="452.2" y="332.6" type="curve"/>
      <point x="478.0" y="366.4"/>
      <point x="492.8" y="409.2"/>
      <point x="492.8" y="455.6" type="curve" smooth="yes"/>
      <point x="492.8" y="568.6"/>
      <point x="401.2" y="658.8"/>
      <point x="287.0" y="658.8" type="curve" smooth="yes"/>
      <point x="173.8" y="658.8"/>
      <point x="82.2" y="568.6"/>
      <point x="82.2" y="455.6" type="curve"/>
      <point x="238.2" y="455.6" type="line"/>
      <point x="238.2" y="481.4"/>
      <point x="261.2" y="502.8"/>
      <point x="287.0" y="502.8" type="curve" smooth="yes"/>
      <point x="313.8" y="502.8"/>
      <point x="336.8" y="481.4"/>
      <point x="336.8" y="455.6" type="curve" smooth="yes"/>
      <point x="336.8" y="421.2"/>
      <point x="315.2" y="378.6"/>
      <point x="237.4" y="378.6" type="curve"/>
      <point x="237.4" y="276.8" type="line"/>
      <point x="315.0" y="276.8"/>
      <point x="354.0" y="230.6"/>
      <point x="354.0" y="187.6" type="curve" smooth="yes"/>
      <point x="354.0" y="151.6"/>
      <point x="326.2" y="125.0"/>
      <point x="292.0" y="125.0" type="curve" smooth="yes"/>
      <point x="255.8" y="125.0"/>
      <point x="228.0" y="151.6"/>
      <point x="228.0" y="187.6" type="curve"/>
      <point x="72.0" y="187.6" type="line"/>
      <point x="72.0" y="67.0"/>
      <point x="171.6" y="-31.0"/>
    </contour>
  </outline>
</glyph>
<glyph name="fourinferior" format="2">
  <advance width="693.25"/>
  <unicode hex="2084"/>
  <outline>
    <contour>
      <point x="337.0" y="0.0" type="line"/>
      <point x="493.0" y="0.0" type="line"/>
      <point x="493.0" y="92.6" type="line"/>
      <point x="549.2" y="92.6" type="line"/>
      <point x="549.2" y="248.6" type="line"/>
      <point x="493.0" y="248.6" type="line"/>
      <point x="493.0" y="631.0" type="line"/>
      <point x="318.8" y="631.0" type="line"/>
      <point x="96.0" y="280.2" type="line"/>
      <point x="96.0" y="92.6" type="line"/>
      <point x="337.0" y="92.6" type="line"/>
    </contour>
    <contour>
      <point x="248.2" y="248.6" type="line"/>
      <point x="351.8" y="413.4" type="line"/>
      <point x="351.8" y="248.6" type="line"/>
    </contour>
  </outline>
</glyph>
<glyph name="fiveinferior" format="2">
  <advance width="701.5"/>
  <unicode hex="2085"/>
  <outline>
    <contour>
      <point x="319.8" y="-31.0" type="curve"/>
      <point x="450.6" y="-31.0"/>
      <point x="557.6" y="71.6"/>
      <point x="557.6" y="202.6" type="curve"/>
      <point x="557.6" y="335.6"/>
      <point x="475.2" y="438.0"/>
      <point x="323.4" y="438.0" type="curve"/>
      <point x="290.4" y="437.2" type="line"/>
      <point x="291.8" y="492.6" type="line"/>
      <point x="491.8" y="492.6" type="line"/>
      <point x="491.8" y="629.2" type="line"/>
      <point x="149.8" y="629.2" type="line"/>
      <point x="114.8" y="277.8" type="line"/>
      <point x="319.8" y="282.0" type="line"/>
      <point x="365.0" y="282.0"/>
      <point x="401.6" y="246.8"/>
      <point x="401.6" y="202.6" type="curve"/>
      <point x="401.6" y="159.0"/>
      <point x="365.0" y="125.0"/>
      <point x="319.8" y="125.0" type="curve"/>
      <point x="275.6" y="125.0"/>
      <point x="240.0" y="159.0"/>
      <point x="240.0" y="202.6" type="curve"/>
      <point x="84.0" y="202.6" type="line"/>
      <point x="84.0" y="71.6"/>
      <point x="190.8" y="-31.0"/>
    </contour>
  </outline>
</glyph>
<glyph name="sixinferior" format="2">
  <advance width="682.0"/>
  <unicode hex="2086"/>
  <outline>
    <contour>
      <point x="329.0" y="-31.0" type="curve" smooth="yes"/>
      <point x="455.4" y="-31.0"/>
      <point x="562.0" y="67.8"/>
      <point x="562.0" y="197.8" type="curve" smooth="yes"/>
      <point x="562.0" y="308.2"/>
      <point x="492.4" y="397.2"/>
      <point x="370.2" y="425.6" type="curve"/>
      <point x="488.2" y="627.8" type="line"/>
      <point x="307.0" y="627.8" type="line"/>
      <point x="115.6" y="297.2"/>
      <point x="96.0" y="273.4"/>
      <point x="96.0" y="200.6" type="curve" smooth="yes"/>
      <point x="96.0" y="69.6"/>
      <point x="198.2" y="-31.0"/>
    </contour>
    <contour>
      <point x="329.0" y="125.0" type="curve" smooth="yes"/>
      <point x="296.8" y="125.0"/>
      <point x="260.8" y="140.4"/>
      <point x="253.8" y="185.2" type="curve" smooth="yes"/>
      <point x="247.6" y="225.6"/>
      <point x="273.2" y="274.8"/>
      <point x="329.0" y="274.8" type="curve" smooth="yes"/>
      <point x="366.0" y="274.8"/>
      <point x="397.2" y="250.4"/>
      <point x="403.4" y="212.8" type="curve" smooth="yes"/>
      <point x="412.2" y="165.8"/>
      <point x="376.0" y="125.0"/>
    </contour>
  </outline>
</glyph>
<glyph name="seveninferior" format="2">
  <advance width="676.75"/>
  <unicode hex="2087"/>
  <outline>
    <contour>
      <point x="150.6" y="0.0" type="line"/>
      <point x="329.2" y="0.0" type="line"/>
      <point x="604.8" y="479.4" type="line"/>
      <point x="604.8" y="631.0" type="line"/>
      <point x="120.0" y="631.0" type="line"/>
      <point x="120.0" y="475.0" type="line"/>
      <point x="424.6" y="475.0" type="line"/>
    </contour>
  </outline>
</glyph>
<glyph name="eightinferior" format="2">
  <advance width="630.625"/>
  <unicode hex="2088"/>
  <outline>
    <contour>
      <point x="314.2" y="-31.0" type="curve" smooth="yes"/>
      <point x="437.6" y="-31.0"/>
      <point x="534.6" y="62.6"/>
      <point x="534.6" y="183.2" type="curve" smooth="yes"/>
      <point x="534.6" y="240.0"/>
      <point x="513.6" y="292.2"/>
      <point x="479.8" y="329.8" type="curve"/>
      <point x="506.2" y="363.8"/>
      <point x="522.0" y="408.0"/>
      <point x="522.0" y="452.8" type="curve" smooth="yes"/>
      <point x="522.0" y="569.0"/>
      <point x="427.8" y="659.0"/>
      <point x="314.2" y="659.0" type="curve" smooth="yes"/>
      <point x="201.0" y="659.0"/>
      <point x="108.6" y="569.0"/>
      <point x="108.6" y="452.8" type="curve" smooth="yes"/>
      <point x="108.6" y="408.0"/>
      <point x="124.6" y="363.8"/>
      <point x="150.8" y="329.8" type="curve"/>
      <point x="117.2" y="292.2"/>
      <point x="96.0" y="240.0"/>
      <point x="96.0" y="183.2" type="curve" smooth="yes"/>
      <point x="96.0" y="62.6"/>
      <point x="193.2" y="-31.0"/>
    </contour>
    <contour>
      <point x="314.2" y="122.4" type="curve" smooth="yes"/>
      <point x="280.2" y="122.4"/>
      <point x="252.0" y="149.0"/>
      <point x="252.0" y="183.2" type="curve" smooth="yes"/>
      <point x="252.0" y="219.0"/>
      <point x="280.2" y="247.2"/>
      <point x="314.2" y="247.2" type="curve" smooth="yes"/>
      <point x="350.4" y="247.2"/>
      <point x="378.6" y="219.0"/>
      <point x="378.6" y="183.2" type="curve" smooth="yes"/>
      <point x="378.6" y="149.0"/>
      <point x="350.4" y="122.4"/>
    </contour>
    <contour>
      <point x="314.2" y="403.2" type="curve" smooth="yes"/>
      <point x="287.6" y="403.2"/>
      <point x="264.6" y="427.0"/>
      <point x="264.6" y="452.8" type="curve" smooth="yes"/>
      <point x="264.6" y="481.6"/>
      <point x="287.6" y="503.0"/>
      <point x="314.2" y="503.0" type="curve" smooth="yes"/>
      <point x="343.2" y="503.0"/>
      <point x="366.0" y="481.6"/>
      <point x="366.0" y="452.8" type="curve" smooth="yes"/>
      <point x="366.0" y="427.0"/>
      <point x="343.2" y="403.2"/>
    </contour>
  </outline>
</glyph>
<glyph name="nineinferior" format="2">
  <advance width="658.25"/>
  <unicode hex="2089"/>
  <outline>
    <contour>
      <point x="144.2" y="0.0" type="line"/>
      <point x="324.2" y="0.0" type="line"/>
      <point x="506.2" y="314.0" type="line"/>
      <point x="595.6" y="471.6"/>
      <point x="482.2" y="660.6"/>
      <point x="305.2" y="660.6" type="curve" smooth="yes"/>
      <point x="181.6" y="660.6"/>
      <point x="81.4" y="565.2"/>
      <point x="76.0" y="444.4" type="curve" smooth="yes"/>
      <point x="63.2" y="334.2"/>
      <point x="140.2" y="220.6"/>
      <point x="261.2" y="204.0" type="curve"/>
    </contour>
    <contour>
      <point x="305.2" y="353.0" type="curve" smooth="yes"/>
      <point x="276.0" y="353.0"/>
      <point x="231.4" y="370.6"/>
      <point x="228.8" y="422.2" type="curve" smooth="yes"/>
      <point x="225.8" y="462.2"/>
      <point x="254.6" y="504.6"/>
      <point x="305.2" y="504.6" type="curve" smooth="yes"/>
      <point x="340.4" y="504.6"/>
      <point x="378.8" y="473.6"/>
      <point x="381.6" y="436.8" type="curve" smooth="yes"/>
      <point x="384.6" y="392.2"/>
      <point x="349.6" y="353.0"/>
    </contour>
  </outline>
</glyph>
<glyph name="euro" format="2">
  <advance width="1109.25"/>
  <unicode hex="20AC"/>
  <outline>
    <contour>
      <point x="1029.2" y="-15.8" type="curve"/>
      <point x="1029.2" y="263.0" type="line"/>
      <point x="831.6" y="205.6"/>
      <point x="643.6" y="294.6"/>
      <point x="549.2" y="475.0" type="curve"/>
      <point x="803.0" y="475.0" type="line"/>
      <point x="803.0" y="657.6" type="line"/>
      <point x="493.8" y="657.6" type="line"/>
      <point x="492.0" y="739.0" type="line"/>
      <point x="803.0" y="739.0" type="line"/>
      <point x="803.0" y="921.6" type="line"/>
      <point x="547.6" y="921.6" type="line"/>
      <point x="636.6" y="1097.8"/>
      <point x="823.8" y="1196.6"/>
      <point x="1029.2" y="1137.2" type="curve"/>
      <point x="1029.2" y="1416.0" type="line"/>
      <point x="674.8" y="1474.0"/>
      <point x="356.0" y="1262.6"/>
      <point x="254.6" y="921.6" type="curve"/>
      <point x="80.0" y="921.6" type="line"/>
      <point x="80.0" y="739.0" type="line"/>
      <point x="221.8" y="739.0" type="line"/>
      <point x="221.8" y="657.6" type="line"/>
      <point x="80.0" y="657.6" type="line"/>
      <point x="80.0" y="475.0" type="line"/>
      <point x="254.6" y="475.0" type="line"/>
      <point x="359.0" y="140.0"/>
      <point x="672.0" y="-74.0"/>
    </contour>
  </outline>
</glyph>
<glyph name="leftArrow" format="2">
  <advance width="1415.5"/>
  <unicode hex="2190"/>
  <outline>
    <contour>
      <point x="621.2" y="208.8" type="line"/>
      <point x="812.0" y="399.6" type="line"/>
      <point x="596.6" y="615.0" type="line"/>
      <point x="1335.6" y="615.0" type="line"/>
      <point x="1335.6" y="885.0" type="line"/>
      <point x="596.6" y="885.0" type="line"/>
      <point x="812.0" y="1100.6" type="line"/>
      <point x="621.2" y="1291.2" type="line"/>
      <point x="80.0" y="750.0" type="line"/>
    </contour>
  </outline>
</glyph>
<glyph name="upArrow" format="2">
  <advance width="1242.75"/>
  <unicode hex="2191"/>
  <outline>
    <contour>
      <point x="486.6" y="121.2" type="line"/>
      <point x="756.6" y="121.2" type="line"/>
      <point x="756.6" y="860.6" type="line"/>
      <point x="972.0" y="646.6" type="line"/>
      <point x="1162.8" y="837.6" type="line"/>
      <point x="621.6" y="1378.8" type="line"/>
      <point x="80.0" y="837.6" type="line"/>
      <point x="271.0" y="646.6" type="line"/>
      <point x="486.6" y="860.6" type="line"/>
    </contour>
  </outline>
</glyph>
<glyph name="rightArrow" format="2">
  <advance width="1417.25"/>
  <unicode hex="2192"/>
  <outline>
    <contour>
      <point x="795.8" y="208.8" type="line"/>
      <point x="1337.2" y="750.0" type="line"/>
      <point x="795.8" y="1291.2" type="line"/>
      <point x="605.0" y="1100.6" type="line"/>
      <point x="818.8" y="885.0" type="line"/>
      <point x="80.0" y="885.0" type="line"/>
      <point x="80.0" y="615.0" type="line"/>
      <point x="818.8" y="615.0" type="line"/>
      <point x="605.0" y="399.6" type="line"/>
    </contour>
  </outline>
</glyph>
<glyph name="downArrow" format="2">
  <advance width="1241.0"/>
  <unicode hex="2193"/>
  <outline>
    <contour>
      <point x="619.6" y="121.6" type="line"/>
      <point x="1161.0" y="662.8" type="line"/>
      <point x="970.2" y="853.6" type="line"/>
      <point x="754.6" y="639.8" type="line"/>
      <point x="754.6" y="1378.6" type="line"/>
      <point x="484.6" y="1378.6" type="line"/>
      <point x="484.6" y="639.8" type="line"/>
      <point x="270.8" y="853.6" type="line"/>
      <point x="80.0" y="662.8" type="line"/>
    </contour>
  </outline>
</glyph>
<glyph name="leftRightArrow" format="2">
  <advance width="1882.25"/>
  <unicode hex="2194"/>
  <outline>
    <contour>
      <point x="621.2" y="208.8" type="line"/>
      <point x="812.0" y="399.6" type="line"/>
      <point x="596.6" y="615.0" type="line"/>
      <point x="1283.8" y="615.0" type="line"/>
      <point x="1070.0" y="399.6" type="line"/>
      <point x="1260.8" y="208.8" type="line"/>
      <point x="1802.2" y="750.0" type="line"/>
      <point x="1260.8" y="1291.2" type="line"/>
      <point x="1070.0" y="1100.6" type="line"/>
      <point x="1283.8" y="885.0" type="line"/>
      <point x="596.6" y="885.0" type="line"/>
      <point x="812.0" y="1100.6" type="line"/>
      <point x="621.2" y="1291.2" type="line"/>
      <point x="80.0" y="750.0" type="line"/>
    </contour>
  </outline>
</glyph>
<glyph name="upDownArrow" format="2">
  <advance width="1242.75"/>
  <unicode hex="2195"/>
  <outline>
    <contour>
      <point x="621.2" y="-111.2" type="line"/>
      <point x="1162.8" y="430.2" type="line"/>
      <point x="971.8" y="621.2" type="line"/>
      <point x="756.2" y="407.0" type="line"/>
      <point x="756.2" y="1093.0" type="line"/>
      <point x="971.8" y="879.0" type="line"/>
      <point x="1162.8" y="1070.0" type="line"/>
      <point x="621.2" y="1611.2" type="line"/>
      <point x="80.0" y="1070.0" type="line"/>
      <point x="270.8" y="879.0" type="line"/>
      <point x="486.2" y="1093.0" type="line"/>
      <point x="486.2" y="407.0" type="line"/>
      <point x="270.8" y="621.2" type="line"/>
      <point x="80.0" y="430.2" type="line"/>
    </contour>
  </outline>
</glyph>
<glyph name="northWestArrow" format="2">
  <advance width="1144.0"/>
  <unicode hex="2196"/>
  <outline>
    <contour>
      <point x="873.2" y="258.2" type="line"/>
      <point x="1064.0" y="448.8" type="line"/>
      <point x="541.0" y="971.8" type="line"/>
      <point x="845.0" y="971.8" type="line"/>
      <point x="845.0" y="1241.8" type="line"/>
      <point x="80.0" y="1241.8" type="line"/>
      <point x="80.0" y="476.8" type="line"/>
      <point x="350.0" y="476.8" type="line"/>
      <point x="350.0" y="781.2" type="line"/>
    </contour>
  </outline>
</glyph>
<glyph name="northEastArrow" format="2">
  <advance width="1143.75"/>
  <unicode hex="2197"/>
  <outline>
    <contour>
      <point x="270.8" y="259.0" type="line"/>
      <point x="793.8" y="780.2" type="line"/>
      <point x="793.8" y="476.0" type="line"/>
      <point x="1063.8" y="476.0" type="line"/>
      <point x="1063.8" y="1241.0" type="line"/>
      <point x="297.0" y="1241.0" type="line"/>
      <point x="297.0" y="971.0" type="line"/>
      <point x="603.0" y="971.0" type="line"/>
      <point x="80.0" y="449.8" type="line"/>
    </contour>
  </outline>
</glyph>
<glyph name="southEastArrow" format="2">
  <advance width="1143.75"/>
  <unicode hex="2198"/>
  <outline>
    <contour>
      <point x="298.8" y="259.0" type="line"/>
      <point x="1063.8" y="259.0" type="line"/>
      <point x="1063.8" y="1024.0" type="line"/>
      <point x="793.8" y="1024.0" type="line"/>
      <point x="793.8" y="719.8" type="line"/>
      <point x="270.8" y="1241.0" type="line"/>
      <point x="80.0" y="1050.2" type="line"/>
      <point x="603.0" y="529.0" type="line"/>
      <point x="298.8" y="529.0" type="line"/>
    </contour>
  </outline>
</glyph>
<glyph name="southWestArrow" format="2">
  <advance width="1143.75"/>
  <unicode hex="2199"/>
  <outline>
    <contour>
      <point x="80.0" y="259.0" type="line"/>
      <point x="845.0" y="259.0" type="line"/>
      <point x="845.0" y="529.0" type="line"/>
      <point x="540.8" y="529.0" type="line"/>
      <point x="1063.8" y="1050.2" type="line"/>
      <point x="873.0" y="1241.0" type="line"/>
      <point x="350.0" y="719.8" type="line"/>
      <point x="350.0" y="1024.0" type="line"/>
      <point x="80.0" y="1024.0" type="line"/>
    </contour>
  </outline>
</glyph>
<glyph name="partialdiff" format="2">
  <advance width="1165.75"/>
  <unicode hex="2202"/>
  <outline>
    <contour>
      <point x="583.8" y="-26.0" type="curve"/>
      <point x="875.0" y="-26.0"/>
      <point x="1085.8" y="198.0"/>
      <point x="1085.8" y="513.2" type="curve"/>
      <point x="1085.2" y="1046.8"/>
      <point x="795.0" y="1532.2"/>
      <point x="340.8" y="1532.2" type="curve"/>
      <point x="342.6" y="1262.2" type="line"/>
      <point x="574.8" y="1262.2"/>
      <point x="651.2" y="1081.8"/>
      <point x="706.6" y="944.2" type="curve"/>
      <point x="672.6" y="966.8"/>
      <point x="628.8" y="979.8"/>
      <point x="583.8" y="979.8" type="curve"/>
      <point x="306.0" y="979.8"/>
      <point x="80.0" y="754.0"/>
      <point x="80.0" y="476.0" type="curve"/>
      <point x="80.0" y="199.8"/>
      <point x="306.0" y="-26.0"/>
    </contour>
    <contour>
      <point x="583.8" y="244.0" type="curve"/>
      <point x="455.0" y="244.0"/>
      <point x="350.0" y="349.8"/>
      <point x="350.0" y="476.0" type="curve"/>
      <point x="350.0" y="603.8"/>
      <point x="454.6" y="709.8"/>
      <point x="583.8" y="709.8" type="curve"/>
      <point x="711.0" y="709.8"/>
      <point x="816.0" y="604.2"/>
      <point x="816.0" y="476.0" type="curve"/>
      <point x="816.0" y="350.2"/>
      <point x="711.6" y="244.0"/>
    </contour>
  </outline>
</glyph>
<glyph name="emptyset" format="2">
  <advance width="1160.0"/>
  <unicode hex="2205"/>
  <outline>
    <contour>
      <point x="370.2" y="-80.2" type="line"/>
      <point x="417.8" y="2.799999999999997" type="line"/>
      <point x="468.6" y="-16.0"/>
      <point x="522.2" y="-26.0"/>
      <point x="580.0" y="-26.0" type="curve" smooth="yes"/>
      <point x="856.0" y="-26.0"/>
      <point x="1080.0" y="210.0"/>
      <point x="1080.0" y="500.0" type="curve" smooth="yes"/>
      <point x="1080.0" y="650.6"/>
      <point x="1020.6" y="785.8"/>
      <point x="925.6" y="881.8" type="curve"/>
      <point x="978.6" y="973.8" type="line"/>
      <point x="790.0" y="1082.6" type="line"/>
      <point x="740.6" y="999.6" type="line"/>
      <point x="691.8" y="1018.2"/>
      <point x="636.2" y="1028.0"/>
      <point x="580.0" y="1028.0" type="curve" smooth="yes"/>
      <point x="304.0" y="1028.0"/>
      <point x="80.0" y="792.0"/>
      <point x="80.0" y="500.0" type="curve" smooth="yes"/>
      <point x="80.0" y="351.8"/>
      <point x="139.8" y="216.6"/>
      <point x="234.8" y="120.6" type="curve"/>
      <point x="181.8" y="28.6" type="line"/>
    </contour>
    <contour>
      <point x="368.0" y="347.8" type="line"/>
      <point x="343.6" y="386.2"/>
      <point x="329.0" y="431.6"/>
      <point x="329.0" y="484.2" type="curve" smooth="yes"/>
      <point x="329.0" y="658.8"/>
      <point x="465.8" y="801.8"/>
      <point x="619.6" y="784.8" type="curve"/>
    </contour>
    <contour>
      <point x="540.6" y="217.60000000000002" type="curve"/>
      <point x="792.2" y="654.6" type="line"/>
      <point x="815.0" y="615.8"/>
      <point x="831.0" y="568.6"/>
      <point x="831.0" y="515.8" type="curve" smooth="yes"/>
      <point x="831.0" y="342.2"/>
      <point x="699.2" y="200.0"/>
    </contour>
  </outline>
</glyph>
<glyph name="product" format="2">
  <advance width="1280.0"/>
  <unicode hex="220F"/>
  <outline>
    <contour>
      <point x="80.0" y="1400.0" type="line"/>
      <point x="80.0" y="1130.0" type="line"/>
      <point x="1200.0" y="1130.0" type="line"/>
      <point x="1200.0" y="1400.0" type="line"/>
    </contour>
    <contour>
      <point x="205.0" y="1215.2" type="line"/>
      <point x="205.0" y="0.0" type="line"/>
      <point x="475.0" y="0.0" type="line"/>
      <point x="475.0" y="1215.2" type="line"/>
    </contour>
    <contour>
      <point x="805.0" y="1215.2" type="line"/>
      <point x="805.0" y="0.0" type="line"/>
      <point x="1075.0" y="0.0" type="line"/>
      <point x="1075.0" y="1215.2" type="line"/>
    </contour>
  </outline>
</glyph>
<glyph name="summation" format="2">
  <advance width="915.25"/>
  <unicode hex="2211"/>
  <outline>
    <contour>
      <point x="80.0" y="0.0" type="line"/>
      <point x="855.2" y="0.0" type="line"/>
      <point x="855.2" y="270.0" type="line"/>
      <point x="384.20000000000005" y="270.0" type="line"/>
      <point x="601.8" y="698.0" type="line"/>
      <point x="384.20000000000005" y="1126.0" type="line"/>
      <point x="855.2" y="1126.0" type="line"/>
      <point x="855.2" y="1396.0" type="line"/>
      <point x="80.0" y="1396.0" type="line"/>
      <point x="80.0" y="1126.0" type="line"/>
      <point x="299.2" y="698.0" type="line"/>
      <point x="80.0" y="270.0" type="line"/>
    </contour>
  </outline>
</glyph>
<glyph name="radical" format="2">
  <advance width="1360.75"/>
  <unicode hex="221A"/>
  <outline>
    <contour>
      <point x="908.8" y="1400.0" type="line"/>
      <point x="511.6" y="313.0" type="line"/>
      <point x="366.2" y="708.0" type="line"/>
      <point x="80.0" y="708.0" type="line"/>
      <point x="338.0" y="0.0" type="line"/>
      <point x="684.8" y="0.0" type="line"/>
      <point x="1097.8" y="1130.0" type="line"/>
      <point x="1280.8" y="1130.0" type="line"/>
      <point x="1280.8" y="1400.0" type="line"/>
    </contour>
  </outline>
</glyph>
<glyph name="infinity" format="2">
  <advance width="1533.75"/>
  <unicode hex="221E"/>
  <outline>
    <contour>
      <point x="451.0" y="242.0" type="curve" smooth="yes"/>
      <point x="576.8" y="233.2"/>
      <point x="672.0" y="294.8"/>
      <point x="767.0" y="407.6" type="curve"/>
      <point x="861.0" y="298.8"/>
      <point x="954.2" y="242.0"/>
      <point x="1084.8" y="242.0" type="curve" smooth="yes"/>
      <point x="1304.8" y="244.2"/>
      <point x="1453.8" y="405.0"/>
      <point x="1453.8" y="616.2" type="curve" smooth="yes"/>
      <point x="1453.8" y="816.0"/>
      <point x="1318.0" y="988.8"/>
      <point x="1081.2" y="990.6" type="curve" smooth="yes"/>
      <point x="959.2" y="990.6"/>
      <point x="862.0" y="934.6"/>
      <point x="767.0" y="823.2" type="curve"/>
      <point x="676.0" y="932.0"/>
      <point x="580.6" y="990.6"/>
      <point x="451.0" y="990.6" type="curve" smooth="yes"/>
      <point x="230.8" y="988.8"/>
      <point x="80.0" y="825.8"/>
      <point x="80.0" y="616.2" type="curve" smooth="yes"/>
      <point x="80.0" y="418.0"/>
      <point x="219.6" y="262.0"/>
    </contour>
    <contour>
      <point x="448.0" y="487.6" type="curve" smooth="yes"/>
      <point x="374.2" y="489.2"/>
      <point x="323.8" y="544.6"/>
      <point x="323.8" y="616.2" type="curve" smooth="yes"/>
      <point x="323.8" y="676.8"/>
      <point x="368.2" y="739.8"/>
      <point x="448.0" y="743.2" type="curve" smooth="yes"/>
      <point x="514.8" y="746.8"/>
      <point x="578.2" y="670.8"/>
      <point x="618.6" y="616.2" type="curve"/>
      <point x="582.6" y="566.0"/>
      <point x="516.8" y="487.6"/>
    </contour>
    <contour>
      <point x="1087.6" y="487.6" type="curve" smooth="yes"/>
      <point x="1022.2" y="485.8"/>
      <point x="959.6" y="559.2"/>
      <point x="917.0" y="616.2" type="curve"/>
      <point x="964.6" y="679.2"/>
      <point x="1020.8" y="745.0"/>
      <point x="1095.2" y="745.0" type="curve" smooth="yes"/>
      <point x="1164.2" y="743.2"/>
      <point x="1211.8" y="682.6"/>
      <point x="1211.8" y="616.2" type="curve" smooth="yes"/>
      <point x="1211.8" y="552.2"/>
      <point x="1167.0" y="491.0"/>
    </contour>
  </outline>
</glyph>
<glyph name="integral" format="2">
  <advance width="1122.5"/>
  <unicode hex="222B"/>
  <outline>
    <contour>
      <point x="376.6" y="-26.0" type="curve" smooth="yes"/>
      <point x="495.6" y="-25.8"/>
      <point x="608.6" y="35.2"/>
      <point x="644.6" y="188.6" type="curve"/>
      <point x="738.2" y="1139.2" type="line"/>
      <point x="743.6" y="1181.8"/>
      <point x="770.4" y="1205.8"/>
      <point x="802.2" y="1208.6" type="curve"/>
      <point x="843.6" y="1215.2"/>
      <point x="880.6" y="1195.2"/>
      <point x="889.2" y="1130.8" type="curve"/>
      <point x="1041.6" y="1116.0" type="line"/>
      <point x="1056.4" y="1275.8"/>
      <point x="925.4" y="1425.2"/>
      <point x="758.8" y="1426.0" type="curve" smooth="yes"/>
      <point x="629.6" y="1426.6"/>
      <point x="493.8" y="1331.8"/>
      <point x="476.8" y="1210.0" type="curve"/>
      <point x="381.6" y="253.8" type="line"/>
      <point x="375.6" y="212.0"/>
      <point x="343.6" y="187.60000000000002"/>
      <point x="300.4" y="188.0" type="curve" smooth="yes"/>
      <point x="256.6" y="189.0"/>
      <point x="254.8" y="224.2"/>
      <point x="248.6" y="269.2" type="curve"/>
      <point x="80.2" y="282.2" type="line"/>
      <point x="70.2" y="103.2"/>
      <point x="201.8" y="-25.8"/>
    </contour>
  </outline>
</glyph>
<glyph name="notequal" format="2">
  <advance width="1160.0"/>
  <unicode hex="2260"/>
  <outline>
    <contour>
      <point x="890.2" y="1182.0" type="line"/>
      <point x="609.6" y="1182.0" type="line"/>
      <point x="542.2" y="953.2" type="line"/>
      <point x="80.0" y="953.2" type="line"/>
      <point x="80.0" y="683.2" type="line"/>
      <point x="463.0" y="683.2" type="line"/>
      <point x="414.2" y="516.8" type="line"/>
      <point x="80.0" y="516.8" type="line"/>
      <point x="80.0" y="246.8" type="line"/>
      <point x="335.2" y="246.8" type="line"/>
      <point x="267.8" y="18.0" type="line"/>
      <point x="548.6" y="18.0" type="line"/>
      <point x="616.0" y="246.8" type="line"/>
      <point x="1080.0" y="246.8" type="line"/>
      <point x="1080.0" y="516.8" type="line"/>
      <point x="695.2" y="516.8" type="line"/>
      <point x="743.8" y="683.2" type="line"/>
      <point x="1080.0" y="683.2" type="line"/>
      <point x="1080.0" y="953.2" type="line"/>
      <point x="823.0" y="953.2" type="line"/>
    </contour>
  </outline>
</glyph>
<glyph name="lessequal" format="2">
  <advance width="1160.0"/>
  <unicode hex="2264"/>
  <outline>
    <contour>
      <point x="1080.0" y="330.6" type="line"/>
      <point x="1080.0" y="611.2" type="line"/>
      <point x="274.0" y="841.0" type="line"/>
      <point x="1080.0" y="1070.6" type="line"/>
      <point x="1080.0" y="1351.6" type="line"/>
      <point x="80.0" y="1065.6" type="line"/>
      <point x="80.0" y="614.6" type="line"/>
    </contour>
    <contour>
      <point x="80.0" y="0.0" type="line"/>
      <point x="1080.0" y="0.0" type="line"/>
      <point x="1080.0" y="270.0" type="line"/>
      <point x="80.0" y="270.0" type="line"/>
    </contour>
  </outline>
</glyph>
<glyph name="greaterequal" format="2">
  <advance width="1160.0"/>
  <unicode hex="2265"/>
  <outline>
    <contour>
      <point x="80.0" y="351.6" type="line"/>
      <point x="1080.0" y="625.0" type="line"/>
      <point x="1080.0" y="1076.0" type="line"/>
      <point x="80.0" y="1351.6" type="line"/>
      <point x="80.0" y="1070.6" type="line"/>
      <point x="886.0" y="851.6" type="line"/>
      <point x="80.0" y="632.2" type="line"/>
    </contour>
    <contour>
      <point x="80.0" y="0.0" type="line"/>
      <point x="1080.0" y="0.0" type="line"/>
      <point x="1080.0" y="270.0" type="line"/>
      <point x="80.0" y="270.0" type="line"/>
    </contour>
  </outline>
</glyph>
<glyph name="lozenge" format="2">
  <advance width="1137.0"/>
  <unicode hex="25CA"/>
  <outline>
    <contour>
      <point x="328.0" y="0.0" type="line"/>
      <point x="809.0" y="0.0" type="line"/>
      <point x="1077.0" y="702.0" type="line"/>
      <point x="811.0" y="1400.0" type="line"/>
      <point x="326.0" y="1400.0" type="line"/>
      <point x="60.0" y="702.0" type="line"/>
    </contour>
    <contour>
      <point x="568.6" y="134.0" type="line"/>
      <point x="344.6" y="702.0" type="line"/>
      <point x="568.6" y="1270.0" type="line"/>
      <point x="794.6" y="702.0" type="line"/>
    </contour>
  </outline>
</glyph>
<glyph name="replacementCharacter" format="2">
  <advance width="1630.0"/>
  <unicode hex="FFFD"/>
  <outline>
    <contour>
      <point x="816.0" y="-26.0" type="curve" smooth="yes"/>
      <point x="888.0" y="-26.0"/>
      <point x="960.0" y="2.0"/>
      <point x="1014.0" y="56.0" type="curve" smooth="yes"/>
      <point x="1428.0" y="470.0" type="line" smooth="yes"/>
      <point x="1484.0" y="526.0"/>
      <point x="1510.0" y="598.0"/>
      <point x="1510.0" y="670.0" type="curve" smooth="yes"/>
      <point x="1510.0" y="742.0"/>
      <point x="1484.0" y="812.0"/>
      <point x="1428.0" y="868.0" type="curve" smooth="yes"/>
      <point x="1014.0" y="1282.0" type="line" smooth="yes"/>
      <point x="958.0" y="1338.0"/>
      <point x="888.0" y="1364.0"/>
      <point x="816.0" y="1364.0" type="curve" smooth="yes"/>
      <point x="744.0" y="1364.0"/>
      <point x="672.0" y="1338.0"/>
      <point x="616.0" y="1282.0" type="curve" smooth="yes"/>
      <point x="202.0" y="868.0" type="line" smooth="yes"/>
      <point x="148.0" y="814.0"/>
      <point x="120.0" y="742.0"/>
      <point x="120.0" y="670.0" type="curve" smooth="yes"/>
      <point x="120.0" y="598.0"/>
      <point x="146.0" y="526.0"/>
      <point x="202.0" y="470.0" type="curve" smooth="yes"/>
      <point x="616.0" y="56.0" type="line" smooth="yes"/>
      <point x="672.0" y="0.0"/>
      <point x="744.0" y="-26.0"/>
    </contour>
    <contour>
      <point x="820.6" y="245.0" type="curve" smooth="yes"/>
      <point x="769.6" y="245.0"/>
      <point x="729.2" y="285.2"/>
      <point x="729.2" y="338.0" type="curve" smooth="yes"/>
      <point x="729.2" y="387.2"/>
      <point x="769.6" y="427.6"/>
      <point x="820.6" y="427.6" type="curve" smooth="yes"/>
      <point x="871.8" y="427.6"/>
      <point x="911.8" y="387.2"/>
      <point x="911.8" y="338.0" type="curve" smooth="yes"/>
      <point x="911.8" y="285.2"/>
      <point x="871.8" y="245.0"/>
    </contour>
    <contour>
      <point x="723.8" y="513.0" type="line"/>
      <point x="723.8" y="515.0" type="line" smooth="yes"/>
      <point x="723.8" y="601.6"/>
      <point x="768.6" y="682.2"/>
      <point x="847.2" y="721.0" type="curve" smooth="yes"/>
      <point x="870.0" y="732.6"/>
      <point x="884.0" y="759.6"/>
      <point x="884.0" y="789.0" type="curve" smooth="yes"/>
      <point x="884.0" y="831.8"/>
      <point x="850.0" y="865.6"/>
      <point x="807.2" y="865.6" type="curve" smooth="yes"/>
      <point x="764.6" y="865.6"/>
      <point x="730.6" y="831.8"/>
      <point x="730.6" y="789.0" type="curve"/>
      <point x="548.0" y="789.0" type="line"/>
      <point x="548.0" y="932.0"/>
      <point x="664.0" y="1048.0"/>
      <point x="807.2" y="1048.0" type="curve" smooth="yes"/>
      <point x="950.2" y="1048.0"/>
      <point x="1066.6" y="932.0"/>
      <point x="1066.6" y="789.0" type="curve" smooth="yes"/>
      <point x="1066.6" y="692.0"/>
      <point x="1014.2" y="606.8"/>
      <point x="933.0" y="560.6" type="curve" smooth="yes"/>
      <point x="916.2" y="551.0"/>
      <point x="906.2" y="534.0"/>
      <point x="906.2" y="515.0" type="curve" smooth="yes"/>
      <point x="906.2" y="513.0" type="line"/>
    </contour>
  </outline>
</glyph>
